{
.appVersion = "3326";
.formatVersion = 3;
DisplayStrings = (
"#",
"H-H",
"H-H–H—H",
"(",
"H//H",
"H@Ha",
"H&HSHAHNM",
"@hola",
"&8S",
"OcR©®",
"TM™",
"00123$23C0000€0CO300£010S",
"2+2×2÷2=2",
"merger
HEHHHaHanannnnononoaonananynnnvnovo
East Layton never had a commercial tax base to speak of; oro
",
"jason guzman.

yei",
"Caturra
Castillo",
"gonorrea!"
);
axes = (
{
name = Width;
tag = wdth;
}
);
customParameters = (
{
name = "Family Alignment Zones";
value = (
{
pos = 700;
size = 20;
},
{
pos = 700;
size = 20;
},
{
pos = 500;
size = 20;
},
{
pos = 0;
size = -20;
},
{
pos = -200;
size = -20;
}
);
},
{
name = "Use Typo Metrics";
value = 1;
},
{
name = "Use Extension Kerning";
value = 1;
},
{
name = blueScale;
value = 0.04;
},
{
name = blueFuzz;
value = 0;
},
{
name = blueShift;
value = 7;
},
{
name = fsType;
value = (
);
},
{
name = unicodeRanges;
value = (
0
);
},
{
name = hheaAscender;
value = 960;
},
{
name = hheaDescender;
value = -270;
},
{
name = hheaLineGap;
value = 170;
},
{
name = typoAscender;
value = 960;
},
{
name = typoDescender;
value = -270;
},
{
name = typoLineGap;
value = 170;
},
{
name = winAscent;
value = 960;
},
{
name = winDescent;
value = 270;
}
);
date = "2022-12-15 22:38:47 +0000";
familyName = "Afrika BT V10";
featurePrefixes = (
{
automatic = 1;
code = "languagesystem DFLT dflt;

languagesystem latn dflt;
languagesystem latn ROM;
languagesystem latn MOL;
languagesystem latn NLD;
";
name = Languagesystems;
}
);
features = (
{
automatic = 1;
code = "feature locl;
feature ss01;
feature ss02;
";
tag = aalt;
},
{
automatic = 1;
code = "lookup ccmp_DFLT_1 {
	@CombiningTopAccents = [acutecomb brevecomb caroncomb circumflexcomb commaturnedabovecomb dieresiscomb dotaccentcomb gravecomb hungarumlautcomb macroncomb ringcomb tildecomb];
	lookupflag UseMarkFilteringSet @CombiningTopAccents;
	sub i' @CombiningTopAccents by idotless;
	sub j' @CombiningTopAccents by jdotless;
} ccmp_DFLT_1;
";
tag = ccmp;
},
{
automatic = 1;
code = "script latn;

glyphs = (
{
glyphname = A;
kernLeft = A;
kernRight = A;
lastChange = "2024-09-18 15:10:51 +0000";
layers = (
{
anchors = (
{
name = bottom;
pos = (531,0);
},
{
name = ogonek;
pos = (1052,0);
},
{
name = top;
pos = (531,660);
}
);
guides = (
{
angle = 90;
pos = (531,295);
}
);
layerId = "9AADC1C9-C373-4903-A2C4-BDDDC6C38F92";
shapes = (
{
closed = 1;
nodes = (
(857,153,l),
(857,249,l),
(207,249,l),
(207,153,l)
);
},
{
angle = 180;
pos = (1062,700);
ref = V;
}
);
width = 1062;
},
{
anchors = (
{
name = bottom;
pos = (316,0);
},
{
name = ogonek;
pos = (622,0);
},
{
name = top;
pos = (316,700);
}
);
guides = (
{
angle = 90;
pos = (316,295);
}
);
layerId = m002;
shapes = (
{
closed = 1;
nodes = (
(487,153,l),
(487,249,l),
(137,249,l),
(137,153,l)
);
},
{
angle = 180;
pos = (632,700);
ref = V;
}
);
width = 632;
}
);
metricRight = "=|";
unicode = 65;
},
{
glyphname = AE;
kernLeft = A;
lastChange = "2024-09-25 01:28:27 +0000";
layers = (
{
layerId = "9AADC1C9-C373-4903-A2C4-BDDDC6C38F92";
shapes = (
{
closed = 1;
nodes = (
(166,0,l),
(887,700,l),
(741,700,l),
(10,0,l)
);
},
{
closed = 1;
nodes = (
(897,153,l),
(897,249,l),
(287,249,l),
(287,153,l)
);
},
{
pos = (759,0);
ref = E;
}
);
width = 1769;
},
{
guides = (
{
pos = (197,635);
}
);
layerId = m002;
shapes = (
{
closed = 1;
nodes = (
(125,0,l),
(536,700,l),
(431,700,l),
(10,0,l)
);
},
{
closed = 1;
nodes = (
(556,153,l),
(556,249,l),
(176,249,l),
(176,153,l)
);
},
{
pos = (418,0);
ref = E;
}
);
width = 1012;
}
);
metricLeft = A;
metricRight = E;
unicode = 198;
},
{
glyphname = B;
kernRight = O;
lastChange = "2024-09-18 16:01:22 +0000";
layers = (
{
anchors = (
{
name = bottom;
pos = (545,0);
},
{
name = center;
pos = (545,350);
},
{
name = top;
pos = (545,700);
}
);
background = {
shapes = (
{
closed = 1;
nodes = (
(1010,0,l),
(1010,700,l),
(898,700,l),
(898,0,l)
);
},
{
closed = 1;
nodes = (
(192,0,l),
(192,700,l),
(80,700,l),
(80,0,l)
);
},
{
closed = 1;
nodes = (
(948,289,l),
(948,385,l),
(142,385,l),
(142,289,l)
);
}
);
};
layerId = "9AADC1C9-C373-4903-A2C4-BDDDC6C38F92";
shapes = (
{
closed = 1;
nodes = (
(757,0,ls),
(943,0,o),
(1010,96,o),
(1010,188,cs),
(1010,281,o),
(943,376,o),
(757,376,cs),
(603,376,l),
(603,298,l),
(689,298,ls),
(888,298,o),
(960,400,o),
(960,499,cs),
(960,598,o),
(888,700,o),
(689,700,cs),
(141,700,l),
(141,604,l),
(708,604,ls),
(804,604,o),
(847,549,o),
(847,495,cs),
(847,440,o),
(804,385,o),
(708,385,cs),
(141,385,l),
(141,289,l),
(775,289,ls),
(859,289,o),
(897,240,o),
(897,192,cs),
(897,145,o),
(859,96,o),
(775,96,cs),
(141,96,l),
(141,0,l)
);
},
{
closed = 1;
nodes = (
(192,0,l),
(192,700,l),
(80,700,l),
(80,0,l)
);
}
);
width = 1062;
},
{
associatedMasterId = "9AADC1C9-C373-4903-A2C4-BDDDC6C38F92";
background = {
shapes = (
{
closed = 1;
nodes = (
(215,750,l),
(100,750,l),
(100,0,l),
(215,0,l)
);
},
{
closed = 1;
nodes = (
(215,750,l),
(215,645,l),
(705,645,ls),
(965,645,o),
(1080,550,o),
(1080,375,c),
(1200,375,l),
(1200,625,o),
(1025,750,o),
(720,750,cs)
);
},
{
closed = 1;
nodes = (
(1025,0,o),
(1200,125,o),
(1200,375,c),
(1080,375,l),
(1080,200,o),
(965,105,o),
(705,105,cs),
(215,105,l),
(215,0,l),
(720,0,ls)
);
}
);
};
layerId = "5091D346-3151-4C0A-8705-C091CC5E0229";
name = "Feb 2 21, 00:41";
shapes = (
{
closed = 1;
nodes = (
(215,325,l),
(865,325,ls),
(974,325,o),
(1025,280,o),
(1025,215,cs),
(1025,155,o),
(977,105,o),
(865,105,cs),
(215,105,l),
(215,0,l),
(847,0,ls),
(1067,0,o),
(1145,111,o),
(1145,215,cs),
(1145,326,o),
(1067,425,o),
(847,425,cs),
(215,425,l)
);
},
{
closed = 1;
nodes = (
(100,0,l),
(215,0,l),
(215,750,l),
(100,750,l)
);
},
{
closed = 1;
nodes = (
(797,325,ls),
(1017,325,o),
(1095,424,o),
(1095,535,cs),
(1095,639,o),
(1017,750,o),
(797,750,cs),
(215,750,l),
(215,645,l),
(815,645,ls),
(927,645,o),
(975,595,o),
(975,535,cs),
(975,470,o),
(924,425,o),
(815,425,cs),
(215,425,l),
(215,325,l)
);
}
);
width = 1225;
},
{
anchors = (
{
name = bottom;
pos = (314,0);
},
{
name = center;
pos = (314,350);
},
{
name = top;
pos = (314,700);
}
);
background = {
shapes = (
{
closed = 1;
nodes = (
(359,0,ls),
(548,0,o),
(600,103,o),
(600,192,cs),
(600,270,o),
(560,337,o),
(420,355,c),
(429,332,l),
(514,350,o),
(550,424,o),
(550,501,cs),
(550,598,o),
(485,700,o),
(309,700,cs),
(145,700,l),
(145,604,l),
(319,604,ls),
(398,604,o),
(438,549,o),
(438,495,cs),
(438,440,o),
(398,385,o),
(319,385,cs),
(145,385,l),
(145,289,l),
(366,289,ls),
(448,289,o),
(488,241,o),
(488,193,cs),
(488,144,o),
(448,96,o),
(366,96,cs),
(145,96,l),
(145,0,l)
);
},
{
closed = 1;
nodes = (
(192,0,l),
(192,700,l),
(80,700,l),
(80,0,l)
);
}
);
};
layerId = m002;
shapes = (
{
closed = 1;
nodes = (
(359,0,ls),
(545,0,o),
(600,96,o),
(600,188,cs),
(600,281,o),
(545,376,o),
(359,376,cs),
(193,376,l),
(193,298,l),
(281,298,ls),
(480,298,o),
(550,400,o),
(550,499,cs),
(550,598,o),
(500,700,o),
(301,700,cs),
(141,700,l),
(141,604,l),
(310,604,ls),
(406,604,o),
(437,549,o),
(437,495,cs),
(437,440,o),
(406,385,o),
(310,385,cs),
(141,385,l),
(141,289,l),
(377,289,ls),
(461,289,o),
(487,240,o),
(487,192,cs),
(487,145,o),
(461,96,o),
(377,96,cs),
(141,96,l),
(141,0,l)
);
},
{
closed = 1;
nodes = (
(192,0,l),
(192,700,l),
(80,700,l),
(80,0,l)
);
}
);
width = 652;
},
{
associatedMasterId = m002;
background = {
shapes = (
{
closed = 1;
nodes = (
(215,750,l),
(100,750,l),
(100,0,l),
(215,0,l)
);
},
{
closed = 1;
nodes = (
(215,750,l),
(215,645,l),
(705,645,ls),
(965,645,o),
(1080,550,o),
(1080,375,c),
(1200,375,l),
(1200,625,o),
(1025,750,o),
(720,750,cs)
);
},
{
closed = 1;
nodes = (
(1025,0,o),
(1200,125,o),
(1200,375,c),
(1080,375,l),
(1080,200,o),
(965,105,o),
(705,105,cs),
(215,105,l),
(215,0,l),
(720,0,ls)
);
}
);
};
layerId = "6DDEE73C-53BC-4177-9AF7-31731D308C09";
name = "Feb 2 21, 00:41";
shapes = (
{
closed = 1;
nodes = (
(215,325,l),
(865,325,ls),
(974,325,o),
(1025,280,o),
(1025,215,cs),
(1025,155,o),
(977,105,o),
(865,105,cs),
(215,105,l),
(215,0,l),
(847,0,ls),
(1067,0,o),
(1145,111,o),
(1145,215,cs),
(1145,326,o),
(1067,425,o),
(847,425,cs),
(215,425,l)
);
},
{
closed = 1;
nodes = (
(100,0,l),
(215,0,l),
(215,750,l),
(100,750,l)
);
},
{
closed = 1;
nodes = (
(797,325,ls),
(1017,325,o),
(1095,424,o),
(1095,535,cs),
(1095,639,o),
(1017,750,o),
(797,750,cs),
(215,750,l),
(215,645,l),
(815,645,ls),
(927,645,o),
(975,595,o),
(975,535,cs),
(975,470,o),
(924,425,o),
(815,425,cs),
(215,425,l),
(215,325,l)
);
}
);
width = 1225;
}
);
metricLeft = H;
metricRight = O;
unicode = 66;
},
{
glyphname = C;
kernLeft = O;
kernRight = O;
lastChange = "2024-09-18 16:04:20 +0000";
layers = (
{
anchors = (
{
name = bottom;
pos = (587,0);
},
{
name = top;
pos = (569,700);
}
);
background = {
shapes = (
{
closed = 1;
nodes = (
(883,-20,o),
(1124,101,o),
(1124,351,cs),
(1124,599,o),
(883,720,o),
(587,720,cs),
(293,720,o),
(52,599,o),
(52,351,cs),
(52,101,o),
(293,-20,o),
(587,-20,cs)
);
},
{
closed = 1;
nodes = (
(347,77,o),
(165,180,o),
(165,351,cs),
(165,520,o),
(347,623,o),
(587,623,cs),
(829,623,o),
(1011,520,o),
(1011,351,cs),
(1011,180,o),
(829,77,o),
(587,77,cs)
);
}
);
};
layerId = "9AADC1C9-C373-4903-A2C4-BDDDC6C38F92";
shapes = (
{
closed = 1;
nodes = (
(838,-20,o),
(1049,67,o),
(1077,246,c),
(959,246,l),
(930,139,o),
(775,77,o),
(587,77,cs),
(347,77,o),
(165,180,o),
(165,351,cs),
(165,520,o),
(347,623,o),
(587,623,cs),
(773,623,o),
(929,562,o),
(959,459,c),
(1077,459,l),
(1047,634,o),
(836,720,o),
(587,720,cs),
(293,720,o),
(52,599,o),
(52,351,cs),
(52,101,o),
(293,-20,o),
(587,-20,cs)
);
}
);
width = 1138;
},
{
associatedMasterId = "9AADC1C9-C373-4903-A2C4-BDDDC6C38F92";
background = {
shapes = (
{
closed = 1;
nodes = (
(340,770,o),
(80,635,o),
(80,375,cs),
(80,115,o),
(340,-20,o),
(630,-20,cs),
(920,-20,o),
(1180,115,o),
(1180,375,cs),
(1180,635,o),
(920,770,o),
(630,770,cs)
);
},
{
closed = 1;
nodes = (
(410,85,o),
(200,190,o),
(200,375,cs),
(200,560,o),
(410,665,o),
(630,665,cs),
(850,665,o),
(1060,560,o),
(1060,375,cs),
(1060,190,o),
(850,85,o),
(630,85,cs)
);
}
);
};
guides = (
{
pos = (67,500);
},
{
pos = (67,247);
},
{
pos = (67,500);
}
);
layerId = "7DAFDADD-621C-4439-A6FB-B15EAA7A812C";
name = "Feb 1 21, 11:05";
shapes = (
{
closed = 1;
nodes = (
(410,85,o),
(200,190,o),
(200,375,cs),
(200,560,o),
(410,665,o),
(630,665,cs),
(793,665,o),
(950,608,o),
(1021,503,c),
(1151,503,l),
(1081,679,o),
(868,770,o),
(630,770,cs),
(340,770,o),
(80,635,o),
(80,375,cs),
(80,115,o),
(340,-20,o),
(630,-20,cs),
(868,-20,o),
(1081,71,o),
(1151,247,c),
(1021,247,l),
(950,142,o),
(793,85,o),
(630,85,cs)
);
}
);
width = 1236;
},
{
associatedMasterId = "9AADC1C9-C373-4903-A2C4-BDDDC6C38F92";
background = {
shapes = (
{
closed = 1;
nodes = (
(340,770,o),
(80,635,o),
(80,375,cs),
(80,115,o),
(340,-20,o),
(630,-20,cs),
(920,-20,o),
(1180,115,o),
(1180,375,cs),
(1180,635,o),
(920,770,o),
(630,770,cs)
);
},
{
closed = 1;
nodes = (
(410,85,o),
(200,190,o),
(200,375,cs),
(200,560,o),
(410,665,o),
(630,665,cs),
(850,665,o),
(1060,560,o),
(1060,375,cs),
(1060,190,o),
(850,85,o),
(630,85,cs)
);
}
);
};
guides = (
{
pos = (67,500);
},
{
pos = (67,247);
},
{
pos = (67,500);
}
);
layerId = "0575D8BD-BC75-4BAE-A2D2-0CA958D3170B";
name = "Feb 25 21, 12:55";
shapes = (
{
closed = 1;
nodes = (
(340,770,o),
(80,635,o),
(80,375,c),
(200,375,l),
(200,560,o),
(410,665,o),
(635,665,cs),
(795,665,o),
(946,615,o),
(1012,503,c),
(1122,503,l),
(1054,688,o),
(844,770,o),
(630,770,cs)
);
},
{
closed = 1;
nodes = (
(844,-20,o),
(1054,62,o),
(1122,247,c),
(1012,247,l),
(946,135,o),
(795,85,o),
(635,85,cs),
(410,85,o),
(200,190,o),
(200,375,c),
(80,375,l),
(80,115,o),
(340,-20,o),
(630,-20,cs)
);
}
);
width = 1207;
},
{
associatedMasterId = "9AADC1C9-C373-4903-A2C4-BDDDC6C38F92";
background = {
shapes = (
{
closed = 1;
nodes = (
(430,85,o),
(220,180,o),
(220,375,cs),
(220,570,o),
(430,665,o),
(655,665,cs),
(815,665,o),
(966,615,o),
(1032,503,c),
(1142,503,l),
(1074,688,o),
(854,770,o),
(640,770,cs),
(350,770,o),
(100,635,o),
(100,375,cs),
(100,115,o),
(350,-20,o),
(640,-20,cs),
(854,-20,o),
(1074,62,o),
(1142,247,c),
(1032,247,l),
(966,135,o),
(815,85,o),
(655,85,cs)
);
}
);
};
guides = (
{
pos = (87,500);
},
{
pos = (87,247);
},
{
pos = (87,500);
}
);
layerId = "3315801C-FDA5-4497-B1C2-7778B999E360";
name = "14 Jun 21, 10:19";
shapes = (
{
closed = 1;
nodes = (
(430,85,o),
(220,180,o),
(220,375,cs),
(220,570,o),
(430,665,o),
(655,665,cs),
(815,665,o),
(966,615,o),
(1032,503,c),
(1142,503,l),
(1074,688,o),
(854,770,o),
(640,770,cs),
(350,770,o),
(100,635,o),
(100,375,cs),
(100,115,o),
(350,-20,o),
(640,-20,cs),
(854,-20,o),
(1074,62,o),
(1142,247,c),
(1032,247,l),
(966,135,o),
(815,85,o),
(655,85,cs)
);
}
);
width = 1242;
},
{
anchors = (
{
name = bottom;
pos = (387,0);
},
{
name = top;
pos = (389,700);
}
);
background = {
shapes = (
{
closed = 1;
nodes = (
(579,-20,o),
(727,103,o),
(727,350,cs),
(727,596,o),
(579,720,o),
(390,720,cs),
(200,720,o),
(52,596,o),
(52,350,cs),
(52,103,o),
(200,-20,o),
(390,-20,cs)
);
},
{
closed = 1;
nodes = (
(255,77,o),
(165,158,o),
(165,350,cs),
(165,542,o),
(255,623,o),
(390,623,cs),
(524,623,o),
(614,542,o),
(614,350,cs),
(614,158,o),
(524,77,o),
(390,77,cs)
);
}
);
};
guides = (
{
pos = (668,459);
},
{
angle = 180;
pos = (670,246);
}
);
layerId = m002;
shapes = (
{
closed = 1;
nodes = (
(550,-20,o),
(681,68,o),
(697,246,c),
(596,246,l),
(579,128,o),
(497,77,o),
(390,77,cs),
(255,77,o),
(165,158,o),
(165,350,cs),
(165,542,o),
(255,623,o),
(390,623,cs),
(495,623,o),
(576,573,o),
(595,459,c),
(696,459,l),
(678,633,o),
(549,720,o),
(390,720,cs),
(200,720,o),
(52,596,o),
(52,350,cs),
(52,103,o),
(200,-20,o),
(390,-20,cs)
);
}
);
width = 757;
},
{
associatedMasterId = m002;
background = {
shapes = (
{
closed = 1;
nodes = (
(340,770,o),
(80,635,o),
(80,375,cs),
(80,115,o),
(340,-20,o),
(630,-20,cs),
(920,-20,o),
(1180,115,o),
(1180,375,cs),
(1180,635,o),
(920,770,o),
(630,770,cs)
);
},
{
closed = 1;
nodes = (
(410,85,o),
(200,190,o),
(200,375,cs),
(200,560,o),
(410,665,o),
(630,665,cs),
(850,665,o),
(1060,560,o),
(1060,375,cs),
(1060,190,o),
(850,85,o),
(630,85,cs)
);
}
);
};
guides = (
{
pos = (67,500);
},
{
pos = (67,247);
},
{
pos = (67,500);
}
);
layerId = "D17547C2-A145-44FC-BA0A-6E6197D4F521";
name = "Feb 1 21, 11:05";
shapes = (
{
closed = 1;
nodes = (
(410,85,o),
(200,190,o),
(200,375,cs),
(200,560,o),
(410,665,o),
(630,665,cs),
(793,665,o),
(950,608,o),
(1021,503,c),
(1151,503,l),
(1081,679,o),
(868,770,o),
(630,770,cs),
(340,770,o),
(80,635,o),
(80,375,cs),
(80,115,o),
(340,-20,o),
(630,-20,cs),
(868,-20,o),
(1081,71,o),
(1151,247,c),
(1021,247,l),
(950,142,o),
(793,85,o),
(630,85,cs)
);
}
);
width = 1236;
},
{
associatedMasterId = m002;
background = {
shapes = (
{
closed = 1;
nodes = (
(340,770,o),
(80,635,o),
(80,375,cs),
(80,115,o),
(340,-20,o),
(630,-20,cs),
(920,-20,o),
(1180,115,o),
(1180,375,cs),
(1180,635,o),
(920,770,o),
(630,770,cs)
);
},
{
closed = 1;
nodes = (
(410,85,o),
(200,190,o),
(200,375,cs),
(200,560,o),
(410,665,o),
(630,665,cs),
(850,665,o),
(1060,560,o),
(1060,375,cs),
(1060,190,o),
(850,85,o),
(630,85,cs)
);
}
);
};
guides = (
{
pos = (67,500);
},
{
pos = (67,247);
},
{
pos = (67,500);
}
);
layerId = "A8F5BD84-0CB8-426C-8037-8FF138B80CCE";
name = "Feb 25 21, 12:55";
shapes = (
{
closed = 1;
nodes = (
(340,770,o),
(80,635,o),
(80,375,c),
(200,375,l),
(200,560,o),
(410,665,o),
(635,665,cs),
(795,665,o),
(946,615,o),
(1012,503,c),
(1122,503,l),
(1054,688,o),
(844,770,o),
(630,770,cs)
);
},
{
closed = 1;
nodes = (
(844,-20,o),
(1054,62,o),
(1122,247,c),
(1012,247,l),
(946,135,o),
(795,85,o),
(635,85,cs),
(410,85,o),
(200,190,o),
(200,375,c),
(80,375,l),
(80,115,o),
(340,-20,o),
(630,-20,cs)
);
}
);
width = 1207;
},
{
associatedMasterId = m002;
background = {
shapes = (
{
closed = 1;
nodes = (
(430,85,o),
(220,180,o),
(220,375,cs),
(220,570,o),
(430,665,o),
(655,665,cs),
(815,665,o),
(966,615,o),
(1032,503,c),
(1142,503,l),
(1074,688,o),
(854,770,o),
(640,770,cs),
(350,770,o),
(100,635,o),
(100,375,cs),
(100,115,o),
(350,-20,o),
(640,-20,cs),
(854,-20,o),
(1074,62,o),
(1142,247,c),
(1032,247,l),
(966,135,o),
(815,85,o),
(655,85,cs)
);
}
);
};
guides = (
{
pos = (87,500);
},
{
pos = (87,247);
},
{
pos = (87,500);
}
);
layerId = "90A7204F-29E5-4EBB-A26F-137F9DF44E45";
name = "14 Jun 21, 10:19";
shapes = (
{
closed = 1;
nodes = (
(430,85,o),
(220,180,o),
(220,375,cs),
(220,570,o),
(430,665,o),
(655,665,cs),
(815,665,o),
(966,615,o),
(1032,503,c),
(1142,503,l),
(1074,688,o),
(854,770,o),
(640,770,cs),
(350,770,o),
(100,635,o),
(100,375,cs),
(100,115,o),
(350,-20,o),
(640,-20,cs),
(854,-20,o),
(1074,62,o),
(1142,247,c),
(1032,247,l),
(966,135,o),
(815,85,o),
(655,85,cs)
);
}
);
width = 1242;
}
);
metricLeft = O;
unicode = 67;
},
{
glyphname = D;
kernRight = O;
lastChange = "2024-09-18 16:46:46 +0000";
layers = (
{
anchors = (
{
name = bottom;
pos = (584,0);
},
{
name = center;
pos = (584,350);
},
{
name = top;
pos = (584,700);
}
);
background = {
shapes = (
{
closed = 1;
nodes = (
(283,720,o),
(42,599,o),
(42,351,cs),
(42,101,o),
(283,-20,o),
(577,-20,cs),
(873,-20,o),
(1114,101,o),
(1114,351,cs),
(1114,599,o),
(873,720,o),
(577,720,cs)
);
},
{
closed = 1;
nodes = (
(336,76,o),
(154,179,o),
(154,351,cs),
(154,521,o),
(336,624,o),
(577,624,cs),
(820,624,o),
(1002,521,o),
(1002,351,cs),
(1002,179,o),
(820,76,o),
(577,76,cs)
);
}
);
};
layerId = "9AADC1C9-C373-4903-A2C4-BDDDC6C38F92";
shapes = (
{
closed = 1;
nodes = (
(579,0,ls),
(885,0,o),
(1116,101,o),
(1116,351,cs),
(1116,599,o),
(885,700,o),
(579,700,cs),
(145,700,l),
(145,604,l),
(577,604,ls),
(840,604,o),
(1002,521,o),
(1002,351,cs),
(1002,179,o),
(840,96,o),
(577,96,cs),
(145,96,l),
(145,0,l)
);
},
{
closed = 1;
nodes = (
(192,0,l),
(192,700,l),
(80,700,l),
(80,0,l)
);
}
);
width = 1168;
},
{
anchors = (
{
name = bottom;
pos = (339,0);
},
{
name = center;
pos = (339,350);
},
{
name = top;
pos = (339,700);
}
);
background = {
shapes = (
{
closed = 1;
nodes = (
(189,93,l),
(315,93,l),
(364,93,o),
(408,104,o),
(441,126,c),
(474,142,o),
(501,175,o),
(518,213,c),
(539,252,o),
(545,295,o),
(545,350,c),
(545,350,l),
(545,405,o),
(539,454,o),
(518,492,c),
(501,530,o),
(474,558,o),
(441,580,c),
(408,596,o),
(364,607,o),
(315,607,c),
(189,607,l)
);
},
{
closed = 1;
nodes = (
(80,0,l),
(80,700,l),
(326,700,l),
(397,700,o),
(452,689,o),
(507,662,c),
(556,634,o),
(589,591,o),
(616,541,c),
(643,487,o),
(660,427,o),
(660,350,c),
(660,350,l),
(660,279,o),
(643,213,o),
(616,164,c),
(594,109,o),
(556,71,o),
(507,44,c),
(457,16,o),
(397,0,o),
(326,0,c)
);
}
);
};
layerId = m002;
shapes = (
{
closed = 1;
nodes = (
(315,0,ls),
(541,0,o),
(660,101,o),
(660,351,cs),
(660,599,o),
(541,700,o),
(315,700,cs),
(145,700,l),
(145,604,l),
(323,604,ls),
(468,604,o),
(547,521,o),
(547,351,cs),
(547,179,o),
(468,96,o),
(323,96,cs),
(145,96,l),
(145,0,l)
);
},
{
closed = 1;
nodes = (
(192,0,l),
(192,700,l),
(80,700,l),
(80,0,l)
);
}
);
width = 712;
}
);
metricLeft = H;
metricRight = O;
unicode = 68;
},
{
glyphname = Eth;
kernRight = O;
lastChange = "2024-09-25 01:29:21 +0000";
layers = (
{
layerId = "9AADC1C9-C373-4903-A2C4-BDDDC6C38F92";
shapes = (
{
closed = 1;
nodes = (
(973,326,l),
(973,419,l),
(10,419,l),
(10,326,l)
);
},
{
pos = (186,0);
ref = D;
}
);
width = 1354;
},
{
layerId = m002;
shapes = (
{
closed = 1;
nodes = (
(553,326,l),
(553,419,l),
(160,419,l),
(160,326,l)
);
},
{
pos = (186,0);
ref = D;
}
);
width = 898;
}
);
metricRight = D;
unicode = 208;
},
{
glyphname = E;
lastChange = "2024-10-23 18:03:02 +0000";
layers = (
{
anchors = (
{
name = bottom;
pos = (510,0);
},
{
name = ogonek;
pos = (940,0);
},
{
name = top;
pos = (510,700);
},
{
name = topleft;
pos = (20,700);
}
);
background = {
shapes = (
{
closed = 1;
nodes = (
(192,700,l),
(192,0,l),
(80,0,l),
(80,700,l)
);
},
{
closed = 1;
nodes = (
(95,604,l),
(95,700,l),
(940,700,l),
(940,604,l)
);
},
{
closed = 1;
nodes = (
(95,290,l),
(95,386,l),
(900,386,l),
(900,290,l)
);
},
{
closed = 1;
nodes = (
(95,0,l),
(95,96,l),
(940,96,l),
(940,0,l)
);
}
);
};
layerId = "9AADC1C9-C373-4903-A2C4-BDDDC6C38F92";
shapes = (
{
closed = 1;
nodes = (
(940,0,l),
(940,96,l),
(165,96,l),
(192,58,l),
(192,309,l),
(165,290,l),
(900,290,l),
(900,386,l),
(165,386,l),
(192,361,l),
(192,630,l),
(173,604,l),
(940,604,l),
(940,700,l),
(80,700,l),
(80,0,l)
);
}
);
width = 1010;
},
{
anchors = (
{
name = bottom;
pos = (301,0);
},
{
name = ogonek;
pos = (524,0);
},
{
name = top;
pos = (301,700);
},
{
name = topleft;
pos = (20,700);
}
);
background = {
shapes = (
{
closed = 1;
nodes = (
(80,700,l),
(80,0,l),
(523,0,l),
(523,93,l),
(189,93,l),
(189,312,l),
(507,312,l),
(507,405,l),
(189,405,l),
(189,607,l),
(523,607,l),
(523,700,l)
);
}
);
};
layerId = m002;
shapes = (
{
closed = 1;
nodes = (
(524,0,l),
(524,96,l),
(165,96,l),
(192,58,l),
(192,309,l),
(165,290,l),
(484,290,l),
(484,386,l),
(165,386,l),
(192,361,l),
(192,630,l),
(173,604,l),
(524,604,l),
(524,700,l),
(80,700,l),
(80,0,l)
);
}
);
width = 586;
}
);
metricLeft = H;
unicode = 69;
},
{
glyphname = F;
kernRight = F;
lastChange = "2024-09-18 01:39:58 +0000";
layers = (
{
anchors = (
{
name = bottom;
pos = (515,0);
},
{
name = top;
pos = (515,700);
}
);
background = {
shapes = (
{
closed = 1;
nodes = (
(1050,650,l),
(1050,750,l),
(215,750,l),
(215,650,l)
);
},
{
closed = 1;
nodes = (
(1015,325,l),
(1015,425,l),
(215,425,l),
(215,325,l)
);
},
{
closed = 1;
nodes = (
(100,0,l),
(215,0,l),
(215,750,l),
(100,750,l)
);
}
);
};
layerId = "9AADC1C9-C373-4903-A2C4-BDDDC6C38F92";
shapes = (
{
closed = 1;
nodes = (
(950,604,l),
(950,700,l),
(95,700,l),
(95,604,l)
);
},
{
closed = 1;
nodes = (
(192,0,l),
(192,700,l),
(80,700,l),
(80,0,l)
);
},
{
closed = 1;
nodes = (
(910,290,l),
(910,386,l),
(95,386,l),
(95,290,l)
);
}
);
width = 1010;
},
{
anchors = (
{
name = bottom;
pos = (312,0);
},
{
name = top;
pos = (312,700);
}
);
background = {
shapes = (
{
closed = 1;
nodes = (
(80,700,l),
(80,0,l),
(190,0,l),
(190,295,l),
(490,295,l),
(490,383,l),
(190,383,l),
(190,607,l),
(518,607,l),
(518,700,l)
);
}
);
};
layerId = m002;
shapes = (
{
closed = 1;
nodes = (
(518,604,l),
(518,700,l),
(95,700,l),
(95,604,l)
);
},
{
closed = 1;
nodes = (
(192,0,l),
(192,700,l),
(80,700,l),
(80,0,l)
);
},
{
closed = 1;
nodes = (
(490,290,l),
(490,386,l),
(95,386,l),
(95,290,l)
);
}
);
width = 578;
}
);
unicode = 70;
},
{
glyphname = G;
kernLeft = O;
kernRight = O;
lastChange = "2024-09-18 16:49:23 +0000";
layers = (
{
anchors = (
{
name = bottom;
pos = (569,0);
},
{
name = top;
pos = (569,700);
}
);
background = {
shapes = (
{
closed = 1;
nodes = (
(961,246,l),
(932,138,o),
(775,76,o),
(587,76,cs),
(346,76,o),
(164,179,o),
(164,351,cs),
(164,521,o),
(346,624,o),
(587,624,cs),
(773,624,o),
(929,563,o),
(959,459,c),
(1077,459,l),
(1047,634,o),
(836,720,o),
(587,720,cs),
(293,720,o),
(52,599,o),
(52,351,cs),
(52,101,o),
(293,-20,o),
(587,-20,cs),
(838,-20,o),
(1050,67,o),
(1078,246,c)
);
},
{
closed = 1;
nodes = (
(1078,289,l),
(1078,385,l),
(442,385,l),
(442,289,l)
);
}
);
};
layerId = "9AADC1C9-C373-4903-A2C4-BDDDC6C38F92";
shapes = (
{
closed = 1;
nodes = (
(838,-20,o),
(1078,67,o),
(1078,289,c),
(965,289,l),
(975,139,o),
(785,77,o),
(587,77,cs),
(347,77,o),
(165,180,o),
(165,351,cs),
(165,520,o),
(347,623,o),
(587,623,cs),
(773,623,o),
(929,562,o),
(959,459,c),
(1077,459,l),
(1047,634,o),
(836,720,o),
(587,720,cs),
(293,720,o),
(52,599,o),
(52,351,cs),
(52,101,o),
(293,-20,o),
(587,-20,cs)
);
},
{
closed = 1;
nodes = (
(1060,269,l),
(1078,289,l),
(1078,365,l),
(422,365,l),
(422,269,l)
);
}
);
width = 1130;
},
{
associatedMasterId = "9AADC1C9-C373-4903-A2C4-BDDDC6C38F92";
layerId = "2DC2A468-65AD-4AC4-9202-A8ABBD17C627";
name = "Feb 1 21, 10:59";
shapes = (
{
closed = 1;
nodes = (
(794,85,o),
(951,142,o),
(1022,247,c),
(1152,247,l),
(1082,71,o),
(869,-20,o),
(631,-20,cs),
(341,-20,o),
(81,115,o),
(81,375,cs),
(81,635,o),
(341,770,o),
(631,770,cs),
(869,770,o),
(1082,679,o),
(1152,503,c),
(1022,503,l),
(951,608,o),
(794,665,o),
(631,665,cs),
(411,665,o),
(201,560,o),
(201,375,cs),
(201,190,o),
(411,85,o),
(631,85,cs)
);
},
{
closed = 1;
nodes = (
(327,395,l),
(1152,395,l),
(1152,0,l),
(1121,0,l),
(1022,247,l),
(1022,295,l),
(327,295,l)
);
}
);
width = 1221;
},
{
associatedMasterId = "9AADC1C9-C373-4903-A2C4-BDDDC6C38F92";
guides = (
{
pos = (1011,295);
}
);
layerId = "A46F2E4C-1F29-41D2-86BB-6DE5752E0287";
name = "Feb 1 21, 11:09";
shapes = (
{
closed = 1;
nodes = (
(578,395,l),
(1153,395,l),
(1153,0,l),
(1113,0,l),
(1033,295,l),
(578,295,l)
);
},
{
closed = 1;
nodes = (
(412,85,o),
(200,190,o),
(200,375,cs),
(200,560,o),
(410,665,o),
(635,665,c),
(630,770,l),
(340,770,o),
(80,635,o),
(80,375,cs),
(80,115,o),
(340,-20,o),
(630,-20,c),
(635,85,l)
);
},
{
closed = 1;
nodes = (
(635,85,l),
(807,85,o),
(985,151,o),
(1033,295,c),
(1133,295,l),
(1092,79,o),
(860,-20,o),
(630,-20,c)
);
},
{
closed = 1;
nodes = (
(630,770,l),
(844,770,o),
(1054,688,o),
(1122,503,c),
(1012,503,l),
(946,615,o),
(795,665,o),
(635,665,c)
);
}
);
width = 1221;
},
{
anchors = (
{
name = bottom;
pos = (389,0);
},
{
name = top;
pos = (389,700);
}
);
background = {
shapes = (
{
closed = 1;
nodes = (
(550,-20,o),
(681,68,o),
(697,246,c),
(596,246,l),
(579,128,o),
(497,77,o),
(390,77,cs),
(255,77,o),
(165,158,o),
(165,350,cs),
(165,542,o),
(255,623,o),
(390,623,cs),
(495,623,o),
(576,573,o),
(595,459,c),
(696,459,l),
(678,633,o),
(549,720,o),
(390,720,cs),
(200,720,o),
(52,596,o),
(52,350,cs),
(52,103,o),
(200,-20,o),
(390,-20,cs)
);
}
);
};
layerId = m002;
shapes = (
{
closed = 1;
nodes = (
(562,-20,o),
(700,82,o),
(699,289,c),
(599,289,l),
(597,140,o),
(510,77,o),
(390,77,cs),
(255,77,o),
(165,158,o),
(165,350,cs),
(165,542,o),
(255,623,o),
(390,623,cs),
(495,623,o),
(576,573,o),
(595,459,c),
(696,459,l),
(678,633,o),
(549,720,o),
(390,720,cs),
(200,720,o),
(52,596,o),
(52,350,cs),
(52,103,o),
(200,-20,o),
(390,-20,cs)
);
},
{
closed = 1;
nodes = (
(681,269,l),
(699,289,l),
(699,365,l),
(333,365,l),
(333,269,l)
);
}
);
width = 751;
},
{
associatedMasterId = m002;
layerId = "8EEF86D2-BC58-445B-A70B-28CBCA1B816B";
name = "Feb 1 21, 10:59";
shapes = (
{
closed = 1;
nodes = (
(794,85,o),
(951,142,o),
(1022,247,c),
(1152,247,l),
(1082,71,o),
(869,-20,o),
(631,-20,cs),
(341,-20,o),
(81,115,o),
(81,375,cs),
(81,635,o),
(341,770,o),
(631,770,cs),
(869,770,o),
(1082,679,o),
(1152,503,c),
(1022,503,l),
(951,608,o),
(794,665,o),
(631,665,cs),
(411,665,o),
(201,560,o),
(201,375,cs),
(201,190,o),
(411,85,o),
(631,85,cs)
);
},
{
closed = 1;
nodes = (
(327,395,l),
(1152,395,l),
(1152,0,l),
(1121,0,l),
(1022,247,l),
(1022,295,l),
(327,295,l)
);
}
);
width = 1221;
},
{
associatedMasterId = m002;
guides = (
{
pos = (1011,295);
}
);
layerId = "CF535A11-02A7-4E22-B8D5-D94A73FA1643";
name = "Feb 1 21, 11:09";
shapes = (
{
closed = 1;
nodes = (
(578,395,l),
(1153,395,l),
(1153,0,l),
(1113,0,l),
(1033,295,l),
(578,295,l)
);
},
{
closed = 1;
nodes = (
(412,85,o),
(200,190,o),
(200,375,cs),
(200,560,o),
(410,665,o),
(635,665,c),
(630,770,l),
(340,770,o),
(80,635,o),
(80,375,cs),
(80,115,o),
(340,-20,o),
(630,-20,c),
(635,85,l)
);
},
{
closed = 1;
nodes = (
(635,85,l),
(807,85,o),
(985,151,o),
(1033,295,c),
(1133,295,l),
(1092,79,o),
(860,-20,o),
(630,-20,c)
);
},
{
closed = 1;
nodes = (
(630,770,l),
(844,770,o),
(1054,688,o),
(1122,503,c),
(1012,503,l),
(946,615,o),
(795,665,o),
(635,665,c)
);
}
);
width = 1221;
}
);
metricLeft = O;
metricRight = O;
unicode = 71;
},
{
glyphname = H;
lastChange = "2024-09-18 16:47:56 +0000";
layers = (
{
anchors = (
{
name = bottom;
pos = (545,0);
},
{
name = center;
pos = (545,350);
},
{
name = top;
pos = (545,700);
},
{
name = topleft;
pos = (90,700);
}
);
background = {
shapes = (
{
closed = 1;
nodes = (
(192,0,l),
(192,700,l),
(80,700,l),
(80,0,l)
);
},
{
closed = 1;
nodes = (
(1010,0,l),
(1010,700,l),
(898,700,l),
(898,0,l)
);
},
{
closed = 1;
nodes = (
(953,0,l),
(276,700,l),
(136,700,l),
(813,0,l)
);
}
);
};
layerId = "9AADC1C9-C373-4903-A2C4-BDDDC6C38F92";
shapes = (
{
closed = 1;
nodes = (
(1010,0,l),
(1010,700,l),
(898,700,l),
(898,0,l)
);
},
{
closed = 1;
nodes = (
(192,0,l),
(192,700,l),
(80,700,l),
(80,0,l)
);
},
{
closed = 1;
nodes = (
(948,289,l),
(948,385,l),
(142,385,l),
(142,289,l)
);
}
);
width = 1090;
},
{
anchors = (
{
name = bottom;
pos = (365,0);
},
{
name = center;
pos = (365,350);
},
{
name = top;
pos = (365,700);
},
{
name = topleft;
pos = (20,700);
}
);
background = {
shapes = (
{
closed = 1;
nodes = (
(545,700,l),
(545,406,l),
(188,406,l),
(188,700,l),
(80,700,l),
(80,0,l),
(188,0,l),
(188,311,l),
(545,311,l),
(545,0,l),
(653,0,l),
(653,700,l)
);
}
);
};
layerId = m002;
shapes = (
{
closed = 1;
nodes = (
(653,0,l),
(653,700,l),
(541,700,l),
(541,0,l)
);
},
{
closed = 1;
nodes = (
(192,0,l),
(192,700,l),
(80,700,l),
(80,0,l)
);
},
{
closed = 1;
nodes = (
(591,289,l),
(591,385,l),
(142,385,l),
(142,289,l)
);
}
);
width = 733;
}
);
unicode = 72;
},
{
glyphname = I;
kernLeft = I;
kernRight = I;
lastChange = "2024-09-18 16:50:48 +0000";
layers = (
{
anchors = (
{
name = bottom;
pos = (134,0);
},
{
name = ogonek;
pos = (192,10);
},
{
name = top;
pos = (134,700);
},
{
name = topleft;
pos = (77,700);
}
);
layerId = "9AADC1C9-C373-4903-A2C4-BDDDC6C38F92";
shapes = (
{
closed = 1;
nodes = (
(192,0,l),
(192,700,l),
(80,700,l),
(80,0,l)
);
}
);
width = 272;
},
{
anchors = (
{
name = bottom;
pos = (134,0);
},
{
name = ogonek;
pos = (184,0);
},
{
name = top;
pos = (134,700);
},
{
name = topleft;
pos = (77,700);
}
);
layerId = m002;
shapes = (
{
closed = 1;
nodes = (
(192,0,l),
(192,700,l),
(80,700,l),
(80,0,l)
);
}
);
width = 272;
}
);
metricLeft = H;
metricRight = H;
unicode = 73;
},
{
glyphname = J;
kernLeft = J;
lastChange = "2024-09-18 22:20:11 +0000";
layers = (
{
anchors = (
{
name = bottom;
pos = (278,1);
},
{
name = top;
pos = (540,700);
}
);
background = {
shapes = (
{
closed = 1;
nodes = (
(378,119,o),
(311,90,o),
(248,90,cs),
(194,90,o),
(144,111,o),
(139,144,c),
(30,144,l),
(38,51,o),
(141,0,o),
(247,0,cs),
(365,0,o),
(490,62,o),
(490,202,cs),
(490,700,l),
(378,700,l),
(378,191,ls)
);
}
);
};
layerId = "9AADC1C9-C373-4903-A2C4-BDDDC6C38F92";
shapes = (
{
closed = 1;
nodes = (
(440,-19,o),
(600,61,o),
(600,244,cs),
(600,700,l),
(488,700,l),
(488,239,ls),
(488,122,o),
(381,74,o),
(280,74,cs),
(193,74,o),
(110,110,o),
(109,169,c),
(0,169,l),
(4,50,o),
(143,-19,o),
(286,-19,cs)
);
}
);
width = 680;
},
{
associatedMasterId = "9AADC1C9-C373-4903-A2C4-BDDDC6C38F92";
background = {
shapes = (
{
closed = 1;
nodes = (
(80,750,l),
(-35,750,l),
(-35,0,l),
(80,0,l)
);
},
{
closed = 1;
nodes = (
(885,0,o),
(1065,135,o),
(1065,375,c),
(945,375,l),
(945,200,o),
(810,100,o),
(570,100,cs),
(80,100,l),
(80,0,l),
(575,0,ls)
);
},
{
closed = 1;
nodes = (
(80,750,l),
(80,650,l),
(570,650,ls),
(810,650,o),
(945,550,o),
(945,375,c),
(1065,375,l),
(1065,615,o),
(885,750,o),
(575,750,cs)
);
}
);
};
layerId = "58E25CD6-AF78-4E19-87AA-79651ED4D6DA";
name = "Feb 22 21, 12:49";
shapes = (
{
closed = 1;
nodes = (
(950,210,o),
(900,100,o),
(675,100,cs),
(85,100,l),
(85,0,l),
(665,0,ls),
(985,0,o),
(1065,145,o),
(1065,395,cs),
(1065,750,l),
(950,750,l),
(950,395,ls)
);
}
);
width = 1165;
},
{
associatedMasterId = "9AADC1C9-C373-4903-A2C4-BDDDC6C38F92";
background = {
shapes = (
{
closed = 1;
nodes = (
(80,750,l),
(-35,750,l),
(-35,0,l),
(80,0,l)
);
},
{
closed = 1;
nodes = (
(885,0,o),
(1065,135,o),
(1065,375,c),
(945,375,l),
(945,200,o),
(810,100,o),
(570,100,cs),
(80,100,l),
(80,0,l),
(575,0,ls)
);
},
{
closed = 1;
nodes = (
(80,750,l),
(80,650,l),
(570,650,ls),
(810,650,o),
(945,550,o),
(945,375,c),
(1065,375,l),
(1065,615,o),
(885,750,o),
(575,750,cs)
);
}
);
};
guides = (
{
pos = (754,85);
}
);
layerId = "EE009790-E7A3-4043-B24D-704016A1844D";
name = "Feb 28 21, 13:47";
shapes = (
{
closed = 1;
nodes = (
(949,145,o),
(859,85,o),
(734,85,cs),
(144,85,l),
(144,-20,l),
(754,-20,ls),
(954,-20,o),
(1064,100,o),
(1064,325,cs),
(1064,750,l),
(949,750,l),
(949,315,ls)
);
}
);
width = 1165;
},
{
associatedMasterId = "9AADC1C9-C373-4903-A2C4-BDDDC6C38F92";
background = {
shapes = (
{
closed = 1;
nodes = (
(-544,750,l),
(-659,750,l),
(-659,0,l),
(-544,0,l)
);
},
{
closed = 1;
nodes = (
(261,0,o),
(441,135,o),
(441,375,c),
(321,375,l),
(321,200,o),
(186,100,o),
(-54,100,cs),
(-544,100,l),
(-544,0,l),
(-49,0,ls)
);
},
{
closed = 1;
nodes = (
(-544,750,l),
(-544,650,l),
(-54,650,ls),
(186,650,o),
(321,550,o),
(321,375,c),
(441,375,l),
(441,615,o),
(261,750,o),
(-49,750,cs)
);
}
);
};
guides = (
{
pos = (130,85);
}
);
layerId = "05916F2E-0D92-44B7-B40B-A4E085CCB0C2";
name = "14 Jun 21, 11:10";
shapes = (
{
closed = 1;
nodes = (
(325,145,o),
(235,85,o),
(110,85,cs),
(100,85,l),
(100,-20,l),
(325,-20,o),
(440,100,o),
(440,325,cs),
(440,750,l),
(325,750,l),
(325,315,ls)
);
}
);
width = 540;
},
{
anchors = (
{
name = bottom;
pos = (215,0);
},
{
name = top;
pos = (373,700);
}
);
background = {
anchors = (
{
name = bottom;
pos = (256,0);
},
{
name = top;
pos = (370,657);
}
);
shapes = (
{
closed = 1;
nodes = (
(106,-19,o),
(207,-19,cs),
(316,-19,o),
(430,36,o),
(430,208,cs),
(430,700,l),
(318,700,l),
(318,215,ls),
(318,107,o),
(261,77,o),
(208,77,cs),
(162,77,o),
(119,107,o),
(119,173,c),
(12,173,l),
(8,46,o)
);
}
);
};
guides = (
{
pos = (81,85);
}
);
layerId = m002;
shapes = (
{
closed = 1;
nodes = (
(321,-19,o),
(430,47,o),
(430,208,cs),
(430,700,l),
(318,700,l),
(318,212,ls),
(318,117,o),
(263,78,o),
(211,78,cs),
(164,78,o),
(119,109,o),
(119,173,c),
(12,173,l),
(8,44,o),
(109,-19,o),
(215,-19,cs)
);
}
);
width = 510;
},
{
associatedMasterId = m002;
background = {
shapes = (
{
closed = 1;
nodes = (
(80,750,l),
(-35,750,l),
(-35,0,l),
(80,0,l)
);
},
{
closed = 1;
nodes = (
(885,0,o),
(1065,135,o),
(1065,375,c),
(945,375,l),
(945,200,o),
(810,100,o),
(570,100,cs),
(80,100,l),
(80,0,l),
(575,0,ls)
);
},
{
closed = 1;
nodes = (
(80,750,l),
(80,650,l),
(570,650,ls),
(810,650,o),
(945,550,o),
(945,375,c),
(1065,375,l),
(1065,615,o),
(885,750,o),
(575,750,cs)
);
}
);
};
layerId = "3BC989E2-A96B-4C0B-862F-F47C3ABCD18C";
name = "Feb 22 21, 12:49";
shapes = (
{
closed = 1;
nodes = (
(950,210,o),
(900,100,o),
(675,100,cs),
(85,100,l),
(85,0,l),
(665,0,ls),
(985,0,o),
(1065,145,o),
(1065,395,cs),
(1065,750,l),
(950,750,l),
(950,395,ls)
);
}
);
width = 1165;
},
{
associatedMasterId = m002;
background = {
shapes = (
{
closed = 1;
nodes = (
(80,750,l),
(-35,750,l),
(-35,0,l),
(80,0,l)
);
},
{
closed = 1;
nodes = (
(885,0,o),
(1065,135,o),
(1065,375,c),
(945,375,l),
(945,200,o),
(810,100,o),
(570,100,cs),
(80,100,l),
(80,0,l),
(575,0,ls)
);
},
{
closed = 1;
nodes = (
(80,750,l),
(80,650,l),
(570,650,ls),
(810,650,o),
(945,550,o),
(945,375,c),
(1065,375,l),
(1065,615,o),
(885,750,o),
(575,750,cs)
);
}
);
};
guides = (
{
pos = (754,85);
}
);
layerId = "2E22A674-F1F6-4897-9585-B7EE29D0FAF4";
name = "Feb 28 21, 13:47";
shapes = (
{
closed = 1;
nodes = (
(949,145,o),
(859,85,o),
(734,85,cs),
(144,85,l),
(144,-20,l),
(754,-20,ls),
(954,-20,o),
(1064,100,o),
(1064,325,cs),
(1064,750,l),
(949,750,l),
(949,315,ls)
);
}
);
width = 1165;
},
{
associatedMasterId = m002;
background = {
shapes = (
{
closed = 1;
nodes = (
(-544,750,l),
(-659,750,l),
(-659,0,l),
(-544,0,l)
);
},
{
closed = 1;
nodes = (
(261,0,o),
(441,135,o),
(441,375,c),
(321,375,l),
(321,200,o),
(186,100,o),
(-54,100,cs),
(-544,100,l),
(-544,0,l),
(-49,0,ls)
);
},
{
closed = 1;
nodes = (
(-544,750,l),
(-544,650,l),
(-54,650,ls),
(186,650,o),
(321,550,o),
(321,375,c),
(441,375,l),
(441,615,o),
(261,750,o),
(-49,750,cs)
);
}
);
};
guides = (
{
pos = (130,85);
}
);
layerId = "1B7CA6E5-197A-4E9E-9B51-5312CB7C7212";
name = "14 Jun 21, 11:10";
shapes = (
{
closed = 1;
nodes = (
(325,145,o),
(235,85,o),
(110,85,cs),
(100,85,l),
(100,-20,l),
(325,-20,o),
(440,100,o),
(440,325,cs),
(440,750,l),
(325,750,l),
(325,315,ls)
);
}
);
width = 540;
}
);
metricRight = H;
unicode = 74;
},
{
glyphname = K;
kernRight = K;
lastChange = "2024-09-18 16:57:23 +0000";
layers = (
{
associatedMasterId = "9AADC1C9-C373-4903-A2C4-BDDDC6C38F92";
guides = (
{
pos = (217,375);
}
);
layerId = "016FFEA1-A4DA-4E31-8DD9-DE666DE16C49";
name = "Feb 2 21, 16:53";
shapes = (
{
closed = 1;
nodes = (
(1102,0,l),
(1102,125,l),
(367,425,l),
(180,375,l)
);
},
{
closed = 1;
nodes = (
(385,375,l),
(1067,750,l),
(862,750,l),
(180,375,l)
);
},
{
closed = 1;
nodes = (
(217,750,l),
(102,750,l),
(102,0,l),
(217,0,l)
);
}
);
width = 1150;
},
{
associatedMasterId = "9AADC1C9-C373-4903-A2C4-BDDDC6C38F92";
layerId = "57DAFC2F-1693-487A-979D-196A5945C39D";
name = "Feb 28 21, 13:48";
shapes = (
{
closed = 1;
nodes = (
(891,0,l),
(1073,0,l),
(615,375,l),
(433,375,l)
);
},
{
closed = 1;
nodes = (
(615,375,l),
(1073,750,l),
(916,750,l),
(458,375,l)
);
},
{
closed = 1;
nodes = (
(100,750,l),
(100,0,l),
(215,0,l),
(215,325,l),
(615,325,l),
(615,425,l),
(215,425,l),
(215,750,l)
);
}
);
width = 1158;
},
{
associatedMasterId = "9AADC1C9-C373-4903-A2C4-BDDDC6C38F92";
layerId = "ECB89F8B-EAE9-41BB-A281-45177B0B2372";
name = "Feb 28 21, 13:50";
shapes = (
{
closed = 1;
nodes = (
(891,0,l),
(1073,0,l),
(615,375,l),
(445,365,l)
);
},
{
closed = 1;
nodes = (
(615,375,l),
(1073,750,l),
(916,750,l),
(445,365,l)
);
},
{
closed = 1;
nodes = (
(73,750,l),
(73,0,l),
(188,0,l),
(188,750,l)
);
}
);
width = 1158;
},
{
associatedMasterId = "9AADC1C9-C373-4903-A2C4-BDDDC6C38F92";
layerId = "D3337396-1EBE-4CC7-AE95-6B1545472E67";
name = "Feb 28 21, 13:52";
shapes = (
{
closed = 1;
nodes = (
(368,375,l),
(916,660,l),
(916,770,l),
(188,375,l)
);
},
{
closed = 1;
nodes = (
(188,750,l),
(188,0,l),
(303,0,l),
(303,750,l)
);
},
{
closed = 1;
nodes = (
(916,-20,l),
(916,90,l),
(368,375,l),
(188,375,l)
);
}
);
width = 1158;
},
{
associatedMasterId = "9AADC1C9-C373-4903-A2C4-BDDDC6C38F92";
layerId = "4F8024CA-F2FA-4D50-AB53-5868771BDDA2";
name = "Feb 28 21, 13:52";
shapes = (
{
closed = 1;
nodes = (
(368,375,l),
(916,660,l),
(916,770,l),
(188,375,l)
);
},
{
closed = 1;
nodes = (
(188,750,l),
(188,0,l),
(303,0,l),
(303,750,l)
);
},
{
closed = 1;
nodes = (
(916,-20,l),
(916,90,l),
(368,375,l),
(188,375,l)
);
}
);
width = 1158;
},
{
anchors = (
{
name = bottom;
pos = (555,0);
},
{
name = top;
pos = (555,700);
}
);
background = {
shapes = (
{
closed = 1;
nodes = (
(197,0,l),
(1067,700,l),
(917,700,l),
(80,35,l),
(80,0,l)
);
},
{
closed = 1;
nodes = (
(192,0,l),
(192,700,l),
(80,700,l),
(80,0,l)
);
},
{
closed = 1;
nodes = (
(1106,0,l),
(508,316,l),
(386,265,l),
(882,0,l)
);
}
);
};
guides = (
{
pos = (643,396);
}
);
layerId = "9AADC1C9-C373-4903-A2C4-BDDDC6C38F92";
shapes = (
{
closed = 1;
nodes = (
(288,0,l),
(1067,700,l),
(917,700,l),
(127,0,l)
);
},
{
closed = 1;
nodes = (
(192,0,l),
(192,700,l),
(80,700,l),
(80,0,l)
);
},
{
closed = 1;
nodes = (
(1082,0,l),
(504,316,l),
(437,238,l),
(882,0,l)
);
}
);
width = 1109;
},
{
associatedMasterId = "9AADC1C9-C373-4903-A2C4-BDDDC6C38F92";
guides = (
{
pos = (215,375);
},
{
angle = 140.9743;
pos = (1050,0);
},
{
angle = 140.9743;
pos = (867,0);
}
);
layerId = "028F2DC6-0A54-4051-96D8-E01BC1CB6A83";
name = "Feb 28 21, 16:12";
shapes = (
{
closed = 1;
nodes = (
(100,108,l),
(100,-20,l),
(496,301,l),
(867,0,l),
(1050,0,l),
(587,375,l),
(1050,750,l),
(892,750,l)
);
},
{
closed = 1;
nodes = (
(215,750,l),
(100,750,l),
(100,108,l),
(215,108,l)
);
}
);
width = 1135;
},
{
associatedMasterId = m002;
guides = (
{
pos = (217,375);
}
);
layerId = "AB60A379-4514-451A-BE24-DBC061BFEF4A";
name = "Feb 2 21, 16:53";
shapes = (
{
closed = 1;
nodes = (
(1102,0,l),
(1102,125,l),
(367,425,l),
(180,375,l)
);
},
{
closed = 1;
nodes = (
(385,375,l),
(1067,750,l),
(862,750,l),
(180,375,l)
);
},
{
closed = 1;
nodes = (
(217,750,l),
(102,750,l),
(102,0,l),
(217,0,l)
);
}
);
width = 1150;
},
{
associatedMasterId = m002;
layerId = "8F7BD5FD-4002-42BD-AE2C-657533CB5ACF";
name = "Feb 28 21, 13:48";
shapes = (
{
closed = 1;
nodes = (
(891,0,l),
(1073,0,l),
(615,375,l),
(433,375,l)
);
},
{
closed = 1;
nodes = (
(615,375,l),
(1073,750,l),
(916,750,l),
(458,375,l)
);
},
{
closed = 1;
nodes = (
(100,750,l),
(100,0,l),
(215,0,l),
(215,325,l),
(615,325,l),
(615,425,l),
(215,425,l),
(215,750,l)
);
}
);
width = 1158;
},
{
associatedMasterId = m002;
layerId = "F7F29AF8-427B-488D-A36D-8FFC0D3AF3F5";
name = "Feb 28 21, 13:50";
shapes = (
{
closed = 1;
nodes = (
(891,0,l),
(1073,0,l),
(615,375,l),
(445,365,l)
);
},
{
closed = 1;
nodes = (
(615,375,l),
(1073,750,l),
(916,750,l),
(445,365,l)
);
},
{
closed = 1;
nodes = (
(73,750,l),
(73,0,l),
(188,0,l),
(188,750,l)
);
}
);
width = 1158;
},
{
associatedMasterId = m002;
layerId = "4A64F536-0ABF-4CAB-A5A5-DF543B84822F";
name = "Feb 28 21, 13:52";
shapes = (
{
closed = 1;
nodes = (
(368,375,l),
(916,660,l),
(916,770,l),
(188,375,l)
);
},
{
closed = 1;
nodes = (
(188,750,l),
(188,0,l),
(303,0,l),
(303,750,l)
);
},
{
closed = 1;
nodes = (
(916,-20,l),
(916,90,l),
(368,375,l),
(188,375,l)
);
}
);
width = 1158;
},
{
associatedMasterId = m002;
layerId = "49568CBF-8CD6-41FB-8862-971D2189D6C8";
name = "Feb 28 21, 13:52";
shapes = (
{
closed = 1;
nodes = (
(368,375,l),
(916,660,l),
(916,770,l),
(188,375,l)
);
},
{
closed = 1;
nodes = (
(188,750,l),
(188,0,l),
(303,0,l),
(303,750,l)
);
},
{
closed = 1;
nodes = (
(916,-20,l),
(916,90,l),
(368,375,l),
(188,375,l)
);
}
);
width = 1158;
},
{
anchors = (
{
name = bottom;
pos = (335,0);
},
{
name = top;
pos = (335,700);
}
);
background = {
shapes = (
{
closed = 1;
nodes = (
(474,700,l),
(192,365,l),
(188,365,l),
(188,700,l),
(80,700,l),
(80,-1,l),
(188,-1,l),
(188,233,l),
(260,316,l),
(492,-1,l),
(627,-1,l),
(338,390,l),
(603,700,l)
);
}
);
};
guides = (
{
pos = (643,396);
}
);
layerId = m002;
shapes = (
{
closed = 1;
nodes = (
(281,0,l),
(607,700,l),
(487,700,l),
(162,0,l)
);
},
{
closed = 1;
nodes = (
(192,0,l),
(192,700,l),
(80,700,l),
(80,0,l)
);
},
{
closed = 1;
nodes = (
(628,0,l),
(368,344,l),
(308,253,l),
(485,0,l)
);
}
);
width = 634;
},
{
associatedMasterId = m002;
guides = (
{
pos = (215,375);
},
{
angle = 140.9743;
pos = (1050,0);
},
{
angle = 140.9743;
pos = (867,0);
}
);
layerId = "8AE16A66-A50B-41B1-AD94-866747FF60CF";
name = "Feb 28 21, 16:12";
shapes = (
{
closed = 1;
nodes = (
(100,108,l),
(100,-20,l),
(496,301,l),
(867,0,l),
(1050,0,l),
(587,375,l),
(1050,750,l),
(892,750,l)
);
},
{
closed = 1;
nodes = (
(215,750,l),
(100,750,l),
(100,108,l),
(215,108,l)
);
}
);
width = 1135;
}
);
metricLeft = H;
unicode = 75;
},
{
glyphname = L;
kernRight = L;
lastChange = "2024-09-18 17:46:27 +0000";
layers = (
{
associatedMasterId = "9AADC1C9-C373-4903-A2C4-BDDDC6C38F92";
layerId = "3B7CF615-DD8F-4F62-9EF5-54D42972EB9C";
name = "Feb 28 21, 13:47";
shapes = (
{
closed = 1;
nodes = (
(259,750,l),
(144,750,l),
(144,325,ls),
(144,100,o),
(254,-20,o),
(454,-20,cs),
(1064,-20,l),
(1064,85,l),
(474,85,ls),
(349,85,o),
(259,145,o),
(259,315,cs)
);
}
);
width = 1150;
},
{
anchors = (
{
name = bottom;
pos = (480,0);
},
{
name = center;
pos = (480,350);
},
{
name = top;
pos = (131,700);
},
{
name = topright;
pos = (277,700);
}
);
layerId = "9AADC1C9-C373-4903-A2C4-BDDDC6C38F92";
shapes = (
{
closed = 1;
nodes = (
(917,0,l),
(917,96,l),
(192,96,l),
(192,700,l),
(80,700,l),
(80,0,l)
);
}
);
width = 927;
},
{
associatedMasterId = m002;
layerId = "734DB4AA-6279-482A-862D-568674BB3E13";
name = "Feb 28 21, 13:47";
shapes = (
{
closed = 1;
nodes = (
(259,750,l),
(144,750,l),
(144,325,ls),
(144,100,o),
(254,-20,o),
(454,-20,cs),
(1064,-20,l),
(1064,85,l),
(474,85,ls),
(349,85,o),
(259,145,o),
(259,315,cs)
);
}
);
width = 1150;
},
{
anchors = (
{
name = bottom;
pos = (300,0);
},
{
name = center;
pos = (300,350);
},
{
name = top;
pos = (135,700);
},
{
name = topright;
pos = (224,700);
}
);
background = {
shapes = (
{
closed = 1;
nodes = (
(80,700,l),
(80,-1,l),
(516,-1,l),
(516,93,l),
(189,93,l),
(189,700,l)
);
}
);
};
layerId = m002;
shapes = (
{
closed = 1;
nodes = (
(517,0,l),
(517,96,l),
(192,96,l),
(192,700,l),
(80,700,l),
(80,0,l)
);
}
);
width = 527;
}
);
metricLeft = H;
unicode = 76;
},
{
glyphname = Lslash;
kernRight = L;
lastChange = "2024-09-25 01:30:36 +0000";
layers = (
{
layerId = "9AADC1C9-C373-4903-A2C4-BDDDC6C38F92";
shapes = (
{
closed = 1;
nodes = (
(485,384,l),
(485,473,l),
(-28,382,l),
(-28,293,l)
);
},
{
ref = L;
}
);
width = 927;
},
{
layerId = m002;
shapes = (
{
closed = 1;
nodes = (
(285,384,l),
(285,473,l),
(-28,382,l),
(-28,293,l)
);
},
{
ref = L;
}
);
width = 527;
}
);
metricRight = L;
unicode = 321;
},
{
glyphname = M;
lastChange = "2024-09-18 15:20:14 +0000";
layers = (
{
anchors = (
{
name = bottom;
pos = (623,0);
},
{
name = top;
pos = (623,700);
}
);
background = {
shapes = (
{
closed = 1;
nodes = (
(180,0,l),
(180,750,l),
(80,750,l),
(80,0,l)
);
},
{
closed = 1;
nodes = (
(1035,750,l),
(1035,0,l),
(1150,0,l),
(1150,750,l)
);
},
{
closed = 1;
nodes = (
(224,750,l),
(90,750,l),
(540,0,l),
(674,0,l)
);
},
{
closed = 1;
nodes = (
(1008,750,l),
(558,0,l),
(674,0,l),
(1124,750,l)
);
}
);
};
layerId = "9AADC1C9-C373-4903-A2C4-BDDDC6C38F92";
shapes = (
{
closed = 1;
nodes = (
(708,0,l),
(1086,700,l),
(961,700,l),
(593,0,l)
);
},
{
closed = 1;
nodes = (
(192,0,l),
(192,700,l),
(80,700,l),
(80,0,l)
);
},
{
closed = 1;
nodes = (
(653,0,l),
(285,700,l),
(160,700,l),
(538,0,l)
);
},
{
closed = 1;
nodes = (
(1166,0,l),
(1166,700,l),
(1054,700,l),
(1054,0,l)
);
}
);
width = 1246;
},
{
associatedMasterId = "9AADC1C9-C373-4903-A2C4-BDDDC6C38F92";
layerId = "60238A38-D940-4B0F-97F8-4CC139984EC9";
name = "Feb 2 21, 15:12";
shapes = (
{
closed = 1;
nodes = (
(1070,750,l),
(649,358,l),
(240,750,l),
(100,750,l),
(100,0,l),
(205,0,l),
(205,622,l),
(635,210,l),
(1080,624,l),
(1080,0,l),
(1195,0,l),
(1195,750,l)
);
}
);
width = 1295;
},
{
associatedMasterId = "9AADC1C9-C373-4903-A2C4-BDDDC6C38F92";
layerId = "5E3F6117-758D-4F57-A373-4BD80A93FECA";
name = "Feb 2 21, 15:17";
shapes = (
{
closed = 1;
nodes = (
(200,0,l),
(200,592,l),
(100,592,l),
(100,0,l)
);
},
{
closed = 1;
nodes = (
(1025,612,l),
(1025,0,l),
(1140,0,l),
(1140,612,l)
);
},
{
closed = 1;
nodes = (
(620,-20,l),
(637,138,l),
(100,770,l),
(100,592,l)
);
},
{
closed = 1;
nodes = (
(1140,770,l),
(620,138,l),
(620,-20,l),
(1140,612,l)
);
}
);
width = 1240;
},
{
anchors = (
{
name = bottom;
pos = (623,0);
},
{
name = top;
pos = (623,700);
}
);
background = {
shapes = (
{
closed = 1;
nodes = (
(662,701,l),
(435,142,l),
(433,142,l),
(206,701,l),
(80,701,l),
(80,0,l),
(179,0,l),
(179,517,l),
(183,517,l),
(394,0,l),
(474,0,l),
(686,517,l),
(689,517,l),
(689,0,l),
(789,0,l),
(789,701,l)
);
},
{
closed = 1;
nodes = (
);
}
);
};
guides = (
{
pos = (106,700);
},
{
pos = (106,0);
}
);
layerId = m002;
shapes = (
{
closed = 1;
nodes = (
(526,0,l),
(695,700,l),
(583,700,l),
(419,0,l)
);
},
{
closed = 1;
nodes = (
(192,0,l),
(192,700,l),
(80,700,l),
(80,0,l)
);
},
{
closed = 1;
nodes = (
(449,0,l),
(287,700,l),
(175,700,l),
(344,0,l)
);
},
{
closed = 1;
nodes = (
(790,0,l),
(790,700,l),
(678,700,l),
(678,0,l)
);
}
);
width = 870;
},
{
associatedMasterId = m002;
layerId = "FDEDCFF0-8FFD-4DFF-BE2B-A64B6A2F510D";
name = "Feb 2 21, 15:12";
shapes = (
{
closed = 1;
nodes = (
(1070,750,l),
(649,358,l),
(240,750,l),
(100,750,l),
(100,0,l),
(205,0,l),
(205,622,l),
(635,210,l),
(1080,624,l),
(1080,0,l),
(1195,0,l),
(1195,750,l)
);
}
);
width = 1295;
},
{
associatedMasterId = m002;
layerId = "E47AEC5A-CBBE-4681-980C-5487BA15FF63";
name = "Feb 2 21, 15:17";
shapes = (
{
closed = 1;
nodes = (
(200,0,l),
(200,592,l),
(100,592,l),
(100,0,l)
);
},
{
closed = 1;
nodes = (
(1025,612,l),
(1025,0,l),
(1140,0,l),
(1140,612,l)
);
},
{
closed = 1;
nodes = (
(620,-20,l),
(637,138,l),
(100,770,l),
(100,592,l)
);
},
{
closed = 1;
nodes = (
(1140,770,l),
(620,138,l),
(620,-20,l),
(1140,612,l)
);
}
);
width = 1240;
}
);
metricLeft = H;
metricRight = H;
unicode = 77;
},
{
glyphname = N;
lastChange = "2024-09-25 01:31:08 +0000";
layers = (
{
anchors = (
{
name = bottom;
pos = (545,0);
},
{
name = top;
pos = (545,700);
}
);
background = {
shapes = (
{
closed = 1;
nodes = (
(1010,107,l),
(80,720,l),
(80,593,l),
(1010,-20,l)
);
},
{
closed = 1;
nodes = (
(192,0,l),
(192,633,l),
(80,633,l),
(80,0,l)
);
},
{
closed = 1;
nodes = (
(1010,67,l),
(1010,700,l),
(898,700,l),
(898,67,l)
);
}
);
};
layerId = "9AADC1C9-C373-4903-A2C4-BDDDC6C38F92";
shapes = (
{
closed = 1;
nodes = (
(192,0,l),
(192,700,l),
(80,700,l),
(80,0,l)
);
},
{
closed = 1;
nodes = (
(1010,0,l),
(1010,700,l),
(898,700,l),
(898,0,l)
);
},
{
closed = 1;
nodes = (
(953,0,l),
(276,700,l),
(136,700,l),
(813,0,l)
);
}
);
width = 1090;
},
{
associatedMasterId = "9AADC1C9-C373-4903-A2C4-BDDDC6C38F92";
layerId = "67B5F3AD-690C-4C03-94CD-3D5687EF9D91";
name = "Feb 2 21, 11:52";
shapes = (
{
closed = 1;
nodes = (
(70,0,l),
(188,0,l),
(188,664,l),
(168,750,l),
(73,750,l)
);
},
{
closed = 1;
nodes = (
(984,98,l),
(1004,0,l),
(1099,0,l),
(1099,750,l),
(984,750,l)
);
},
{
closed = 1;
nodes = (
(1004,0,l),
(984,148,l),
(168,750,l),
(188,605,l)
);
}
);
width = 1290;
},
{
associatedMasterId = "9AADC1C9-C373-4903-A2C4-BDDDC6C38F92";
layerId = "BDDA3C0A-1D0E-4507-A488-C72600506862";
name = "Feb 2 21, 13:41";
shapes = (
{
closed = 1;
nodes = (
(200,0,l),
(200,750,l),
(100,750,l),
(100,0,l)
);
},
{
closed = 1;
nodes = (
(1000,750,l),
(1000,0,l),
(1100,0,l),
(1100,750,l)
);
},
{
closed = 1;
nodes = (
(240,750,l),
(100,750,l),
(100,720,l),
(960,0,l),
(1100,0,l),
(1100,30,l)
);
}
);
width = 1200;
},
{
associatedMasterId = "9AADC1C9-C373-4903-A2C4-BDDDC6C38F92";
layerId = "26219D29-7D69-4FD4-801E-312F65551A01";
name = "Feb 28 21, 13:53";
shapes = (
{
closed = 1;
nodes = (
(73,0,l),
(178,0,l),
(178,750,l),
(73,750,l)
);
},
{
closed = 1;
nodes = (
(968,125,l),
(1073,125,l),
(1073,750,l),
(968,750,l)
);
},
{
closed = 1;
nodes = (
(1073,-20,l),
(1073,125,l),
(256,750,l),
(178,750,l),
(178,665,l)
);
}
);
width = 1290;
},
{
anchors = (
{
name = bottom;
pos = (368,0);
},
{
name = top;
pos = (368,700);
}
);
background = {
shapes = (
{
closed = 1;
nodes = (
(544,701,l),
(544,184,l),
(541,184,l),
(180,701,l),
(80,701,l),
(80,0,l),
(188,0,l),
(188,519,l),
(191,519,l),
(551,0,l),
(652,0,l),
(652,701,l)
);
}
);
};
guides = (
{
angle = 90;
pos = (368,146);
}
);
layerId = m002;
shapes = (
{
closed = 1;
nodes = (
(192,0,l),
(192,700,l),
(80,700,l),
(80,0,l)
);
},
{
closed = 1;
nodes = (
(652,0,l),
(652,700,l),
(540,700,l),
(540,0,l)
);
},
{
closed = 1;
nodes = (
(567,0,l),
(281,700,l),
(165,700,l),
(451,0,l)
);
}
);
width = 732;
},
{
associatedMasterId = m002;
layerId = "D26571B1-02FB-4AD6-819B-FEF7746B3670";
name = "Feb 2 21, 11:52";
shapes = (
{
closed = 1;
nodes = (
(70,0,l),
(188,0,l),
(188,664,l),
(168,750,l),
(73,750,l)
);
},
{
closed = 1;
nodes = (
(984,98,l),
(1004,0,l),
(1099,0,l),
(1099,750,l),
(984,750,l)
);
},
{
closed = 1;
nodes = (
(1004,0,l),
(984,148,l),
(168,750,l),
(188,605,l)
);
}
);
width = 1290;
},
{
associatedMasterId = m002;
layerId = "1702E9BF-FAF2-4BAF-8E5C-3DFA5A891791";
name = "Feb 2 21, 13:41";
shapes = (
{
closed = 1;
nodes = (
(200,0,l),
(200,750,l),
(100,750,l),
(100,0,l)
);
},
{
closed = 1;
nodes = (
(1000,750,l),
(1000,0,l),
(1100,0,l),
(1100,750,l)
);
},
{
closed = 1;
nodes = (
(240,750,l),
(100,750,l),
(100,720,l),
(960,0,l),
(1100,0,l),
(1100,30,l)
);
}
);
width = 1200;
},
{
associatedMasterId = m002;
layerId = "E92C0D29-A0E6-403A-8445-A4479B514D84";
name = "Feb 28 21, 13:53";
shapes = (
{
closed = 1;
nodes = (
(73,0,l),
(178,0,l),
(178,750,l),
(73,750,l)
);
},
{
closed = 1;
nodes = (
(968,125,l),
(1073,125,l),
(1073,750,l),
(968,750,l)
);
},
{
closed = 1;
nodes = (
(1073,-20,l),
(1073,125,l),
(256,750,l),
(178,750,l),
(178,665,l)
);
}
);
width = 1290;
}
);
metricLeft = H;
metricRight = H;
unicode = 78;
},
{
glyphname = O;
kernLeft = O;
kernRight = O;
lastChange = "2024-09-18 16:03:41 +0000";
layers = (
{
anchors = (
{
name = bottom;
pos = (588,0);
},
{
name = center;
pos = (588,350);
},
{
name = ogonek;
pos = (1058,10);
},
{
name = top;
pos = (588,657);
},
{
name = topleft;
pos = (20,700);
},
{
name = topright;
pos = (1156,700);
}
);
background = {
shapes = (
{
closed = 1;
nodes = (
(377,76,o),
(167,171,o),
(167,351,cs),
(167,530,o),
(377,625,o),
(588,625,cs),
(799,625,o),
(1009,525,o),
(1009,351,cs),
(1009,171,o),
(799,76,o),
(588,76,cs)
);
},
{
closed = 1;
nodes = (
(53,116,o),
(303,-19,o),
(588,-19,cs),
(873,-19,o),
(1123,116,o),
(1123,351,cs),
(1123,585,o),
(873,720,o),
(588,720,cs),
(303,720,o),
(53,585,o),
(53,351,cs)
);
},
{
closed = 1;
nodes = (
(619,245,l),
(1248,245,l),
(1248,458,l),
(619,458,l)
);
}
);
};
layerId = "9AADC1C9-C373-4903-A2C4-BDDDC6C38F92";
shapes = (
{
closed = 1;
nodes = (
(883,-20,o),
(1124,101,o),
(1124,351,cs),
(1124,599,o),
(883,720,o),
(587,720,cs),
(293,720,o),
(52,599,o),
(52,351,cs),
(52,101,o),
(293,-20,o),
(587,-20,cs)
);
},
{
closed = 1;
nodes = (
(347,77,o),
(165,180,o),
(165,351,cs),
(165,520,o),
(347,623,o),
(587,623,cs),
(829,623,o),
(1011,520,o),
(1011,351,cs),
(1011,180,o),
(829,77,o),
(587,77,cs)
);
}
);
width = 1176;
},
{
associatedMasterId = "9AADC1C9-C373-4903-A2C4-BDDDC6C38F92";
layerId = "614293A5-7B46-49FB-9E93-C88D05B754A0";
name = "Feb 25 21, 12:55";
shapes = (
{
closed = 1;
nodes = (
(360,770,o),
(100,635,o),
(100,375,cs),
(100,115,o),
(360,-20,o),
(650,-20,cs),
(940,-20,o),
(1200,115,o),
(1200,375,cs),
(1200,635,o),
(940,770,o),
(650,770,cs)
);
},
{
closed = 1;
nodes = (
(430,85,o),
(220,190,o),
(220,375,cs),
(220,560,o),
(430,665,o),
(650,665,cs),
(870,665,o),
(1080,560,o),
(1080,375,cs),
(1080,190,o),
(870,85,o),
(650,85,cs)
);
}
);
width = 1300;
},
{
anchors = (
{
name = bottom;
pos = (389,0);
},
{
name = center;
pos = (389,350);
},
{
name = ogonek;
pos = (517,10);
},
{
name = top;
pos = (389,700);
},
{
name = topleft;
pos = (118,700);
},
{
name = topright;
pos = (615,700);
}
);
background = {
shapes = (
{
closed = 1;
nodes = (
(438,77,o),
(475,91,o),
(512,110,c),
(544,133,o),
(568,165,o),
(587,207,c),
(604,249,o),
(614,294,o),
(614,350,c),
(614,350,l),
(614,406,o),
(604,452,o),
(587,493,c),
(568,535,o),
(544,567,o),
(508,586,c),
(475,609,o),
(438,619,o),
(392,619,c),
(345,619,o),
(308,609,o),
(277,586,c),
(239,567,o),
(216,535,o),
(198,493,c),
(179,452,o),
(170,406,o),
(170,350,c),
(170,350,l),
(170,294,o),
(179,243,o),
(198,207,c),
(216,165,o),
(239,133,o),
(271,110,c),
(308,91,o),
(345,77,o),
(392,77,c)
);
},
{
closed = 1;
nodes = (
(322,-20,o),
(262,-6,o),
(211,26,c),
(161,54,o),
(124,96,o),
(96,151,c),
(68,207,o),
(54,271,o),
(54,350,c),
(54,350,l),
(54,424,o),
(68,493,o),
(96,544,c),
(124,600,o),
(161,646,o),
(211,673,c),
(262,706,o),
(322,720,o),
(392,720,c),
(461,720,o),
(521,706,o),
(568,673,c),
(618,646,o),
(660,600,o),
(688,544,c),
(711,489,o),
(725,424,o),
(725,350,c),
(725,350,l),
(725,271,o),
(711,207,o),
(688,151,c),
(660,96,o),
(618,54,o),
(572,26,c),
(521,-6,o),
(461,-20,o),
(392,-20,c)
);
}
);
};
layerId = m002;
shapes = (
{
closed = 1;
nodes = (
(579,-20,o),
(727,103,o),
(727,350,cs),
(727,596,o),
(579,720,o),
(390,720,cs),
(200,720,o),
(52,596,o),
(52,350,cs),
(52,103,o),
(200,-20,o),
(390,-20,cs)
);
},
{
closed = 1;
nodes = (
(255,77,o),
(165,158,o),
(165,350,cs),
(165,542,o),
(255,623,o),
(390,623,cs),
(524,623,o),
(614,542,o),
(614,350,cs),
(614,158,o),
(524,77,o),
(390,77,cs)
);
}
);
width = 779;
},
{
associatedMasterId = m002;
layerId = "9751F78B-1897-43A0-9C54-1BAD6D0D6FD3";
name = "Feb 25 21, 12:55";
shapes = (
{
closed = 1;
nodes = (
(360,770,o),
(100,635,o),
(100,375,cs),
(100,115,o),
(360,-20,o),
(650,-20,cs),
(940,-20,o),
(1200,115,o),
(1200,375,cs),
(1200,635,o),
(940,770,o),
(650,770,cs)
);
},
{
closed = 1;
nodes = (
(430,85,o),
(220,190,o),
(220,375,cs),
(220,560,o),
(430,665,o),
(650,665,cs),
(870,665,o),
(1080,560,o),
(1080,375,cs),
(1080,190,o),
(870,85,o),
(650,85,cs)
);
}
);
width = 1300;
}
);
unicode = 79;
},
{
glyphname = Oslash;
kernLeft = O;
kernRight = O;
lastChange = "2024-09-25 01:32:04 +0000";
layers = (
{
layerId = "9AADC1C9-C373-4903-A2C4-BDDDC6C38F92";
shapes = (
{
closed = 1;
nodes = (
(224,-100,l),
(1064,800,l),
(934,800,l),
(94,-100,l)
);
},
{
ref = O;
}
);
width = 1176;
},
{
layerId = m002;
shapes = (
{
closed = 1;
nodes = (
(210,-100,l),
(680,800,l),
(580,800,l),
(110,-100,l)
);
},
{
ref = O;
}
);
width = 1176;
}
);
unicode = 216;
},
{
glyphname = OE;
kernLeft = O;
lastChange = "2024-09-25 01:34:57 +0000";
layers = (
{
layerId = "9AADC1C9-C373-4903-A2C4-BDDDC6C38F92";
shapes = (
{
closed = 1;
nodes = (
(777,0,l),
(777,96,l),
(591,96,ls),
(328,96,o),
(166,179,o),
(166,351,cs),
(166,521,o),
(328,604,o),
(591,604,cs),
(777,604,l),
(777,700,l),
(589,700,ls),
(283,700,o),
(52,599,o),
(52,351,cs),
(52,101,o),
(283,0,o),
(589,0,cs)
);
},
{
pos = (690,0);
ref = E;
}
);
width = 1700;
},
{
layerId = m002;
shapes = (
{
closed = 1;
nodes = (
(567,0,l),
(567,96,l),
(389,96,ls),
(244,96,o),
(165,179,o),
(165,351,cs),
(165,521,o),
(244,604,o),
(389,604,cs),
(567,604,l),
(567,700,l),
(397,700,ls),
(171,700,o),
(52,599,o),
(52,351,cs),
(52,101,o),
(171,0,o),
(397,0,cs)
);
},
{
pos = (392,0);
ref = E;
}
);
width = 986;
}
);
metricLeft = O;
metricRight = E;
unicode = 338;
},
{
glyphname = P;
kernRight = P;
lastChange = "2024-09-25 01:36:06 +0000";
layers = (
{
anchors = (
{
name = bottom;
pos = (488,0);
},
{
name = top;
pos = (488,700);
}
);
background = {
shapes = (
{
closed = 1;
nodes = (
(647,212,ls),
(1043,212,o),
(1043,720,o),
(647,720,cs),
(145,720,l),
(145,624,l),
(655,624,ls),
(887,624,o),
(887,308,o),
(655,308,cs),
(145,308,l),
(145,212,l)
);
},
{
closed = 1;
nodes = (
(192,0,l),
(192,720,l),
(80,720,l),
(80,0,l)
);
}
);
};
layerId = "9AADC1C9-C373-4903-A2C4-BDDDC6C38F92";
shapes = (
{
closed = 1;
nodes = (
(627,192,ls),
(845,192,o),
(944,319,o),
(944,446,cs),
(944,573,o),
(845,700,o),
(627,700,cs),
(145,700,l),
(145,604,l),
(635,604,ls),
(771,604,o),
(829,525,o),
(829,446,cs),
(829,367,o),
(771,288,o),
(635,288,cs),
(145,288,l),
(145,192,l)
);
},
{
closed = 1;
nodes = (
(192,0,l),
(192,700,l),
(80,700,l),
(80,0,l)
);
}
);
width = 996;
},
{
anchors = (
{
name = bottom;
pos = (277,0);
},
{
name = top;
pos = (277,700);
}
);
background = {
shapes = (
{
closed = 1;
nodes = (
(297,212,ls),
(485,212,o),
(584,339,o),
(584,466,cs),
(584,593,o),
(485,720,o),
(297,720,cs),
(115,720,l),
(115,624,l),
(305,624,ls),
(411,624,o),
(469,545,o),
(469,466,cs),
(469,387,o),
(411,308,o),
(305,308,cs),
(115,308,l),
(115,212,l)
);
},
{
closed = 1;
nodes = (
(192,0,l),
(192,720,l),
(80,720,l),
(80,0,l)
);
}
);
};
layerId = m002;
shapes = (
{
closed = 1;
nodes = (
(313,192,ls),
(494,192,o),
(585,319,o),
(585,446,cs),
(585,573,o),
(494,700,o),
(313,700,cs),
(115,700,l),
(115,604,l),
(321,604,ls),
(420,604,o),
(469,525,o),
(469,446,cs),
(469,367,o),
(420,288,o),
(321,288,cs),
(115,288,l),
(115,192,l)
);
},
{
closed = 1;
nodes = (
(192,0,l),
(192,700,l),
(80,700,l),
(80,0,l)
);
}
);
width = 637;
}
);
metricLeft = H;
unicode = 80;
},
{
glyphname = Thorn;
kernRight = P;
lastChange = "2024-09-25 01:36:46 +0000";
layers = (
{
layerId = "9AADC1C9-C373-4903-A2C4-BDDDC6C38F92";
shapes = (
{
closed = 1;
nodes = (
(617,102,ls),
(845,102,o),
(944,229,o),
(944,356,cs),
(944,483,o),
(845,610,o),
(617,610,cs),
(145,610,l),
(145,514,l),
(625,514,ls),
(771,514,o),
(829,435,o),
(829,356,cs),
(829,277,o),
(771,198,o),
(625,198,cs),
(145,198,l),
(145,102,l)
);
},
{
closed = 1;
nodes = (
(192,0,l),
(192,700,l),
(80,700,l),
(80,0,l)
);
}
);
width = 996;
},
{
background = {
shapes = (
{
closed = 1;
nodes = (
(647,122,ls),
(845,122,o),
(944,249,o),
(944,376,cs),
(944,503,o),
(845,630,o),
(647,630,cs),
(145,630,l),
(145,534,l),
(655,534,ls),
(771,534,o),
(829,455,o),
(829,376,cs),
(829,297,o),
(771,218,o),
(655,218,cs),
(145,218,l),
(145,122,l)
);
},
{
closed = 1;
nodes = (
(192,0,l),
(192,720,l),
(80,720,l),
(80,0,l)
);
}
);
};
layerId = m002;
shapes = (
{
closed = 1;
nodes = (
(313,102,ls),
(494,102,o),
(585,229,o),
(585,356,cs),
(585,483,o),
(494,610,o),
(313,610,cs),
(115,610,l),
(115,514,l),
(321,514,ls),
(420,514,o),
(469,435,o),
(469,356,cs),
(469,277,o),
(420,198,o),
(321,198,cs),
(115,198,l),
(115,102,l)
);
},
{
closed = 1;
nodes = (
(192,0,l),
(192,700,l),
(80,700,l),
(80,0,l)
);
}
);
width = 996;
}
);
unicode = 222;
},
{
glyphname = Q;
kernLeft = O;
kernRight = O;
lastChange = "2024-09-25 01:37:20 +0000";
layers = (
{
anchors = (
{
name = bottom;
pos = (578,0);
},
{
name = top;
pos = (578,700);
}
);
guides = (
{
angle = 90;
pos = (578,-79);
}
);
layerId = "9AADC1C9-C373-4903-A2C4-BDDDC6C38F92";
shapes = (
{
closed = 1;
nodes = (
(634,-200,l),
(618,21,l),
(634,345,l),
(524,345,l),
(540,30,l),
(524,-200,l)
);
},
{
pos = (-10,0);
ref = O;
}
);
width = 1156;
},
{
anchors = (
{
name = bottom;
pos = (378,0);
},
{
name = top;
pos = (378,700);
}
);
guides = (
{
angle = 90;
pos = (379,-79);
}
);
layerId = m002;
shapes = (
{
closed = 1;
nodes = (
(430,-200,l),
(424,21,l),
(430,345,l),
(328,345,l),
(334,30,l),
(328,-200,l)
);
},
{
pos = (-10,0);
ref = O;
}
);
width = 759;
}
);
metricLeft = o;
metricRight = o;
unicode = 81;
},
{
glyphname = R;
kernRight = R;
lastChange = "2024-09-18 02:20:03 +0000";
layers = (
{
anchors = (
{
name = bottom;
pos = (548,0);
},
{
name = top;
pos = (548,700);
}
);
background = {
shapes = (
{
closed = 1;
nodes = (
(1032,0,l),
(411,292,l),
(211,292,l),
(837,0,l)
);
}
);
};
layerId = "9AADC1C9-C373-4903-A2C4-BDDDC6C38F92";
shapes = (
{
ref = P;
},
{
closed = 1;
nodes = (
(1032,0,l),
(411,282,l),
(211,282,l),
(837,0,l)
);
}
);
width = 996;
},
{
associatedMasterId = "9AADC1C9-C373-4903-A2C4-BDDDC6C38F92";
guides = (
{
angle = 157.8672;
pos = (1102,0);
}
);
layerId = "96FFEF04-DF70-4102-963E-EA1BE673A75F";
name = "Feb 2 21, 11:53";
shapes = (
{
closed = 1;
nodes = (
(1102,0,l),
(1102,125,l),
(367,425,l),
(180,375,l)
);
},
{
closed = 1;
nodes = (
(100,0,l),
(215,0,l),
(215,750,l),
(100,750,l)
);
},
{
closed = 1;
nodes = (
(797,325,ls),
(1017,325,o),
(1095,424,o),
(1095,535,cs),
(1095,639,o),
(1017,750,o),
(797,750,cs),
(215,750,l),
(215,650,l),
(815,650,ls),
(927,650,o),
(975,597,o),
(975,537,cs),
(975,472,o),
(924,425,o),
(815,425,cs),
(215,425,l),
(215,325,l)
);
}
);
width = 1175;
},
{
anchors = (
{
name = bottom;
pos = (323,0);
},
{
name = top;
pos = (323,700);
}
);
background = {
shapes = (
{
closed = 1;
nodes = (
(604,0,l),
(368,282,l),
(240,282,l),
(466,0,l)
);
}
);
};
guides = (
{
angle = -51.2907;
pos = (324,141);
},
{
angle = -51.2907;
pos = (479,141);
}
);
layerId = m002;
shapes = (
{
ref = P;
},
{
closed = 1;
nodes = (
(604,0,l),
(393,279,l),
(289,253,l),
(466,0,l)
);
}
);
width = 637;
},
{
associatedMasterId = m002;
guides = (
{
angle = 157.8672;
pos = (1102,0);
}
);
layerId = "8B06D4EC-7B0B-497E-9B90-8E55B9DD9516";
name = "Feb 2 21, 11:53";
shapes = (
{
closed = 1;
nodes = (
(1102,0,l),
(1102,125,l),
(367,425,l),
(180,375,l)
);
},
{
closed = 1;
nodes = (
(100,0,l),
(215,0,l),
(215,750,l),
(100,750,l)
);
},
{
closed = 1;
nodes = (
(797,325,ls),
(1017,325,o),
(1095,424,o),
(1095,535,cs),
(1095,639,o),
(1017,750,o),
(797,750,cs),
(215,750,l),
(215,650,l),
(815,650,ls),
(927,650,o),
(975,597,o),
(975,537,cs),
(975,472,o),
(924,425,o),
(815,425,cs),
(215,425,l),
(215,325,l)
);
}
);
width = 1175;
}
);
unicode = 82;
},
{
glyphname = S;
kernLeft = S;
kernRight = S;
lastChange = "2024-09-19 05:37:10 +0000";
layers = (
{
associatedMasterId = "9AADC1C9-C373-4903-A2C4-BDDDC6C38F92";
background = {
shapes = (
{
closed = 0;
nodes = (
(1055,204,l),
(1055,267,o),
(915,277,o),
(640,317,cs),
(411,351,o),
(145,366,o),
(145,531,cs),
(145,681,o),
(364,764,o),
(641,764,cs),
(933,764,o),
(1175,673,o),
(1196,489,c),
(1029,489,l),
(1009,582,o),
(860,633,o),
(654,633,cs),
(507,633,o),
(309,604,o),
(309,544,cs),
(309,494,o),
(405,479,o),
(684,435,cs),
(976,390,o),
(1219,379,o),
(1219,218,c)
);
},
{
closed = 0;
nodes = (
(1219,218,l),
(1219,61,o),
(988,-20,o),
(692,-20,cs),
(389,-20,o),
(133,75,o),
(119,263,c),
(286,263,l),
(300,163,o),
(464,111,o),
(680,111,cs),
(906,111,o),
(1055,148,o),
(1055,204,c)
);
}
);
};
layerId = "66857A78-43FA-4F83-9DF2-13589401FF00";
name = "Feb 1 21, 11:21";
shapes = (
{
closed = 1;
nodes = (
(354,447,o),
(273,484,o),
(273,546,cs),
(273,625,o),
(482,665,o),
(639,665,c),
(625,770,l),
(344,770,o),
(153,666,o),
(153,526,cs),
(153,426,o),
(207,340,o),
(607,320,cs),
(707,315,ls),
(950,303,o),
(1057,276,o),
(1051,204,cs),
(1044,115,o),
(832,85,o),
(662,85,c),
(677,-20,l),
(982,-20,o),
(1171,84,o),
(1171,224,cs),
(1171,324,o),
(1097,410,o),
(727,428,cs),
(627,433,ls)
);
},
{
closed = 1;
nodes = (
(133,229,l),
(143,79,o),
(372,-20,o),
(677,-20,c),
(662,85,l),
(492,85,o),
(273,130,o),
(253,229,c)
);
},
{
closed = 1;
nodes = (
(1117,520,l),
(1097,660,o),
(906,770,o),
(625,770,c),
(639,665,l),
(796,665,o),
(967,620,o),
(997,520,c)
);
}
);
width = 1279;
},
{
associatedMasterId = "9AADC1C9-C373-4903-A2C4-BDDDC6C38F92";
background = {
shapes = (
{
closed = 0;
nodes = (
(1035,204,l),
(1035,267,o),
(895,277,o),
(620,317,cs),
(391,351,o),
(125,366,o),
(125,531,cs),
(125,681,o),
(344,764,o),
(621,764,cs),
(913,764,o),
(1155,673,o),
(1176,489,c),
(1009,489,l),
(989,582,o),
(840,633,o),
(634,633,cs),
(487,633,o),
(289,604,o),
(289,544,cs),
(289,494,o),
(385,479,o),
(664,435,cs),
(956,390,o),
(1199,379,o),
(1199,218,c)
);
},
{
closed = 0;
nodes = (
(1199,218,l),
(1199,61,o),
(968,-20,o),
(672,-20,cs),
(369,-20,o),
(113,75,o),
(99,263,c),
(266,263,l),
(280,163,o),
(444,111,o),
(660,111,cs),
(886,111,o),
(1035,148,o),
(1035,204,c)
);
}
);
};
layerId = "BC1F5552-2377-44CA-8BC4-4E10E2CC363C";
name = "Feb 1 21, 19:00";
shapes = (
{
closed = 1;
nodes = (
(344,450,o),
(242,482,o),
(242,552,cs),
(242,622,o),
(376,665,o),
(588,665,cs),
(790,665,o),
(918,610,o),
(948,535,c),
(1068,535,l),
(1048,670,o),
(860,770,o),
(591,770,cs),
(282,770,o),
(122,682,o),
(122,547,cs),
(122,426,o),
(235,344,o),
(544,322,cs),
(644,315,ls),
(881,298,o),
(996,268,o),
(996,198,cs),
(996,128,o),
(860,85,o),
(598,85,cs),
(336,85,o),
(220,140,o),
(200,215,c),
(80,215,l),
(90,80,o),
(259,-20,o),
(598,-20,cs),
(967,-20,o),
(1116,68,o),
(1116,203,cs),
(1116,324,o),
(1013,404,o),
(664,428,cs),
(564,435,ls)
);
}
);
width = 1196;
},
{
associatedMasterId = "9AADC1C9-C373-4903-A2C4-BDDDC6C38F92";
background = {
shapes = (
{
closed = 0;
nodes = (
(1035,204,l),
(1035,267,o),
(895,277,o),
(620,317,cs),
(391,351,o),
(125,366,o),
(125,531,cs),
(125,681,o),
(344,764,o),
(621,764,cs),
(913,764,o),
(1155,673,o),
(1176,489,c),
(1009,489,l),
(989,582,o),
(840,633,o),
(634,633,cs),
(487,633,o),
(289,604,o),
(289,544,cs),
(289,494,o),
(385,479,o),
(664,435,cs),
(956,390,o),
(1199,379,o),
(1199,218,c)
);
},
{
closed = 0;
nodes = (
(1199,218,l),
(1199,61,o),
(968,-20,o),
(672,-20,cs),
(369,-20,o),
(113,75,o),
(99,263,c),
(266,263,l),
(280,163,o),
(444,111,o),
(660,111,cs),
(886,111,o),
(1035,148,o),
(1035,204,c)
);
}
);
};
layerId = "68BD72EF-DF1D-4A92-9188-027045F0B726";
name = "Feb 28 21, 13:49";
shapes = (
{
closed = 1;
nodes = (
(364,449,o),
(262,482,o),
(262,552,cs),
(262,622,o),
(385,665,o),
(577,665,cs),
(752,665,o),
(888,610,o),
(948,535,c),
(1058,535,l),
(1008,670,o),
(826,770,o),
(581,770,cs),
(296,770,o),
(142,682,o),
(142,547,cs),
(142,426,o),
(255,342,o),
(544,322,cs),
(644,315,ls),
(881,298,o),
(996,270,o),
(996,200,cs),
(996,130,o),
(869,85,o),
(617,85,cs),
(390,85,o),
(255,160,o),
(200,235,c),
(90,235,l),
(125,100,o),
(309,-20,o),
(623,-20,cs),
(972,-20,o),
(1116,75,o),
(1116,210,cs),
(1116,328,o),
(1013,404,o),
(664,428,cs),
(564,435,ls)
);
}
);
width = 1196;
},
{
anchors = (
{
name = bottom;
pos = (554,0);
},
{
name = top;
pos = (554,700);
}
);
background = {
shapes = (
{
closed = 1;
nodes = (
(310,-18,o),
(588,-18,cs),
(847,-18,o),
(1055,53,o),
(1055,204,cs),
(1055,495,o),
(213,362,o),
(213,529,cs),
(213,593,o),
(338,626,o),
(558,624,cs),
(751,622,o),
(902,588,o),
(909,470,c),
(1025,470,l),
(1041,633,o),
(815,717,o),
(540,717,cs),
(327,717,o),
(99,664,o),
(99,517,cs),
(99,232,o),
(939,366,o),
(939,196,cs),
(939,118,o),
(791,79,o),
(593,79,cs),
(373,79,o),
(179,128,o),
(170,246,c),
(52,246,l),
(60,68,o)
);
}
);
};
layerId = "9AADC1C9-C373-4903-A2C4-BDDDC6C38F92";
shapes = (
{
closed = 1;
nodes = (
(847,-18,o),
(1055,53,o),
(1055,204,cs),
(1055,487,o),
(213,362,o),
(213,529,cs),
(213,593,o),
(338,626,o),
(558,624,cs),
(751,622,o),
(902,588,o),
(909,470,c),
(1025,470,l),
(1041,633,o),
(815,717,o),
(540,717,cs),
(327,717,o),
(99,664,o),
(99,517,cs),
(99,243,o),
(939,366,o),
(939,196,cs),
(939,118,o),
(791,79,o),
(593,79,cs),
(373,79,o),
(179,128,o),
(170,246,c),
(52,246,l),
(60,68,o),
(310,-18,o),
(588,-18,cs)
);
}
);
width = 1107;
},
{
associatedMasterId = m002;
background = {
shapes = (
{
closed = 0;
nodes = (
(1055,204,l),
(1055,267,o),
(915,277,o),
(640,317,cs),
(411,351,o),
(145,366,o),
(145,531,cs),
(145,681,o),
(364,764,o),
(641,764,cs),
(933,764,o),
(1175,673,o),
(1196,489,c),
(1029,489,l),
(1009,582,o),
(860,633,o),
(654,633,cs),
(507,633,o),
(309,604,o),
(309,544,cs),
(309,494,o),
(405,479,o),
(684,435,cs),
(976,390,o),
(1219,379,o),
(1219,218,c)
);
},
{
closed = 0;
nodes = (
(1219,218,l),
(1219,61,o),
(988,-20,o),
(692,-20,cs),
(389,-20,o),
(133,75,o),
(119,263,c),
(286,263,l),
(300,163,o),
(464,111,o),
(680,111,cs),
(906,111,o),
(1055,148,o),
(1055,204,c)
);
}
);
};
layerId = "1E007A64-6EB4-4FA3-919C-DC4C097CFC79";
name = "Feb 1 21, 11:21";
shapes = (
{
closed = 1;
nodes = (
(354,447,o),
(273,484,o),
(273,546,cs),
(273,625,o),
(482,665,o),
(639,665,c),
(625,770,l),
(344,770,o),
(153,666,o),
(153,526,cs),
(153,426,o),
(207,340,o),
(607,320,cs),
(707,315,ls),
(950,303,o),
(1057,276,o),
(1051,204,cs),
(1044,115,o),
(832,85,o),
(662,85,c),
(677,-20,l),
(982,-20,o),
(1171,84,o),
(1171,224,cs),
(1171,324,o),
(1097,410,o),
(727,428,cs),
(627,433,ls)
);
},
{
closed = 1;
nodes = (
(133,229,l),
(143,79,o),
(372,-20,o),
(677,-20,c),
(662,85,l),
(492,85,o),
(273,130,o),
(253,229,c)
);
},
{
closed = 1;
nodes = (
(1117,520,l),
(1097,660,o),
(906,770,o),
(625,770,c),
(639,665,l),
(796,665,o),
(967,620,o),
(997,520,c)
);
}
);
width = 1279;
},
{
associatedMasterId = m002;
background = {
shapes = (
{
closed = 0;
nodes = (
(1035,204,l),
(1035,267,o),
(895,277,o),
(620,317,cs),
(391,351,o),
(125,366,o),
(125,531,cs),
(125,681,o),
(344,764,o),
(621,764,cs),
(913,764,o),
(1155,673,o),
(1176,489,c),
(1009,489,l),
(989,582,o),
(840,633,o),
(634,633,cs),
(487,633,o),
(289,604,o),
(289,544,cs),
(289,494,o),
(385,479,o),
(664,435,cs),
(956,390,o),
(1199,379,o),
(1199,218,c)
);
},
{
closed = 0;
nodes = (
(1199,218,l),
(1199,61,o),
(968,-20,o),
(672,-20,cs),
(369,-20,o),
(113,75,o),
(99,263,c),
(266,263,l),
(280,163,o),
(444,111,o),
(660,111,cs),
(886,111,o),
(1035,148,o),
(1035,204,c)
);
}
);
};
layerId = "24A8E03B-C756-4A52-B0F8-60B6D2FB183A";
name = "Feb 1 21, 19:00";
shapes = (
{
closed = 1;
nodes = (
(344,450,o),
(242,482,o),
(242,552,cs),
(242,622,o),
(376,665,o),
(588,665,cs),
(790,665,o),
(918,610,o),
(948,535,c),
(1068,535,l),
(1048,670,o),
(860,770,o),
(591,770,cs),
(282,770,o),
(122,682,o),
(122,547,cs),
(122,426,o),
(235,344,o),
(544,322,cs),
(644,315,ls),
(881,298,o),
(996,268,o),
(996,198,cs),
(996,128,o),
(860,85,o),
(598,85,cs),
(336,85,o),
(220,140,o),
(200,215,c),
(80,215,l),
(90,80,o),
(259,-20,o),
(598,-20,cs),
(967,-20,o),
(1116,68,o),
(1116,203,cs),
(1116,324,o),
(1013,404,o),
(664,428,cs),
(564,435,ls)
);
}
);
width = 1196;
},
{
associatedMasterId = m002;
background = {
shapes = (
{
closed = 0;
nodes = (
(1035,204,l),
(1035,267,o),
(895,277,o),
(620,317,cs),
(391,351,o),
(125,366,o),
(125,531,cs),
(125,681,o),
(344,764,o),
(621,764,cs),
(913,764,o),
(1155,673,o),
(1176,489,c),
(1009,489,l),
(989,582,o),
(840,633,o),
(634,633,cs),
(487,633,o),
(289,604,o),
(289,544,cs),
(289,494,o),
(385,479,o),
(664,435,cs),
(956,390,o),
(1199,379,o),
(1199,218,c)
);
},
{
closed = 0;
nodes = (
(1199,218,l),
(1199,61,o),
(968,-20,o),
(672,-20,cs),
(369,-20,o),
(113,75,o),
(99,263,c),
(266,263,l),
(280,163,o),
(444,111,o),
(660,111,cs),
(886,111,o),
(1035,148,o),
(1035,204,c)
);
}
);
};
layerId = "6B55A3A8-8354-4162-BD34-92A9DFB52BE9";
name = "Feb 28 21, 13:49";
shapes = (
{
closed = 1;
nodes = (
(364,449,o),
(262,482,o),
(262,552,cs),
(262,622,o),
(385,665,o),
(577,665,cs),
(752,665,o),
(888,610,o),
(948,535,c),
(1058,535,l),
(1008,670,o),
(826,770,o),
(581,770,cs),
(296,770,o),
(142,682,o),
(142,547,cs),
(142,426,o),
(255,342,o),
(544,322,cs),
(644,315,ls),
(881,298,o),
(996,270,o),
(996,200,cs),
(996,130,o),
(869,85,o),
(617,85,cs),
(390,85,o),
(255,160,o),
(200,235,c),
(90,235,l),
(125,100,o),
(309,-20,o),
(623,-20,cs),
(972,-20,o),
(1116,75,o),
(1116,210,cs),
(1116,328,o),
(1013,404,o),
(664,428,cs),
(564,435,ls)
);
}
);
width = 1196;
},
{
anchors = (
{
name = bottom;
pos = (357,0);
},
{
name = top;
pos = (341,700);
}
);
background = {
shapes = (
{
closed = 1;
nodes = (
(288,-20,o),
(237,-15,o),
(198,3,c),
(158,19,o),
(125,42,o),
(103,76,c),
(80,103,o),
(64,142,o),
(64,181,c),
(64,188,l),
(169,188,l),
(169,181,l),
(176,160,o),
(187,142,o),
(198,126,c),
(215,108,o),
(237,98,o),
(260,87,c),
(281,81,o),
(310,76,o),
(343,76,c),
(377,76,o),
(405,81,o),
(427,92,c),
(450,98,o),
(466,108,o),
(484,126,c),
(495,142,o),
(500,165,o),
(500,188,c),
(500,188,l),
(500,215,o),
(489,238,o),
(466,254,c),
(450,272,o),
(416,288,o),
(366,300,c),
(288,311,l),
(220,327,o),
(164,350,o),
(130,384,c),
(96,417,o),
(80,462,o),
(80,512,c),
(80,512,l),
(80,558,o),
(91,592,o),
(114,624,c),
(137,653,o),
(164,681,o),
(203,697,c),
(242,715,o),
(288,720,o),
(338,720,c),
(388,720,o),
(434,715,o),
(473,697,c),
(512,681,o),
(539,658,o),
(562,624,c),
(585,597,o),
(596,558,o),
(601,519,c),
(601,512,l),
(489,512,l),
(489,519,l),
(489,540,o),
(478,558,o),
(466,574,c),
(450,592,o),
(434,602,o),
(416,613,c),
(395,619,o),
(366,624,o),
(338,624,c),
(310,624,o),
(281,619,o),
(260,613,c),
(237,602,o),
(220,592,o),
(210,574,c),
(198,558,o),
(192,540,o),
(192,519,c),
(192,519,l),
(192,490,o),
(203,468,o),
(226,451,c),
(249,434,o),
(276,423,o),
(322,412,c),
(400,395,l),
(450,384,o),
(489,373,o),
(523,355,c),
(557,339,o),
(580,316,o),
(590,288,c),
(607,261,o),
(612,232,o),
(612,193,c),
(612,193,l),
(612,148,o),
(601,108,o),
(580,81,c),
(557,47,o),
(528,25,o),
(489,8,c),
(445,-15,o),
(395,-20,o),
(338,-20,c)
);
}
);
};
layerId = m002;
shapes = (
{
closed = 1;
nodes = (
(497,-23,o),
(632,50,o),
(632,194,cs),
(632,442,o),
(193,365,o),
(193,532,cs),
(193,588,o),
(260,624,o),
(330,624,cs),
(404,624,o),
(482,583,o),
(488,481,c),
(602,479,l),
(608,643,o),
(466,724,o),
(329,724,cs),
(202,724,o),
(79,655,o),
(79,522,cs),
(79,268,o),
(516,331,o),
(516,186,cs),
(516,116,o),
(443,81,o),
(364,81,cs),
(272,81,o),
(173,128,o),
(170,226,c),
(52,226,l),
(55,59,o),
(208,-23,o),
(357,-23,cs)
);
}
);
width = 684;
}
);
metricLeft = O;
metricRight = O;
unicode = 83;
},
{
glyphname = T;
kernLeft = T;
kernRight = T;
lastChange = "2024-09-18 22:19:17 +0000";
layers = (
{
anchors = (
{
name = bottom;
pos = (507,0);
},
{
name = center;
pos = (507,350);
},
{
name = top;
pos = (507,700);
}
);
background = {
anchors = (
{
name = bottom;
pos = (507,0);
},
{
name = center;
pos = (507,350);
},
{
name = top;
pos = (507,700);
}
);
shapes = (
{
closed = 1;
nodes = (
(1024,604,l),
(1024,700,l),
(-10,700,l),
(-10,604,l)
);
},
{
closed = 1;
nodes = (
(564,0,l),
(564,640,l),
(450,640,l),
(450,0,l)
);
}
);
};
layerId = "9AADC1C9-C373-4903-A2C4-BDDDC6C38F92";
shapes = (
{
closed = 1;
nodes = (
(1024,604,l),
(1024,700,l),
(-10,700,l),
(-10,604,l)
);
},
{
closed = 1;
nodes = (
(564,0,l),
(564,640,l),
(450,640,l),
(450,0,l)
);
}
);
width = 1014;
},
{
anchors = (
{
name = bottom;
pos = (279,0);
},
{
name = center;
pos = (279,350);
},
{
name = top;
pos = (279,700);
}
);
background = {
shapes = (
{
closed = 1;
nodes = (
(10,701,l),
(10,607,l),
(224,607,l),
(224,0,l),
(333,0,l),
(333,607,l),
(548,607,l),
(548,701,l)
);
}
);
};
layerId = m002;
shapes = (
{
closed = 1;
nodes = (
(548,604,l),
(548,700,l),
(10,700,l),
(10,604,l)
);
},
{
closed = 1;
nodes = (
(336,0,l),
(336,640,l),
(222,640,l),
(222,0,l)
);
}
);
width = 558;
}
);
unicode = 84;
},
{
glyphname = U;
lastChange = "2024-09-18 02:34:57 +0000";
layers = (
{
anchors = (
{
name = bottom;
pos = (557,0);
},
{
name = ogonek;
pos = (740,0);
},
{
name = top;
pos = (556,700);
},
{
name = topright;
pos = (1092,700);
}
);
background = {
shapes = (
{
pos = (10,0);
ref = H;
}
);
};
guides = (
{
angle = 90;
pos = (557,750);
}
);
layerId = "9AADC1C9-C373-4903-A2C4-BDDDC6C38F92";
shapes = (
{
closed = 1;
nodes = (
(852,-20,o),
(1032,98,o),
(1032,354,cs),
(1032,700,l),
(918,700,l),
(918,358,ls),
(918,149,o),
(773,76,o),
(557,76,cs),
(339,76,o),
(194,149,o),
(194,358,cs),
(194,700,l),
(80,700,l),
(80,354,ls),
(80,98,o),
(260,-20,o),
(557,-20,cs)
);
}
);
width = 1112;
},
{
anchors = (
{
name = bottom;
pos = (367,0);
},
{
name = ogonek;
pos = (510,10);
},
{
name = top;
pos = (366,700);
},
{
name = topright;
pos = (682,700);
}
);
background = {
shapes = (
{
ref = H;
}
);
};
guides = (
{
angle = 90;
pos = (366,750);
}
);
layerId = m002;
shapes = (
{
closed = 1;
nodes = (
(510,-16,o),
(653,50,o),
(653,270,cs),
(653,700,l),
(539,700,l),
(539,274,ls),
(539,115,o),
(453,80,o),
(367,80,cs),
(280,80,o),
(194,115,o),
(194,274,cs),
(194,700,l),
(80,700,l),
(80,270,ls),
(80,50,o),
(223,-16,o),
(367,-16,cs)
);
}
);
width = 733;
}
);
metricLeft = H;
metricRight = H;
unicode = 85;
},
{
glyphname = V;
kernLeft = V;
kernRight = V;
lastChange = "2024-09-18 15:18:01 +0000";
layers = (
{
anchors = (
{
name = bottom;
pos = (531,0);
},
{
name = top;
pos = (531,700);
}
);
background = {
shapes = (
{
closed = 1;
nodes = (
(613,0,l),
(1052,700,l),
(926,700,l),
(497,0,l)
);
},
{
closed = 1;
nodes = (
(565,0,l),
(136,700,l),
(10,700,l),
(449,0,l)
);
}
);
};
guides = (
{
angle = 122.0936;
pos = (230,350);
},
{
angle = 122.0936;
pos = (356,350);
},
{
angle = 57.9064;
pos = (832,350);
},
{
angle = 57.9064;
pos = (706,350);
}
);
layerId = "9AADC1C9-C373-4903-A2C4-BDDDC6C38F92";
shapes = (
{
closed = 1;
nodes = (
(613,0,l),
(1052,700,l),
(926,700,l),
(497,0,l)
);
},
{
closed = 1;
nodes = (
(565,0,l),
(136,700,l),
(10,700,l),
(449,0,l)
);
}
);
width = 1062;
},
{
anchors = (
{
name = bottom;
pos = (316,0);
},
{
name = top;
pos = (316,700);
}
);
background = {
shapes = (
{
closed = 1;
nodes = (
(508,700,l),
(317,120,l),
(317,120,l),
(126,700,l),
(5,700,l),
(257,0,l),
(377,0,l),
(629,700,l)
);
}
);
};
guides = (
{
pos = (368,0);
}
);
layerId = m002;
shapes = (
{
closed = 1;
nodes = (
(399,0,l),
(622,700,l),
(505,700,l),
(297,0,l)
);
},
{
closed = 1;
nodes = (
(335,0,l),
(127,700,l),
(10,700,l),
(233,0,l)
);
}
);
width = 632;
}
);
unicode = 86;
},
{
glyphname = W;
kernLeft = V;
kernRight = V;
lastChange = "2024-09-18 03:09:07 +0000";
layers = (
{
anchors = (
{
name = bottom;
pos = (751,0);
},
{
name = top;
pos = (751,700);
}
);
layerId = "9AADC1C9-C373-4903-A2C4-BDDDC6C38F92";
shapes = (
{
closed = 1;
nodes = (
(525,0,l),
(136,700,l),
(10,700,l),
(409,0,l)
);
},
{
closed = 1;
nodes = (
(573,0,l),
(972,700,l),
(846,700,l),
(457,0,l)
);
},
{
closed = 1;
nodes = (
(1045,0,l),
(656,700,l),
(530,700,l),
(929,0,l)
);
},
{
closed = 1;
nodes = (
(1093,0,l),
(1492,700,l),
(1366,700,l),
(977,0,l)
);
}
);
width = 1502;
},
{
anchors = (
{
name = bottom;
pos = (511,0);
},
{
name = top;
pos = (511,700);
}
);
background = {
anchors = (
{
name = bottom;
pos = (511,0);
},
{
name = top;
pos = (511,700);
}
);
shapes = (
{
closed = 1;
nodes = (
(707,0,l),
(467,700,l),
(350,700,l),
(604,0,l)
);
},
{
closed = 1;
nodes = (
(367,0,l),
(127,700,l),
(10,700,l),
(264,0,l)
);
},
{
closed = 1;
nodes = (
(418,0,l),
(672,700,l),
(555,700,l),
(316,0,l)
);
},
{
closed = 1;
nodes = (
(758,0,l),
(1012,700,l),
(895,700,l),
(656,0,l)
);
}
);
};
layerId = m002;
shapes = (
{
closed = 1;
nodes = (
(367,0,l),
(127,700,l),
(10,700,l),
(264,0,l)
);
},
{
closed = 1;
nodes = (
(418,0,l),
(672,700,l),
(555,700,l),
(316,0,l)
);
},
{
closed = 1;
nodes = (
(707,0,l),
(467,700,l),
(350,700,l),
(604,0,l)
);
},
{
closed = 1;
nodes = (
(758,0,l),
(1012,700,l),
(895,700,l),
(656,0,l)
);
}
);
width = 1022;
}
);
metricLeft = V;
metricRight = V;
unicode = 87;
},
{
glyphname = X;
kernLeft = X;
kernRight = X;
lastChange = "2024-09-18 03:05:53 +0000";
layers = (
{
anchors = (
{
name = bottom;
pos = (542,0);
},
{
name = top;
pos = (542,700);
}
);
background = {
shapes = (
{
closed = 1;
nodes = (
(171,0,l),
(550,322,l),
(525,322,l),
(904,0,l),
(1058,0,l),
(585,402,l),
(571,325,l),
(1011,700,l),
(870,700,l),
(529,410,l),
(557,410,l),
(218,700,l),
(66,700,l),
(496,329,l),
(507,406,l),
(30,0,l)
);
}
);
};
layerId = "9AADC1C9-C373-4903-A2C4-BDDDC6C38F92";
shapes = (
{
closed = 1;
nodes = (
(171,0,l),
(550,322,l),
(525,322,l),
(904,0,l),
(1061,0,l),
(588,402,l),
(571,325,l),
(1011,700,l),
(870,700,l),
(529,410,l),
(557,410,l),
(218,700,l),
(64,700,l),
(494,329,l),
(507,406,l),
(30,0,l)
);
}
);
width = 1083;
},
{
anchors = (
{
name = bottom;
pos = (350,0);
},
{
name = top;
pos = (350,700);
}
);
background = {
shapes = (
{
closed = 1;
nodes = (
);
}
);
};
guides = (
{
angle = 90;
pos = (73,476);
},
{
angle = 90;
pos = (30,476);
},
{
angle = 90;
pos = (689,476);
},
{
angle = 90;
pos = (646,476);
},
{
angle = 235.4498;
pos = (271,350);
},
{
angle = 235.4498;
pos = (406,350);
},
{
angle = -55.4498;
pos = (448,350);
},
{
angle = -55.4498;
pos = (313,350);
}
);
layerId = m002;
shapes = (
{
closed = 1;
nodes = (
(165,0,l),
(380,319,l),
(339,319,l),
(554,0,l),
(689,0,l),
(408,400,l),
(400,349,l),
(646,700,l),
(512,700,l),
(339,442,l),
(379,442,l),
(208,700,l),
(73,700,l),
(317,349,l),
(316,410,l),
(30,0,l)
);
}
);
width = 711;
}
);
unicode = 88;
},
{
glyphname = Y;
kernLeft = V;
kernRight = V;
lastChange = "2024-09-18 02:57:54 +0000";
layers = (
{
anchors = (
{
name = bottom;
pos = (490,0);
},
{
name = top;
pos = (490,657);
},
{
name = topleft;
pos = (20,700);
}
);
layerId = "9AADC1C9-C373-4903-A2C4-BDDDC6C38F92";
shapes = (
{
closed = 1;
nodes = (
(979,700,l),
(828,700,l),
(477,330,l),
(498,330,l),
(149,700,l),
(0,700,l),
(450,229,l),
(519,225,l)
);
},
{
closed = 1;
nodes = (
(542,0,l),
(542,272,l),
(430,272,l),
(430,0,l)
);
}
);
width = 979;
},
{
anchors = (
{
name = bottom;
pos = (330,0);
},
{
name = top;
pos = (330,700);
},
{
name = topleft;
pos = (20,700);
}
);
background = {
shapes = (
{
closed = 1;
nodes = (
(506,700,l),
(331,394,l),
(326,394,l),
(146,700,l),
(25,700,l),
(271,290,l),
(271,0,l),
(381,0,l),
(381,290,l),
(627,700,l)
);
}
);
};
layerId = m002;
shapes = (
{
closed = 1;
nodes = (
(649,700,l),
(520,700,l),
(327,360,l),
(328,360,l),
(129,700,l),
(0,700,l),
(290,229,l),
(359,225,l)
);
},
{
closed = 1;
nodes = (
(382,0,l),
(382,272,l),
(270,272,l),
(270,0,l)
);
}
);
width = 649;
}
);
unicode = 89;
},
{
glyphname = Z;
kernLeft = Z;
kernRight = Z;
lastChange = "2024-09-18 22:20:11 +0000";
layers = (
{
anchors = (
{
name = bottom;
pos = (532,0);
},
{
name = center;
pos = (532,350);
},
{
name = top;
pos = (532,700);
}
);
background = {
shapes = (
{
closed = 1;
nodes = (
(171,0,l),
(171,700,l),
(59,700,l),
(59,0,l)
);
},
{
closed = 1;
nodes = (
(989,0,l),
(989,700,l),
(877,700,l),
(877,0,l)
);
},
{
closed = 1;
nodes = (
(932,0,l),
(255,700,l),
(115,700,l),
(792,0,l)
);
}
);
};
guides = (
{
angle = 90;
pos = (532,519);
}
);
layerId = "9AADC1C9-C373-4903-A2C4-BDDDC6C38F92";
shapes = (
{
closed = 1;
nodes = (
(994,542,l),
(994,651,l),
(50,151,l),
(50,42,l)
);
},
{
closed = 1;
nodes = (
(1016,0,l),
(1016,96,l),
(50,96,l),
(50,0,l)
);
},
{
closed = 1;
nodes = (
(994,604,l),
(994,700,l),
(72,700,l),
(72,604,l)
);
}
);
width = 1066;
},
{
anchors = (
{
name = bottom;
pos = (313,0);
},
{
name = center;
pos = (313,350);
},
{
name = top;
pos = (313,700);
}
);
layerId = m002;
shapes = (
{
closed = 1;
nodes = (
(574,550,l),
(574,688,l),
(50,147,l),
(50,10,l)
);
},
{
closed = 1;
nodes = (
(596,0,l),
(596,96,l),
(50,96,l),
(50,0,l)
);
},
{
closed = 1;
nodes = (
(574,604,l),
(574,700,l),
(72,700,l),
(72,604,l)
);
}
);
width = 646;
}
);
unicode = 90;
},
{
glyphname = I.ss02;
lastChange = "2024-07-10 15:07:57 +0000";
layers = (
{
anchors = (
{
name = bottom;
pos = (158,0);
},
{
name = ogonek;
pos = (284,10);
},
{
name = top;
pos = (158,657);
},
{
name = topleft;
pos = (20,700);
}
);
layerId = "9AADC1C9-C373-4903-A2C4-BDDDC6C38F92";
shapes = (
{
closed = 1;
nodes = (
(215,0,l),
(215,700,l),
(100,700,l),
(100,0,l)
);
}
);
width = 315;
},
{
anchors = (
{
name = bottom;
pos = (158,0);
},
{
name = ogonek;
pos = (284,10);
},
{
name = top;
pos = (158,657);
},
{
name = topleft;
pos = (20,700);
}
);
layerId = m002;
shapes = (
{
closed = 1;
nodes = (
(215,0,l),
(215,700,l),
(100,700,l),
(100,0,l)
);
}
);
width = 315;
}
);
},
{
color = 0;
export = 0;
glyphname = Germandbls;
lastChange = "2024-09-25 01:44:06 +0000";
layers = (
{
background = {
shapes = (
{
ref = R;
}
);
};
layerId = "9AADC1C9-C373-4903-A2C4-BDDDC6C38F92";
shapes = (
{
closed = 1;
nodes = (
(870,-4,o),
(1009,53,o),
(1009,183,cs),
(1009,399,o),
(609,375,o),
(609,507,cs),
(609,573,o),
(725,610,o),
(879,604,c),
(879,700,l),
(46,700,l),
(46,604,l),
(789,604,l),
(774,645,l),
(646,652,o),
(502,615,o),
(502,490,cs),
(502,281,o),
(898,307,o),
(898,173,cs),
(898,113,o),
(824,84,o),
(741,85,cs),
(662,86,o),
(575,113,o),
(571,185,c),
(461,185,l),
(469,55,o),
(594,-4,o),
(741,-4,cs)
);
},
{
closed = 1;
nodes = (
(122,0,l),
(122,700,l),
(10,700,l),
(10,0,l)
);
}
);
width = 1051;
},
{
background = {
shapes = (
{
ref = R;
}
);
};
layerId = m002;
shapes = (
{
closed = 1;
nodes = (
(870,-4,o),
(1009,53,o),
(1009,183,cs),
(1009,399,o),
(609,375,o),
(609,507,cs),
(609,573,o),
(725,610,o),
(879,604,c),
(879,700,l),
(46,700,l),
(46,604,l),
(789,604,l),
(774,645,l),
(646,652,o),
(502,615,o),
(502,490,cs),
(502,281,o),
(898,307,o),
(898,173,cs),
(898,113,o),
(824,84,o),
(741,85,cs),
(662,86,o),
(575,113,o),
(571,185,c),
(461,185,l),
(469,55,o),
(594,-4,o),
(741,-4,cs)
);
},
{
closed = 1;
nodes = (
(122,0,l),
(122,700,l),
(10,700,l),
(10,0,l)
);
}
);
width = 1051;
}
);
metricLeft = I;
metricRight = s;
unicode = 7838;
},
{
color = 0;
export = 0;
glyphname = T_i.liga;
lastChange = "2024-09-25 01:44:10 +0000";
layers = (
{
anchors = (
{
name = bottom;
pos = (1130,0);
},
{
name = top;
pos = (1094,722);
}
);
layerId = "9AADC1C9-C373-4903-A2C4-BDDDC6C38F92";
shapes = (
{
ref = T;
},
{
closed = 1;
nodes = (
(1149,0,l),
(1149,500,l),
(1039,500,l),
(1039,0,l)
);
}
);
width = 1159;
},
{
anchors = (
{
name = bottom;
pos = (1130,0);
},
{
name = top;
pos = (1094,722);
}
);
layerId = m002;
shapes = (
{
ref = T;
},
{
closed = 1;
nodes = (
(1149,0,l),
(1149,500,l),
(1039,500,l),
(1039,0,l)
);
}
);
width = 1159;
}
);
metricLeft = T;
},
{
glyphname = a;
kernLeft = a;
kernRight = a;
lastChange = "2024-10-03 01:07:13 +0000";
layers = (
{
anchors = (
{
name = bottom;
pos = (437,0);
},
{
name = ogonek;
pos = (812,0);
},
{
name = top;
pos = (437,500);
}
);
background = {
guides = (
{
angle = 90;
pos = (178,145);
},
{
angle = 90;
pos = (63,145);
}
);
shapes = (
{
closed = 1;
nodes = (
(139,316,o),
(42,239,o),
(42,150,cs),
(42,63,o),
(139,-20,o),
(392,-20,cs),
(602,-20,o),
(772,40,o),
(772,150,cs),
(772,260,o),
(602,316,o),
(392,316,cs)
);
},
{
closed = 1;
nodes = (
(235,61,o),
(154,105,o),
(154,150,cs),
(154,196,o),
(234,235,o),
(427,235,cs),
(597,235,o),
(702,200,o),
(702,150,cs),
(702,100,o),
(597,61,o),
(427,61,cs)
);
},
{
closed = 1;
nodes = (
(812,438,o),
(636,520,o),
(449,520,cs),
(275,520,o),
(103,442,o),
(100,345,c),
(209,345,l),
(214,393,o),
(326,440,o),
(449,440,cs),
(579,440,o),
(702,378,o),
(702,280,cs),
(702,100,l),
(712,100,l),
(712,0,l),
(812,0,l),
(812,280,ls)
);
}
);
};
layerId = "9AADC1C9-C373-4903-A2C4-BDDDC6C38F92";
shapes = (
{
closed = 1;
nodes = (
(602,-20,o),
(772,40,o),
(772,150,cs),
(772,260,o),
(602,316,o),
(392,316,cs),
(139,316,o),
(42,239,o),
(42,150,cs),
(42,63,o),
(139,-20,o),
(392,-20,cs)
);
},
{
closed = 1;
nodes = (
(235,63,o),
(154,105,o),
(154,150,cs),
(154,196,o),
(234,234,o),
(427,234,cs),
(597,234,o),
(702,200,o),
(702,150,cs),
(702,100,o),
(597,63,o),
(427,63,cs)
);
},
{
closed = 1;
nodes = (
(219,345,l),
(215,401,o),
(331,436,o),
(442,436,cs),
(569,436,o),
(702,390,o),
(702,270,cs),
(702,100,l),
(712,100,l),
(712,0,l),
(812,0,l),
(812,280,ls),
(812,448,o),
(626,521,o),
(444,521,cs),
(272,521,o),
(93,456,o),
(100,345,c)
);
}
);
width = 872;
},
{
associatedMasterId = "9AADC1C9-C373-4903-A2C4-BDDDC6C38F92";
background = {
guides = (
{
angle = 90;
pos = (236,145);
},
{
angle = 90;
pos = (121,145);
}
);
shapes = (
{
closed = 1;
nodes = (
(240,330,o),
(100,270,o),
(100,155,cs),
(100,40,o),
(240,-20,o),
(450,-20,cs),
(660,-20,o),
(800,40,o),
(800,155,cs),
(800,270,o),
(660,330,o),
(450,330,cs)
);
},
{
closed = 1;
nodes = (
(315,65,o),
(210,100,o),
(210,155,cs),
(210,210,o),
(315,245,o),
(485,245,cs),
(655,245,o),
(760,210,o),
(760,155,cs),
(760,100,o),
(655,65,o),
(485,65,cs)
);
},
{
closed = 1;
nodes = (
(360,520,o),
(206,465,o),
(151,345,c),
(246,345,l),
(302,405,o),
(407,435,o),
(505,435,cs),
(649,435,o),
(760,397,o),
(760,271,cs),
(760,0,l),
(870,0,l),
(870,290,ls),
(870,456,o),
(717,520,o),
(515,520,cs)
);
}
);
};
layerId = "E0CEE38E-8CE4-418E-85C9-F7D53DBEEEDA";
name = ALE;
shapes = (
{
closed = 1;
nodes = (
(240,330,o),
(100,270,o),
(100,155,cs),
(100,40,o),
(240,-20,o),
(450,-20,cs),
(660,-20,o),
(800,40,o),
(800,155,cs),
(800,270,o),
(660,330,o),
(450,330,cs)
);
},
{
closed = 1;
nodes = (
(315,65,o),
(210,100,o),
(210,155,cs),
(210,210,o),
(315,245,o),
(485,245,cs),
(655,245,o),
(760,210,o),
(760,155,cs),
(760,100,o),
(655,65,o),
(485,65,cs)
);
},
{
closed = 1;
nodes = (
(360,520,o),
(206,465,o),
(151,345,c),
(246,345,l),
(302,405,o),
(407,435,o),
(505,435,cs),
(649,435,o),
(760,397,o),
(760,271,cs),
(760,0,l),
(870,0,l),
(870,290,ls),
(870,456,o),
(717,520,o),
(515,520,cs)
);
}
);
width = 970;
},
{
anchors = (
{
name = bottom;
pos = (267,0);
},
{
name = ogonek;
pos = (475,0);
},
{
name = top;
pos = (267,500);
}
);
background = {
shapes = (
{
closed = 1;
nodes = (
(363,-20,o),
(422,40,o),
(422,150,cs),
(422,260,o),
(363,316,o),
(249,316,cs),
(112,316,o),
(42,239,o),
(42,150,cs),
(42,63,o),
(112,-20,o),
(249,-20,cs)
);
},
{
closed = 1;
nodes = (
(187,65,o),
(154,103,o),
(154,150,cs),
(154,198,o),
(187,231,o),
(262,231,cs),
(334,231,o),
(376,200,o),
(376,150,cs),
(376,100,o),
(334,65,o),
(262,65,cs)
);
},
{
closed = 1;
nodes = (
(175,353,l),
(172,404,o),
(220,430,o),
(274,430,cs),
(340,430,o),
(376,401,o),
(376,338,cs),
(376,100,l),
(388,100,l),
(388,0,l),
(486,0,l),
(486,337,ls),
(486,474,o),
(379,520,o),
(270,520,cs),
(167,520,o),
(61,467,o),
(66,353,c)
);
}
);
};
layerId = m002;
shapes = (
{
closed = 1;
nodes = (
(363,-20,o),
(422,40,o),
(422,150,cs),
(422,260,o),
(363,316,o),
(249,316,cs),
(112,316,o),
(42,239,o),
(42,150,cs),
(42,63,o),
(112,-20,o),
(249,-20,cs)
);
},
{
closed = 1;
nodes = (
(187,65,o),
(154,103,o),
(154,150,cs),
(154,198,o),
(187,231,o),
(262,231,cs),
(334,231,o),
(376,200,o),
(376,150,cs),
(376,100,o),
(334,65,o),
(262,65,cs)
);
},
{
closed = 1;
nodes = (
(175,353,l),
(172,404,o),
(220,430,o),
(274,430,cs),
(340,430,o),
(376,401,o),
(376,338,cs),
(376,100,l),
(388,100,l),
(388,0,l),
(486,0,l),
(486,337,ls),
(486,474,o),
(379,520,o),
(270,520,cs),
(167,520,o),
(61,467,o),
(66,353,c)
);
}
);
width = 546;
},
{
associatedMasterId = m002;
background = {
guides = (
{
angle = 90;
pos = (236,145);
},
{
angle = 90;
pos = (121,145);
}
);
shapes = (
{
closed = 1;
nodes = (
(240,330,o),
(100,270,o),
(100,155,cs),
(100,40,o),
(240,-20,o),
(450,-20,cs),
(660,-20,o),
(800,40,o),
(800,155,cs),
(800,270,o),
(660,330,o),
(450,330,cs)
);
},
{
closed = 1;
nodes = (
(315,65,o),
(210,100,o),
(210,155,cs),
(210,210,o),
(315,245,o),
(485,245,cs),
(655,245,o),
(760,210,o),
(760,155,cs),
(760,100,o),
(655,65,o),
(485,65,cs)
);
},
{
closed = 1;
nodes = (
(360,520,o),
(206,465,o),
(151,345,c),
(246,345,l),
(302,405,o),
(407,435,o),
(505,435,cs),
(649,435,o),
(760,397,o),
(760,271,cs),
(760,0,l),
(870,0,l),
(870,290,ls),
(870,456,o),
(717,520,o),
(515,520,cs)
);
}
);
};
layerId = "E6240289-E21C-4791-BBD0-0CC93FABAFC4";
name = ALE;
shapes = (
{
closed = 1;
nodes = (
(240,330,o),
(100,270,o),
(100,155,cs),
(100,40,o),
(240,-20,o),
(450,-20,cs),
(660,-20,o),
(800,40,o),
(800,155,cs),
(800,270,o),
(660,330,o),
(450,330,cs)
);
},
{
closed = 1;
nodes = (
(315,65,o),
(210,100,o),
(210,155,cs),
(210,210,o),
(315,245,o),
(485,245,cs),
(655,245,o),
(760,210,o),
(760,155,cs),
(760,100,o),
(655,65,o),
(485,65,cs)
);
},
{
closed = 1;
nodes = (
(360,520,o),
(206,465,o),
(151,345,c),
(246,345,l),
(302,405,o),
(407,435,o),
(505,435,cs),
(649,435,o),
(760,397,o),
(760,271,cs),
(760,0,l),
(870,0,l),
(870,290,ls),
(870,456,o),
(717,520,o),
(515,520,cs)
);
}
);
width = 970;
}
);
unicode = 97;
},
{
glyphname = ae;
kernLeft = a;
kernRight = a;
lastChange = "2024-09-25 01:43:43 +0000";
layers = (
{
layerId = "9AADC1C9-C373-4903-A2C4-BDDDC6C38F92";
shapes = (
{
closed = 1;
nodes = (
(806,100,l),
(806,280,ls),
(806,448,o),
(626,521,o),
(444,521,cs),
(272,521,o),
(103,456,o),
(100,345,c),
(219,345,l),
(225,401,o),
(331,438,o),
(442,438,cs),
(569,438,o),
(702,390,o),
(702,270,cs),
(702,100,l)
);
},
{
closed = 1;
nodes = (
(602,-20,o),
(792,40,o),
(792,150,cs),
(792,151,o),
(792,152,o),
(792,152,cs),
(789,261,o),
(601,316,o),
(392,316,cs),
(139,316,o),
(42,239,o),
(42,150,cs),
(42,63,o),
(139,-20,o),
(392,-20,cs)
);
},
{
closed = 1;
nodes = (
(235,61,o),
(154,105,o),
(154,150,cs),
(154,196,o),
(234,235,o),
(427,235,cs),
(597,235,o),
(702,200,o),
(702,150,cs),
(702,100,o),
(597,61,o),
(427,61,cs)
);
},
{
pos = (661,0);
ref = e;
}
);
width = 1511;
},
{
layerId = m002;
shapes = (
{
closed = 1;
nodes = (
(458,100,l),
(458,337,ls),
(458,470,o),
(366,520,o),
(262,520,cs),
(164,520,o),
(61,467,o),
(63,353,c),
(174,353,l),
(174,413,o),
(218,430,o),
(267,430,cs),
(318,430,o),
(366,404,o),
(366,335,cs),
(366,100,l)
);
},
{
closed = 1;
nodes = (
(350,-20,o),
(438,36,o),
(442,140,cs),
(442,143,o),
(412,147,o),
(412,150,cs),
(412,260,o),
(353,316,o),
(244,316,cs),
(112,316,o),
(42,239,o),
(42,150,cs),
(42,63,o),
(112,-20,o),
(244,-20,cs)
);
},
{
closed = 1;
nodes = (
(187,65,o),
(154,103,o),
(154,150,cs),
(154,198,o),
(187,231,o),
(257,231,cs),
(324,231,o),
(366,200,o),
(366,150,cs),
(366,100,o),
(324,65,o),
(257,65,cs)
);
},
{
pos = (320,0);
ref = e;
}
);
width = 877;
}
);
metricLeft = a;
metricRight = e;
unicode = 230;
},
{
glyphname = b;
kernRight = o;
lastChange = "2024-09-25 03:41:07 +0000";
layers = (
{
anchors = (
{
name = bottom;
pos = (439,0);
},
{
name = center;
pos = (439,250);
},
{
name = top;
pos = (439,500);
}
);
background = {
anchors = (
{
name = bottom;
pos = (439,0);
},
{
name = center;
pos = (439,250);
},
{
name = top;
pos = (439,500);
}
);
shapes = (
{
pos = (878,0);
ref = d;
scale = (-1,1);
}
);
};
layerId = "9AADC1C9-C373-4903-A2C4-BDDDC6C38F92";
shapes = (
{
pos = (868,0);
ref = d;
scale = (-1,1);
}
);
width = 868;
},
{
associatedMasterId = "9AADC1C9-C373-4903-A2C4-BDDDC6C38F92";
background = {
shapes = (
{
closed = 1;
nodes = (
(210,750,l),
(100,750,l),
(100,0,l),
(210,0,l)
);
},
{
closed = 1;
nodes = (
(170,80,o),
(320,-20,o),
(520,-20,cs),
(720,-20,o),
(870,80,o),
(870,250,cs),
(870,420,o),
(720,520,o),
(520,520,cs),
(320,520,o),
(170,420,o),
(170,250,cs)
);
},
{
closed = 1;
nodes = (
(210,360,o),
(320,435,o),
(485,435,cs),
(650,435,o),
(760,360,o),
(760,250,cs),
(760,140,o),
(650,65,o),
(485,65,cs),
(320,65,o),
(210,140,o),
(210,250,cs)
);
}
);
};
layerId = "FC28553D-BADE-4776-8411-07D19693911F";
name = ALE;
shapes = (
{
closed = 1;
nodes = (
(100,0,l),
(200,0,l),
(200,148,l),
(210,148,l),
(210,750,l),
(100,750,l)
);
},
{
closed = 1;
nodes = (
(307,520,o),
(139,430,o),
(139,250,cs),
(139,70,o),
(307,-20,o),
(502,-20,cs),
(700,-20,o),
(868,70,o),
(868,250,cs),
(868,430,o),
(700,520,o),
(502,520,cs)
);
},
{
closed = 1;
nodes = (
(333,65,o),
(210,135,o),
(210,250,cs),
(210,365,o),
(333,435,o),
(480,435,cs),
(630,435,o),
(753,365,o),
(753,250,cs),
(753,135,o),
(630,65,o),
(480,65,cs)
);
}
);
width = 906;
},
{
anchors = (
{
name = bottom;
pos = (294,0);
},
{
name = center;
pos = (294,250);
},
{
name = top;
pos = (300,500);
}
);
layerId = m002;
shapes = (
{
pos = (587,0);
ref = d;
scale = (-1,1);
}
);
width = 587;
},
{
associatedMasterId = m002;
background = {
shapes = (
{
closed = 1;
nodes = (
(210,750,l),
(100,750,l),
(100,0,l),
(210,0,l)
);
},
{
closed = 1;
nodes = (
(170,80,o),
(320,-20,o),
(520,-20,cs),
(720,-20,o),
(870,80,o),
(870,250,cs),
(870,420,o),
(720,520,o),
(520,520,cs),
(320,520,o),
(170,420,o),
(170,250,cs)
);
},
{
closed = 1;
nodes = (
(210,360,o),
(320,435,o),
(485,435,cs),
(650,435,o),
(760,360,o),
(760,250,cs),
(760,140,o),
(650,65,o),
(485,65,cs),
(320,65,o),
(210,140,o),
(210,250,cs)
);
}
);
};
layerId = "5F54F4BE-AEFE-48DE-94B3-F64A428E5269";
name = ALE;
shapes = (
{
closed = 1;
nodes = (
(100,0,l),
(200,0,l),
(200,148,l),
(210,148,l),
(210,750,l),
(100,750,l)
);
},
{
closed = 1;
nodes = (
(307,520,o),
(139,430,o),
(139,250,cs),
(139,70,o),
(307,-20,o),
(502,-20,cs),
(700,-20,o),
(868,70,o),
(868,250,cs),
(868,430,o),
(700,520,o),
(502,520,cs)
);
},
{
closed = 1;
nodes = (
(333,65,o),
(210,135,o),
(210,250,cs),
(210,365,o),
(333,435,o),
(480,435,cs),
(630,435,o),
(753,365,o),
(753,250,cs),
(753,135,o),
(630,65,o),
(480,65,cs)
);
}
);
width = 906;
}
);
metricRight = o;
unicode = 98;
},
{
glyphname = c;
kernLeft = o;
kernRight = o;
lastChange = "2024-07-10 22:44:54 +0000";
layers = (
{
anchors = (
{
name = bottom;
pos = (431,0);
},
{
name = top;
pos = (431,500);
}
);
background = {
shapes = (
{
closed = 1;
nodes = (
(220,520,o),
(42,430,o),
(42,250,cs),
(42,70,o),
(220,-20,o),
(440,-20,cs),
(660,-20,o),
(838,70,o),
(838,250,cs),
(838,430,o),
(660,520,o),
(440,520,cs)
);
},
{
closed = 1;
nodes = (
(280,65,o),
(157,135,o),
(157,250,cs),
(157,365,o),
(280,435,o),
(440,435,cs),
(600,435,o),
(723,365,o),
(723,250,cs),
(723,135,o),
(600,65,o),
(440,65,cs)
);
}
);
};
guides = (
{
pos = (723,190);
},
{
pos = (723,310);
}
);
layerId = "9AADC1C9-C373-4903-A2C4-BDDDC6C38F92";
shapes = (
{
closed = 1;
nodes = (
(630,-20,o),
(804,58,o),
(806,190,c),
(696,190,l),
(689,120,o),
(560,65,o),
(432,65,cs),
(277,65,o),
(154,135,o),
(154,250,cs),
(154,365,o),
(277,435,o),
(432,435,cs),
(560,435,o),
(688,379,o),
(696,310,c),
(806,310,l),
(805,441,o),
(631,520,o),
(432,520,cs),
(220,520,o),
(42,430,o),
(42,250,cs),
(42,70,o),
(220,-20,o),
(432,-20,cs)
);
}
);
width = 848;
},
{
associatedMasterId = "9AADC1C9-C373-4903-A2C4-BDDDC6C38F92";
background = {
shapes = (
{
closed = 1;
nodes = (
(278,520,o),
(100,430,o),
(100,250,cs),
(100,70,o),
(278,-20,o),
(498,-20,cs),
(718,-20,o),
(896,70,o),
(896,250,cs),
(896,430,o),
(718,520,o),
(498,520,cs)
);
},
{
closed = 1;
nodes = (
(338,65,o),
(215,135,o),
(215,250,cs),
(215,365,o),
(338,435,o),
(498,435,cs),
(658,435,o),
(781,365,o),
(781,250,cs),
(781,135,o),
(658,65,o),
(498,65,cs)
);
}
);
};
layerId = "7DDB2ADB-6D5E-44FC-AF8A-6782F0D9E9DB";
name = ALE;
shapes = (
{
closed = 1;
nodes = (
(268,520,o),
(100,420,o),
(100,250,cs),
(100,80,o),
(268,-20,o),
(491,-20,cs),
(646,-20,o),
(800,35,o),
(855,155,c),
(760,155,l),
(704,95,o),
(596,65,o),
(496,65,cs),
(346,65,o),
(215,128,o),
(215,250,cs),
(215,372,o),
(346,435,o),
(496,435,cs),
(596,435,o),
(704,405,o),
(760,345,c),
(855,345,l),
(800,465,o),
(646,520,o),
(491,520,cs)
);
}
);
width = 955;
},
{
anchors = (
{
name = bottom;
pos = (286,0);
},
{
name = top;
pos = (286,500);
}
);
background = {
shapes = (
{
closed = 1;
nodes = (
(240,-20,o),
(194,-10,o),
(159,12,c),
(122,33,o),
(93,67,o),
(72,106,c),
(52,146,o),
(42,194,o),
(42,250,c),
(42,250,l),
(42,305,o),
(52,353,o),
(74,394,c),
(94,433,o),
(122,464,o),
(159,487,c),
(196,509,o),
(240,520,o),
(288,520,c),
(332,520,o),
(372,510,o),
(404,493,c),
(435,477,o),
(461,455,o),
(479,426,c),
(497,399,o),
(510,368,o),
(513,335,c),
(513,332,l),
(411,332,l),
(409,336,l),
(404,362,o),
(392,384,o),
(372,402,c),
(350,420,o),
(323,429,o),
(288,429,c),
(262,429,o),
(238,423,o),
(217,408,c),
(196,394,o),
(180,373,o),
(168,344,c),
(157,319,o),
(152,285,o),
(152,250,c),
(152,250,l),
(152,211,o),
(157,179,o),
(168,151,c),
(180,125,o),
(196,104,o),
(219,92,c),
(238,77,o),
(262,71,o),
(290,71,c),
(322,71,o),
(349,79,o),
(371,96,c),
(390,113,o),
(403,135,o),
(409,163,c),
(411,166,l),
(513,166,l),
(513,163,l),
(510,129,o),
(497,98,o),
(477,71,c),
(458,41,o),
(432,20,o),
(400,4,c),
(369,-12,o),
(330,-20,o),
(290,-20,c)
);
}
);
};
guides = (
{
pos = (723,190);
},
{
pos = (723,310);
}
);
layerId = m002;
shapes = (
{
closed = 1;
nodes = (
(423,-20,o),
(513,58,o),
(515,190,c),
(414,190,l),
(411,100,o),
(354,71,o),
(286,71,cs),
(214,71,o),
(152,124,o),
(152,250,cs),
(152,365,o),
(211,429,o),
(286,429,cs),
(354,429,o),
(411,399,o),
(414,310,c),
(515,310,l),
(514,431,o),
(436,520,o),
(286,520,cs),
(150,520,o),
(42,420,o),
(42,250,cs),
(42,70,o),
(152,-20,o),
(284,-20,cs)
);
}
);
width = 557;
},
{
associatedMasterId = m002;
background = {
shapes = (
{
closed = 1;
nodes = (
(278,520,o),
(100,430,o),
(100,250,cs),
(100,70,o),
(278,-20,o),
(498,-20,cs),
(718,-20,o),
(896,70,o),
(896,250,cs),
(896,430,o),
(718,520,o),
(498,520,cs)
);
},
{
closed = 1;
nodes = (
(338,65,o),
(215,135,o),
(215,250,cs),
(215,365,o),
(338,435,o),
(498,435,cs),
(658,435,o),
(781,365,o),
(781,250,cs),
(781,135,o),
(658,65,o),
(498,65,cs)
);
}
);
};
layerId = "6ECF0D0C-FEEE-4E12-AD1C-DF77A7E05505";
name = ALE;
shapes = (
{
closed = 1;
nodes = (
(268,520,o),
(100,420,o),
(100,250,cs),
(100,80,o),
(268,-20,o),
(491,-20,cs),
(646,-20,o),
(800,35,o),
(855,155,c),
(760,155,l),
(704,95,o),
(596,65,o),
(496,65,cs),
(346,65,o),
(215,128,o),
(215,250,cs),
(215,372,o),
(346,435,o),
(496,435,cs),
(596,435,o),
(704,405,o),
(760,345,c),
(855,345,l),
(800,465,o),
(646,520,o),
(491,520,cs)
);
}
);
width = 955;
}
);
metricLeft = o;
metricRight = "=|";
unicode = 99;
},
{
glyphname = d;
kernLeft = o;
lastChange = "2024-09-25 03:33:54 +0000";
layers = (
{
associatedMasterId = "9AADC1C9-C373-4903-A2C4-BDDDC6C38F92";
layerId = "4D2F3F3A-9200-4BB7-8E26-4459EEA35852";
name = ALE;
shapes = (
{
closed = 1;
nodes = (
(870,0,l),
(870,750,l),
(760,750,l),
(760,0,l)
);
},
{
closed = 1;
nodes = (
(800,420,o),
(650,520,o),
(450,520,cs),
(250,520,o),
(100,420,o),
(100,250,cs),
(100,80,o),
(250,-20,o),
(450,-20,cs),
(650,-20,o),
(800,80,o),
(800,250,cs)
);
},
{
closed = 1;
nodes = (
(760,140,o),
(650,65,o),
(485,65,cs),
(320,65,o),
(210,140,o),
(210,250,cs),
(210,360,o),
(320,435,o),
(485,435,cs),
(650,435,o),
(760,360,o),
(760,250,cs)
);
}
);
width = 970;
},
{
anchors = (
{
name = bottom;
pos = (439,0);
},
{
name = center;
pos = (439,250);
},
{
name = top;
pos = (439,700);
},
{
name = topright;
pos = (858,700);
}
);
background = {
shapes = (
{
closed = 1;
nodes = (
(210,520,o),
(42,430,o),
(42,250,cs),
(42,70,o),
(210,-20,o),
(408,-20,cs),
(603,-20,o),
(771,70,o),
(771,250,cs),
(771,430,o),
(603,520,o),
(408,520,cs)
);
},
{
closed = 1;
nodes = (
(280,65,o),
(157,135,o),
(157,250,cs),
(157,365,o),
(280,435,o),
(430,435,cs),
(577,435,o),
(700,365,o),
(700,250,cs),
(700,135,o),
(577,65,o),
(430,65,cs)
);
}
);
};
hints = (
{
horizontal = 1;
options = 4;
origin = (0,0);
target = (0,1);
type = TTShift;
},
{
horizontal = 1;
options = 4;
origin = (0,0);
target = (0,2);
type = TTShift;
},
{
horizontal = 1;
options = 4;
origin = (0,0);
target = (0,3);
type = TTShift;
},
{
horizontal = 1;
options = 4;
origin = (0,0);
target = (0,4);
type = TTShift;
},
{
horizontal = 1;
options = 4;
origin = (0,0);
target = (0,5);
type = TTShift;
},
{
horizontal = 1;
options = 4;
origin = (0,0);
target = (0,6);
type = TTShift;
},
{
horizontal = 1;
options = 4;
origin = (0,0);
target = (0,7);
type = TTShift;
},
{
horizontal = 1;
options = 4;
origin = (0,0);
target = (0,8);
type = TTShift;
},
{
horizontal = 1;
options = 4;
origin = (0,0);
target = (0,9);
type = TTShift;
},
{
horizontal = 1;
options = 4;
origin = (0,0);
target = (0,10);
type = TTShift;
},
{
horizontal = 1;
options = 4;
origin = (0,0);
target = (0,11);
type = TTShift;
},
{
horizontal = 1;
options = 4;
origin = (0,0);
target = (1,0);
type = TTShift;
},
{
horizontal = 1;
options = 4;
origin = (0,0);
target = (1,1);
type = TTShift;
},
{
horizontal = 1;
options = 4;
origin = (0,0);
target = (1,2);
type = TTShift;
},
{
horizontal = 1;
options = 4;
origin = (0,0);
target = (1,3);
type = TTShift;
},
{
horizontal = 1;
options = 4;
origin = (0,0);
target = (1,4);
type = TTShift;
},
{
horizontal = 1;
options = 4;
origin = (0,0);
target = (1,5);
type = TTShift;
},
{
horizontal = 1;
options = 4;
origin = (0,0);
target = (1,6);
type = TTShift;
},
{
horizontal = 1;
options = 4;
origin = (0,0);
target = (1,7);
type = TTShift;
},
{
horizontal = 1;
options = 4;
origin = (0,0);
target = (1,8);
type = TTShift;
},
{
horizontal = 1;
options = 4;
origin = (0,0);
target = (1,9);
type = TTShift;
},
{
horizontal = 1;
options = 4;
origin = (0,0);
target = (1,10);
type = TTShift;
},
{
horizontal = 1;
options = 4;
origin = (0,0);
target = (1,11);
type = TTShift;
},
{
horizontal = 1;
options = 4;
origin = (0,0);
target = (2,0);
type = TTShift;
},
{
horizontal = 1;
options = 4;
origin = (0,0);
target = (2,1);
type = TTShift;
},
{
horizontal = 1;
options = 4;
origin = (0,0);
target = (2,2);
type = TTShift;
},
{
horizontal = 1;
options = 4;
origin = (0,0);
target = (2,3);
type = TTShift;
},
{
horizontal = 1;
options = 4;
origin = (0,0);
target = (2,4);
type = TTShift;
},
{
horizontal = 1;
options = 4;
origin = (0,0);
target = (2,5);
type = TTShift;
}
);
layerId = "9AADC1C9-C373-4903-A2C4-BDDDC6C38F92";
shapes = (
{
closed = 1;
nodes = (
(603,-20,o),
(771,70,o),
(771,250,cs),
(771,430,o),
(603,520,o),
(408,520,cs),
(210,520,o),
(42,430,o),
(42,250,cs),
(42,70,o),
(210,-20,o),
(408,-20,cs)
);
},
{
closed = 1;
nodes = (
(277,65,o),
(154,135,o),
(154,250,cs),
(154,365,o),
(277,435,o),
(430,435,cs),
(577,435,o),
(700,365,o),
(700,250,cs),
(700,135,o),
(577,65,o),
(430,65,cs)
);
},
{
closed = 1;
nodes = (
(810,0,l),
(810,700,l),
(700,700,l),
(700,148,l),
(710,148,l),
(710,0,l)
);
}
);
width = 868;
},
{
associatedMasterId = m002;
layerId = "B7553236-F03B-449C-A92E-E948D59B6362";
name = ALE;
shapes = (
{
closed = 1;
nodes = (
(870,0,l),
(870,750,l),
(760,750,l),
(760,0,l)
);
},
{
closed = 1;
nodes = (
(800,420,o),
(650,520,o),
(450,520,cs),
(250,520,o),
(100,420,o),
(100,250,cs),
(100,80,o),
(250,-20,o),
(450,-20,cs),
(650,-20,o),
(800,80,o),
(800,250,cs)
);
},
{
closed = 1;
nodes = (
(760,140,o),
(650,65,o),
(485,65,cs),
(320,65,o),
(210,140,o),
(210,250,cs),
(210,360,o),
(320,435,o),
(485,435,cs),
(650,435,o),
(760,360,o),
(760,250,cs)
);
}
);
width = 970;
},
{
anchors = (
{
name = bottom;
pos = (290,0);
},
{
name = center;
pos = (290,250);
},
{
name = top;
pos = (290,700);
},
{
name = topright;
pos = (541,700);
}
);
background = {
anchors = (
{
name = bottom;
pos = (290,0);
},
{
name = center;
pos = (290,250);
},
{
name = top;
pos = (290,700);
},
{
name = topright;
pos = (541,700);
}
);
shapes = (
{
closed = 1;
nodes = (
(388,-20,o),
(490,70,o),
(490,250,cs),
(490,440,o),
(388,520,o),
(269,520,cs),
(144,520,o),
(42,440,o),
(42,250,cs),
(42,70,o),
(144,-20,o),
(269,-20,cs)
);
},
{
closed = 1;
nodes = (
(214,71,o),
(154,125,o),
(154,250,cs),
(154,375,o),
(214,430,o),
(288,430,cs),
(359,430,o),
(419,375,o),
(419,250,cs),
(419,125,o),
(359,71,o),
(288,71,cs)
);
},
{
closed = 1;
nodes = (
(529,0,l),
(529,700,l),
(419,700,l),
(419,148,l),
(429,148,l),
(429,0,l)
);
}
);
};
guides = (
{
pos = (230,430);
},
{
pos = (230,70);
}
);
hints = (
{
horizontal = 1;
options = 4;
origin = (0,0);
target = (0,1);
type = TTShift;
},
{
horizontal = 1;
options = 4;
origin = (0,0);
target = (0,2);
type = TTShift;
},
{
horizontal = 1;
options = 4;
origin = (0,0);
target = (0,3);
type = TTShift;
},
{
horizontal = 1;
options = 4;
origin = (0,0);
target = (0,4);
type = TTShift;
},
{
horizontal = 1;
options = 4;
origin = (0,0);
target = (0,5);
type = TTShift;
},
{
horizontal = 1;
options = 4;
origin = (0,0);
target = (0,6);
type = TTShift;
},
{
horizontal = 1;
options = 4;
origin = (0,0);
target = (0,7);
type = TTShift;
},
{
horizontal = 1;
options = 4;
origin = (0,0);
target = (0,8);
type = TTShift;
},
{
horizontal = 1;
options = 4;
origin = (0,0);
target = (0,9);
type = TTShift;
},
{
horizontal = 1;
options = 4;
origin = (0,0);
target = (0,10);
type = TTShift;
},
{
horizontal = 1;
options = 4;
origin = (0,0);
target = (0,11);
type = TTShift;
},
{
horizontal = 1;
options = 4;
origin = (0,0);
target = (1,0);
type = TTShift;
},
{
horizontal = 1;
options = 4;
origin = (0,0);
target = (1,1);
type = TTShift;
},
{
horizontal = 1;
options = 4;
origin = (0,0);
target = (1,2);
type = TTShift;
},
{
horizontal = 1;
options = 4;
origin = (0,0);
target = (1,3);
type = TTShift;
},
{
horizontal = 1;
options = 4;
origin = (0,0);
target = (1,4);
type = TTShift;
},
{
horizontal = 1;
options = 4;
origin = (0,0);
target = (1,5);
type = TTShift;
},
{
horizontal = 1;
options = 4;
origin = (0,0);
target = (1,6);
type = TTShift;
},
{
horizontal = 1;
options = 4;
origin = (0,0);
target = (1,7);
type = TTShift;
},
{
horizontal = 1;
options = 4;
origin = (0,0);
target = (1,8);
type = TTShift;
},
{
horizontal = 1;
options = 4;
origin = (0,0);
target = (1,9);
type = TTShift;
},
{
horizontal = 1;
options = 4;
origin = (0,0);
target = (1,10);
type = TTShift;
},
{
horizontal = 1;
options = 4;
origin = (0,0);
target = (1,11);
type = TTShift;
},
{
horizontal = 1;
options = 4;
origin = (0,0);
target = (2,0);
type = TTShift;
},
{
horizontal = 1;
options = 4;
origin = (0,0);
target = (2,1);
type = TTShift;
},
{
horizontal = 1;
options = 4;
origin = (0,0);
target = (2,2);
type = TTShift;
},
{
horizontal = 1;
options = 4;
origin = (0,0);
target = (2,3);
type = TTShift;
},
{
horizontal = 1;
options = 4;
origin = (0,0);
target = (2,4);
type = TTShift;
},
{
horizontal = 1;
options = 4;
origin = (0,0);
target = (2,5);
type = TTShift;
}
);
layerId = m002;
shapes = (
{
closed = 1;
nodes = (
(388,-20,o),
(490,70,o),
(490,250,cs),
(490,440,o),
(388,520,o),
(269,520,cs),
(144,520,o),
(42,440,o),
(42,250,cs),
(42,70,o),
(144,-20,o),
(269,-20,cs)
);
},
{
closed = 1;
nodes = (
(214,70,o),
(154,124,o),
(154,250,cs),
(154,375,o),
(214,430,o),
(288,430,cs),
(359,430,o),
(419,375,o),
(419,250,cs),
(419,125,o),
(359,70,o),
(288,70,cs)
);
},
{
closed = 1;
nodes = (
(529,0,l),
(529,700,l),
(419,700,l),
(419,148,l),
(429,148,l),
(429,0,l)
);
}
);
width = 587;
}
);
metricLeft = o;
unicode = 100;
},
{
glyphname = dcroat;
kernLeft = o;
lastChange = "2024-09-19 05:18:10 +0000";
layers = (
{
layerId = "9AADC1C9-C373-4903-A2C4-BDDDC6C38F92";
shapes = (
{
closed = 1;
nodes = (
(876,561,l),
(876,640,l),
(562,640,l),
(562,561,l)
);
},
{
ref = d;
}
);
width = 878;
},
{
layerId = m002;
shapes = (
{
closed = 1;
nodes = (
(606,571,l),
(606,643,l),
(292,643,l),
(292,571,l)
);
},
{
ref = d;
}
);
width = 644;
}
);
unicode = 273;
},
{
glyphname = e;
kernLeft = o;
kernRight = o;
lastChange = "2024-09-25 03:40:01 +0000";
layers = (
{
anchors = (
{
name = bottom;
pos = (425,0);
},
{
name = ogonek;
pos = (594,0);
},
{
name = top;
pos = (432,500);
}
);
background = {
shapes = (
{
closed = 1;
nodes = (
(630,-20,o),
(804,58,o),
(806,190,c),
(696,190,l),
(689,120,o),
(560,65,o),
(432,65,cs),
(277,65,o),
(154,135,o),
(154,250,cs),
(154,365,o),
(277,435,o),
(432,435,cs),
(560,435,o),
(688,379,o),
(696,310,c),
(806,310,l),
(805,441,o),
(631,520,o),
(432,520,cs),
(220,520,o),
(42,430,o),
(42,250,cs),
(42,70,o),
(220,-20,o),
(432,-20,cs)
);
},
{
closed = 0;
nodes = (
(806,224,l),
(830,416,o),
(673,520,o),
(432,520,cs),
(220,520,o),
(42,430,o),
(42,250,cs),
(42,70,o),
(220,-20,o),
(432,-20,cs),
(650,-20,o),
(801,64,o),
(803,165,c),
(696,165,l),
(693,110,o),
(580,62,o),
(432,62,cs),
(271,62,o),
(136,137,o),
(145,262,c),
(110,224,l),
(806,224,l)
);
}
);
};
layerId = "9AADC1C9-C373-4903-A2C4-BDDDC6C38F92";
shapes = (
{
closed = 1;
nodes = (
(630,-20,o),
(810,58,o),
(806,180,c),
(699,180,l),
(698,110,o),
(560,65,o),
(432,65,cs),
(271,65,o),
(147,137,o),
(150,255,c),
(102,225,l),
(806,225,l),
(844,427,o),
(649,520,o),
(432,520,cs),
(220,520,o),
(42,430,o),
(42,250,cs),
(42,70,o),
(220,-20,o),
(432,-20,cs)
);
},
{
closed = 1;
nodes = (
(167,381,o),
(284,439,o),
(432,439,cs),
(584,439,o),
(700,391,o),
(705,303,c),
(109,303,l),
(152,274,l)
);
}
);
width = 853;
},
{
associatedMasterId = "9AADC1C9-C373-4903-A2C4-BDDDC6C38F92";
background = {
shapes = (
{
closed = 1;
nodes = (
(278,520,o),
(100,430,o),
(100,250,cs),
(100,70,o),
(278,-20,o),
(498,-20,cs),
(718,-20,o),
(896,70,o),
(896,250,cs),
(896,430,o),
(718,520,o),
(498,520,cs)
);
},
{
closed = 1;
nodes = (
(338,65,o),
(215,135,o),
(215,250,cs),
(215,365,o),
(338,435,o),
(498,435,cs),
(658,435,o),
(781,365,o),
(781,250,cs),
(781,135,o),
(658,65,o),
(498,65,cs)
);
}
);
};
layerId = "49E47BB3-203D-4F21-B2EA-03D9321F97BB";
name = ALE;
shapes = (
{
closed = 1;
nodes = (
(866,205,l),
(846,285,l),
(137,285,l),
(137,205,l)
);
},
{
closed = 1;
nodes = (
(268,520,o),
(100,420,o),
(100,250,cs),
(100,80,o),
(268,-20,o),
(491,-20,cs),
(646,-20,o),
(800,35,o),
(855,155,c),
(760,155,l),
(705,95,o),
(597,65,o),
(496,65,cs),
(346,65,o),
(215,128,o),
(215,250,cs),
(215,375,o),
(350,435,o),
(500,435,cs),
(650,435,o),
(785,375,o),
(785,250,c),
(866,205,l),
(881,384,o),
(751,520,o),
(491,520,cs)
);
}
);
width = 967;
},
{
anchors = (
{
name = bottom;
pos = (279,0);
},
{
name = ogonek;
pos = (372,-7);
},
{
name = top;
pos = (286,500);
}
);
background = {
shapes = (
{
closed = 1;
nodes = (
(427,-20,o),
(509,56,o),
(511,163,c),
(410,163,l),
(407,98,o),
(359,71,o),
(286,71,cs),
(214,71,o),
(152,124,o),
(152,250,cs),
(152,365,o),
(211,429,o),
(286,429,cs),
(353,429,o),
(417,400,o),
(415,303,c),
(108,303,l),
(108,224,l),
(512,224,l),
(532,423,o),
(448,520,o),
(286,520,cs),
(150,520,o),
(42,420,o),
(42,250,cs),
(42,70,o),
(152,-20,o),
(284,-20,cs)
);
}
);
};
guides = (
{
angle = 180;
pos = (604,165);
},
{
angle = 180;
pos = (604,225);
},
{
angle = 180;
pos = (604,303);
}
);
layerId = m002;
shapes = (
{
closed = 1;
nodes = (
(427,-20,o),
(509,56,o),
(511,165,c),
(410,165,l),
(407,93,o),
(350,71,o),
(289,71,cs),
(218,71,o),
(142,121,o),
(153,281,c),
(103,225,l),
(512,225,l),
(532,424,o),
(448,520,o),
(286,520,cs),
(150,520,o),
(42,420,o),
(42,250,cs),
(42,70,o),
(152,-20,o),
(284,-20,cs)
);
},
{
closed = 1;
nodes = (
(152,388,o),
(226,429,o),
(296,429,cs),
(358,429,o),
(417,391,o),
(415,303,c),
(106,303,l),
(152,251,l)
);
}
);
width = 557;
},
{
associatedMasterId = m002;
background = {
shapes = (
{
closed = 1;
nodes = (
(278,520,o),
(100,430,o),
(100,250,cs),
(100,70,o),
(278,-20,o),
(498,-20,cs),
(718,-20,o),
(896,70,o),
(896,250,cs),
(896,430,o),
(718,520,o),
(498,520,cs)
);
},
{
closed = 1;
nodes = (
(338,65,o),
(215,135,o),
(215,250,cs),
(215,365,o),
(338,435,o),
(498,435,cs),
(658,435,o),
(781,365,o),
(781,250,cs),
(781,135,o),
(658,65,o),
(498,65,cs)
);
}
);
};
layerId = "5F685216-538F-4477-A37A-DFAF772B46AF";
name = ALE;
shapes = (
{
closed = 1;
nodes = (
(866,205,l),
(846,285,l),
(137,285,l),
(137,205,l)
);
},
{
closed = 1;
nodes = (
(268,520,o),
(100,420,o),
(100,250,cs),
(100,80,o),
(268,-20,o),
(491,-20,cs),
(646,-20,o),
(800,35,o),
(855,155,c),
(760,155,l),
(705,95,o),
(597,65,o),
(496,65,cs),
(346,65,o),
(215,128,o),
(215,250,cs),
(215,375,o),
(350,435,o),
(500,435,cs),
(650,435,o),
(785,375,o),
(785,250,c),
(866,205,l),
(881,384,o),
(751,520,o),
(491,520,cs)
);
}
);
width = 967;
},
{
anchors = (
{
name = bottom;
pos = (425,0);
},
{
name = ogonek;
pos = (594,0);
},
{
name = top;
pos = (432,500);
}
);
associatedMasterId = "9AADC1C9-C373-4903-A2C4-BDDDC6C38F92";
background = {
shapes = (
{
closed = 1;
nodes = (
(650,-20,o),
(801,64,o),
(803,165,c),
(696,165,l),
(693,110,o),
(580,62,o),
(432,62,cs),
(271,62,o),
(136,137,o),
(145,262,c),
(110,224,l),
(806,224,l),
(830,416,o),
(673,520,o),
(432,520,cs),
(220,520,o),
(42,430,o),
(42,250,cs),
(42,70,o),
(220,-20,o),
(432,-20,cs)
);
},
{
closed = 1;
nodes = (
(166,394,o),
(298,440,o),
(430,440,cs),
(568,440,o),
(701,393,o),
(714,303,c),
(123,303,l),
(149,291,l)
);
}
);
};
layerId = "CD503E96-9768-4D15-8D56-813C2A28EC46";
name = "24 Sep 24 at 22:34";
shapes = (
{
closed = 1;
nodes = (
(650,-20,o),
(801,64,o),
(803,165,c),
(696,165,l),
(693,110,o),
(580,62,o),
(432,62,cs),
(271,62,o),
(136,137,o),
(145,262,c),
(110,224,l),
(806,224,l),
(830,416,o),
(673,520,o),
(432,520,cs),
(220,520,o),
(42,430,o),
(42,250,cs),
(42,70,o),
(220,-20,o),
(432,-20,cs)
);
},
{
closed = 1;
nodes = (
(166,394,o),
(298,440,o),
(430,440,cs),
(568,440,o),
(701,393,o),
(714,303,c),
(123,303,l),
(149,291,l)
);
}
);
width = 850;
}
);
metricLeft = o;
metricRight = o;
unicode = 101;
},
{
glyphname = f;
kernLeft = f;
kernRight = f;
lastChange = "2024-09-25 02:59:14 +0000";
layers = (
{
anchors = (
{
name = bottom;
pos = (279,0);
},
{
name = top;
pos = (279,700);
}
);
layerId = "9AADC1C9-C373-4903-A2C4-BDDDC6C38F92";
name = Extended;
shapes = (
{
closed = 1;
nodes = (
(300,0,l),
(300,529,ls),
(300,606,o),
(367,635,o),
(430,635,cs),
(484,635,o),
(535,614,o),
(540,564,c),
(648,564,l),
(640,669,o),
(537,720,o),
(431,720,cs),
(315,720,o),
(195,658,o),
(195,518,cs),
(195,484,l),
(190,473,l),
(190,0,l)
);
},
{
closed = 1;
nodes = (
(576,418,l),
(576,500,l),
(-30,500,l),
(-30,418,l)
);
}
);
width = 598;
},
{
anchors = (
{
name = bottom;
pos = (190,0);
},
{
name = top;
pos = (190,700);
}
);
background = {
shapes = (
{
closed = 1;
nodes = (
(211,0,l),
(211,579,ls),
(211,614,o),
(229,622,o),
(248,622,cs),
(265,622,o),
(282,615,o),
(282,576,c),
(378,576,l),
(386,682,o),
(315,720,o),
(250,720,cs),
(179,720,o),
(106,683,o),
(106,579,cs),
(106,484,l),
(101,473,l),
(101,0,l)
);
},
{
closed = 1;
nodes = (
(373,418,l),
(373,500,l),
(0,500,l),
(0,418,l)
);
}
);
};
guides = (
{
pos = (588,564);
}
);
layerId = m002;
name = Extended;
shapes = (
{
closed = 1;
nodes = (
(211,0,l),
(211,559,ls),
(211,611,o),
(242,630,o),
(279,630,cs),
(313,630,o),
(342,608,o),
(342,564,c),
(438,564,l),
(445,675,o),
(371,720,o),
(280,720,cs),
(192,720,o),
(106,677,o),
(106,555,cs),
(106,484,l),
(101,473,l),
(101,0,l)
);
},
{
closed = 1;
nodes = (
(373,418,l),
(373,500,l),
(-20,500,l),
(-20,418,l)
);
}
);
width = 378;
}
);
unicode = 102;
},
{
glyphname = g;
kernLeft = g;
kernRight = g;
lastChange = "2024-10-23 17:31:43 +0000";
layers = (
{
anchors = (
{
name = bottom;
pos = (432,-200);
},
{
name = top;
pos = (432,607);
}
);
background = {
shapes = (
{
closed = 1;
nodes = (
(472,485,l),
(492,700,l),
(372,700,l),
(392,485,l)
);
},
{
closed = 1;
nodes = (
(282,90,o),
(210,110,o),
(210,140,cs),
(210,182,o),
(287,202,o),
(432,202,c),
(432,252,l),
(192,252,o),
(100,207,o),
(100,125,cs),
(100,89,o),
(125,59,o),
(182,39,c),
(75,15,o),
(42,-28,o),
(42,-80,cs),
(42,-160,o),
(122,-220,o),
(432,-220,cs),
(739,-220,o),
(822,-150,o),
(822,-65,cs),
(822,20,o),
(742,90,o),
(432,90,cs)
);
},
{
closed = 1;
nodes = (
(227,-140,o),
(152,-111,o),
(152,-65,cs),
(152,-19,o),
(227,10,o),
(432,10,cs),
(637,10,o),
(712,-19,o),
(712,-65,cs),
(712,-111,o),
(637,-140,o),
(432,-140,cs)
);
},
{
closed = 1;
nodes = (
(237,520,o),
(72,474,o),
(72,361,cs),
(72,248,o),
(232,202,o),
(432,202,cs),
(627,202,o),
(792,248,o),
(792,361,cs),
(792,474,o),
(627,520,o),
(432,520,cs)
);
},
{
closed = 1;
nodes = (
(262,282,o),
(182,317,o),
(182,361,cs),
(182,405,o),
(262,440,o),
(432,440,cs),
(602,440,o),
(682,405,o),
(682,361,cs),
(682,317,o),
(602,282,o),
(432,282,cs)
);
}
);
};
guides = (
{
angle = 90;
pos = (432,397);
}
);
layerId = "9AADC1C9-C373-4903-A2C4-BDDDC6C38F92";
shapes = (
{
closed = 1;
nodes = (
(739,-220,o),
(822,-150,o),
(822,-65,cs),
(822,20,o),
(742,90,o),
(432,90,cs),
(282,90,o),
(210,110,o),
(210,146,cs),
(210,182,o),
(287,202,o),
(432,202,c),
(432,252,l),
(192,252,o),
(100,207,o),
(100,131,cs),
(100,78,o),
(139,45,o),
(232,26,c),
(242,49,l),
(87,29,o),
(42,-19,o),
(42,-80,cs),
(42,-160,o),
(122,-220,o),
(432,-220,cs)
);
},
{
closed = 1;
nodes = (
(227,-140,o),
(152,-111,o),
(152,-65,cs),
(152,-19,o),
(227,10,o),
(432,10,cs),
(637,10,o),
(712,-19,o),
(712,-65,cs),
(712,-111,o),
(637,-140,o),
(432,-140,cs)
);
},
{
closed = 1;
nodes = (
(627,202,o),
(792,248,o),
(792,361,cs),
(792,474,o),
(627,520,o),
(432,520,cs),
(237,520,o),
(72,474,o),
(72,361,cs),
(72,248,o),
(232,202,o),
(432,202,cs)
);
},
{
closed = 1;
nodes = (
(262,282,o),
(182,317,o),
(182,361,cs),
(182,405,o),
(262,440,o),
(432,440,cs),
(602,440,o),
(682,405,o),
(682,361,cs),
(682,317,o),
(602,282,o),
(432,282,cs)
);
},
{
closed = 1;
nodes = (
(472,485,l),
(492,650,l),
(372,650,l),
(392,485,l)
);
}
);
width = 864;
},
{
associatedMasterId = "9AADC1C9-C373-4903-A2C4-BDDDC6C38F92";
background = {
shapes = (
{
closed = 1;
nodes = (
(695,172,o),
(855,221,o),
(855,344,cs),
(855,471,o),
(678,520,o),
(490,520,cs),
(302,520,o),
(124,471,o),
(124,344,cs),
(124,220,o),
(305,172,o),
(507,172,cs)
);
},
{
closed = 1;
nodes = (
(323,252,o),
(237,299,o),
(237,345,cs),
(237,390,o),
(320,435,o),
(490,435,cs),
(659,435,o),
(742,389,o),
(742,344,cs),
(742,298,o),
(659,252,o),
(492,252,cs)
);
},
{
closed = 1;
nodes = (
(813,-220,o),
(894,-143,o),
(894,-67,cs),
(894,69,o),
(674,73,o),
(499,77,cs),
(382,79,o),
(285,81,o),
(285,121,cs),
(285,146,o),
(359,172,o),
(500,172,c),
(500,227,l),
(287,227,o),
(173,167,o),
(173,108,cs),
(173,-74,o),
(778,57,o),
(778,-69,cs),
(778,-104,o),
(683,-140,o),
(497,-140,cs),
(125,-140,o),
(122,-3,o),
(507,-3,c),
(507,44,l),
(192,54,o),
(102,-7,o),
(102,-82,cs),
(102,-177,o),
(247,-220,o),
(497,-220,cs)
);
},
{
closed = 1;
nodes = (
(450,485,l),
(530,485,l),
(545,700,l),
(435,700,l)
);
}
);
};
guides = (
{
angle = 90;
pos = (490,397);
}
);
layerId = "D7759CDF-80B0-416A-97F7-13A6D2ECE0F7";
name = "Mar 3 21, 22:58";
shapes = (
{
closed = 1;
nodes = (
(295,520,o),
(130,474,o),
(130,355,cs),
(130,236,o),
(295,190,o),
(490,190,cs),
(685,190,o),
(850,236,o),
(850,355,cs),
(850,474,o),
(685,520,o),
(490,520,cs)
);
},
{
closed = 1;
nodes = (
(450,485,l),
(530,485,l),
(545,700,l),
(435,700,l)
);
},
{
closed = 1;
nodes = (
(320,270,o),
(240,305,o),
(240,355,cs),
(240,405,o),
(320,440,o),
(490,440,cs),
(660,440,o),
(740,405,o),
(740,355,cs),
(740,305,o),
(660,270,o),
(490,270,cs)
);
},
{
closed = 1;
nodes = (
(695,10,o),
(770,-19,o),
(770,-65,cs),
(770,-111,o),
(695,-140,o),
(490,-140,c),
(490,-220,l),
(797,-220,o),
(880,-150,o),
(880,-65,cs),
(880,20,o),
(800,90,o),
(490,90,c),
(490,10,l)
);
},
{
closed = 1;
nodes = (
(158,55,o),
(250,10,o),
(490,10,c),
(490,90,l),
(345,90,o),
(273,110,o),
(273,140,cs),
(273,170,o),
(345,190,o),
(490,190,c),
(490,240,l),
(250,240,o),
(158,195,o),
(158,125,cs)
);
},
{
closed = 1;
nodes = (
(100,-160,o),
(180,-220,o),
(490,-220,c),
(490,-140,l),
(285,-140,o),
(210,-111,o),
(210,-65,cs),
(210,-19,o),
(285,10,o),
(490,10,c),
(490,60,l),
(180,60,o),
(100,0,o),
(100,-80,cs)
);
}
);
width = 980;
},
{
associatedMasterId = m002;
background = {
shapes = (
{
closed = 1;
nodes = (
(695,172,o),
(855,221,o),
(855,344,cs),
(855,471,o),
(678,520,o),
(490,520,cs),
(302,520,o),
(124,471,o),
(124,344,cs),
(124,220,o),
(305,172,o),
(507,172,cs)
);
},
{
closed = 1;
nodes = (
(323,252,o),
(237,299,o),
(237,345,cs),
(237,390,o),
(320,435,o),
(490,435,cs),
(659,435,o),
(742,389,o),
(742,344,cs),
(742,298,o),
(659,252,o),
(492,252,cs)
);
},
{
closed = 1;
nodes = (
(813,-220,o),
(894,-143,o),
(894,-67,cs),
(894,69,o),
(674,73,o),
(499,77,cs),
(382,79,o),
(285,81,o),
(285,121,cs),
(285,146,o),
(359,172,o),
(500,172,c),
(500,227,l),
(287,227,o),
(173,167,o),
(173,108,cs),
(173,-74,o),
(778,57,o),
(778,-69,cs),
(778,-104,o),
(683,-140,o),
(497,-140,cs),
(125,-140,o),
(122,-3,o),
(507,-3,c),
(507,44,l),
(192,54,o),
(102,-7,o),
(102,-82,cs),
(102,-177,o),
(247,-220,o),
(497,-220,cs)
);
},
{
closed = 1;
nodes = (
(450,485,l),
(530,485,l),
(545,700,l),
(435,700,l)
);
}
);
};
guides = (
{
angle = 90;
pos = (490,397);
}
);
layerId = "A2DEF96A-E1F7-4E7D-810A-FB0375458525";
name = "Mar 3 21, 22:58";
shapes = (
{
closed = 1;
nodes = (
(295,520,o),
(130,474,o),
(130,355,cs),
(130,236,o),
(295,190,o),
(490,190,cs),
(685,190,o),
(850,236,o),
(850,355,cs),
(850,474,o),
(685,520,o),
(490,520,cs)
);
},
{
closed = 1;
nodes = (
(450,485,l),
(530,485,l),
(545,700,l),
(435,700,l)
);
},
{
closed = 1;
nodes = (
(320,270,o),
(240,305,o),
(240,355,cs),
(240,405,o),
(320,440,o),
(490,440,cs),
(660,440,o),
(740,405,o),
(740,355,cs),
(740,305,o),
(660,270,o),
(490,270,cs)
);
},
{
closed = 1;
nodes = (
(695,10,o),
(770,-19,o),
(770,-65,cs),
(770,-111,o),
(695,-140,o),
(490,-140,c),
(490,-220,l),
(797,-220,o),
(880,-150,o),
(880,-65,cs),
(880,20,o),
(800,90,o),
(490,90,c),
(490,10,l)
);
},
{
closed = 1;
nodes = (
(158,55,o),
(250,10,o),
(490,10,c),
(490,90,l),
(345,90,o),
(273,110,o),
(273,140,cs),
(273,170,o),
(345,190,o),
(490,190,c),
(490,240,l),
(250,240,o),
(158,195,o),
(158,125,cs)
);
},
{
closed = 1;
nodes = (
(100,-160,o),
(180,-220,o),
(490,-220,c),
(490,-140,l),
(285,-140,o),
(210,-111,o),
(210,-65,cs),
(210,-19,o),
(285,10,o),
(490,10,c),
(490,60,l),
(180,60,o),
(100,0,o),
(100,-80,cs)
);
}
);
width = 980;
},
{
anchors = (
{
name = bottom;
pos = (283,-200);
},
{
name = top;
pos = (282,500);
}
);
associatedMasterId = m002;
background = {
shapes = (
{
closed = 1;
nodes = (
(321,485,l),
(341,650,l),
(221,650,l),
(241,485,l)
);
},
{
closed = 1;
nodes = (
(412,202,o),
(499,254,o),
(499,359,cs),
(499,465,o),
(412,520,o),
(281,520,cs),
(149,520,o),
(62,465,o),
(62,359,cs),
(62,254,o),
(149,202,o),
(281,202,cs)
);
},
{
closed = 1;
nodes = (
(209,289,o),
(172,315,o),
(172,359,cs),
(172,403,o),
(209,433,o),
(281,433,cs),
(352,433,o),
(389,403,o),
(389,359,cs),
(389,315,o),
(352,289,o),
(281,289,cs)
);
},
{
closed = 1;
nodes = (
(432,-220,o),
(519,-168,o),
(519,-63,cs),
(519,43,o),
(432,98,o),
(281,98,cs),
(129,98,o),
(42,43,o),
(42,-63,cs),
(42,-168,o),
(129,-220,o),
(281,-220,cs)
);
},
{
closed = 1;
nodes = (
(189,-134,o),
(152,-107,o),
(152,-63,cs),
(152,-18,o),
(189,12,o),
(281,12,cs),
(372,12,o),
(409,-18,o),
(409,-63,cs),
(409,-107,o),
(372,-134,o),
(281,-134,cs)
);
},
{
closed = 0;
nodes = (
(363,90,l),
(263,90,o),
(191,110,o),
(191,146,cs),
(191,182,o),
(268,202,o),
(363,202,c),
(363,252,l),
(173,252,o),
(81,207,o),
(81,131,cs),
(81,78,o),
(120,45,o),
(213,26,c)
);
}
);
};
guides = (
{
angle = 90;
pos = (281,197);
},
{
pos = (225,202);
},
{
pos = (225,91);
}
);
layerId = "8CE18EC1-A014-4D3D-9AF4-A27A7D38DE62";
name = "16 Sep 24 at 22:49";
shapes = (
{
closed = 1;
nodes = (
(432,-220,o),
(519,-168,o),
(519,-67,cs),
(519,35,o),
(433,90,o),
(284,91,cs),
(224,91,o),
(191,110,o),
(191,146,cs),
(191,182,o),
(229,202,o),
(284,202,c),
(284,252,l),
(144,252,o),
(81,217,o),
(81,141,cs),
(81,100,o),
(110,65,o),
(164,43,c),
(164,77,l),
(85,54,o),
(42,5,o),
(42,-67,cs),
(42,-168,o),
(129,-220,o),
(281,-220,cs)
);
},
{
closed = 1;
nodes = (
(189,-134,o),
(152,-107,o),
(152,-67,cs),
(152,-25,o),
(189,5,o),
(281,5,cs),
(372,5,o),
(409,-25,o),
(409,-67,cs),
(409,-107,o),
(372,-134,o),
(281,-134,cs)
);
},
{
closed = 1;
nodes = (
(412,202,o),
(499,254,o),
(499,359,cs),
(499,465,o),
(412,520,o),
(281,520,cs),
(149,520,o),
(62,465,o),
(62,359,cs),
(62,254,o),
(149,202,o),
(281,202,cs)
);
},
{
closed = 1;
nodes = (
(209,289,o),
(172,315,o),
(172,359,cs),
(172,403,o),
(209,433,o),
(281,433,cs),
(352,433,o),
(389,403,o),
(389,359,cs),
(389,315,o),
(352,289,o),
(281,289,cs)
);
},
{
closed = 1;
nodes = (
(322,485,l),
(342,650,l),
(222,650,l),
(242,485,l)
);
}
);
width = 561;
},
{
anchors = (
{
name = bottom;
pos = (297,-200);
},
{
name = top;
pos = (296,606);
}
);
associatedMasterId = m002;
background = {
shapes = (
{
closed = 1;
nodes = (
(462,-220,o),
(549,-168,o),
(549,-67,cs),
(549,35,o),
(463,90,o),
(300,91,cs),
(224,91,o),
(191,110,o),
(191,146,cs),
(191,182,o),
(229,202,o),
(299,202,c),
(299,252,l),
(144,252,o),
(81,217,o),
(81,141,cs),
(81,100,o),
(110,65,o),
(164,43,c),
(164,77,l),
(85,54,o),
(42,5,o),
(42,-67,cs),
(42,-168,o),
(129,-220,o),
(289,-220,cs)
);
},
{
closed = 1;
nodes = (
(189,-134,o),
(152,-107,o),
(152,-67,cs),
(152,-25,o),
(189,5,o),
(297,5,cs),
(402,5,o),
(439,-25,o),
(439,-67,cs),
(439,-107,o),
(402,-134,o),
(289,-134,cs)
);
},
{
closed = 1;
nodes = (
(442,202,o),
(529,254,o),
(529,359,cs),
(529,465,o),
(442,520,o),
(296,520,cs),
(149,520,o),
(62,465,o),
(62,359,cs),
(62,254,o),
(149,202,o),
(296,202,cs)
);
},
{
closed = 1;
nodes = (
(209,289,o),
(172,315,o),
(172,359,cs),
(172,403,o),
(209,433,o),
(296,433,cs),
(382,433,o),
(419,403,o),
(419,359,cs),
(419,315,o),
(382,289,o),
(296,289,cs)
);
},
{
closed = 1;
nodes = (
(337,485,l),
(357,650,l),
(237,650,l),
(257,485,l)
);
}
);
};
guides = (
{
pos = (225,202);
},
{
pos = (225,91);
}
);
layerId = "1AECE525-C923-48A4-B69E-488E623F3189";
name = "23 Oct 24 at 19:26";
shapes = (
{
closed = 1;
nodes = (
(462,-220,o),
(549,-168,o),
(549,-67,cs),
(549,35,o),
(463,90,o),
(300,91,cs),
(224,91,o),
(191,110,o),
(191,146,cs),
(191,182,o),
(229,202,o),
(299,202,c),
(299,252,l),
(144,252,o),
(81,217,o),
(81,141,cs),
(81,100,o),
(110,65,o),
(164,43,c),
(164,77,l),
(85,54,o),
(42,5,o),
(42,-67,cs),
(42,-168,o),
(129,-220,o),
(289,-220,cs)
);
},
{
closed = 1;
nodes = (
(189,-134,o),
(152,-107,o),
(152,-67,cs),
(152,-25,o),
(189,5,o),
(297,5,cs),
(402,5,o),
(439,-25,o),
(439,-67,cs),
(439,-107,o),
(402,-134,o),
(289,-134,cs)
);
},
{
closed = 1;
nodes = (
(442,202,o),
(529,254,o),
(529,359,cs),
(529,465,o),
(442,520,o),
(296,520,cs),
(149,520,o),
(62,465,o),
(62,359,cs),
(62,254,o),
(149,202,o),
(296,202,cs)
);
},
{
closed = 1;
nodes = (
(209,289,o),
(172,315,o),
(172,359,cs),
(172,403,o),
(209,433,o),
(296,433,cs),
(382,433,o),
(419,403,o),
(419,359,cs),
(419,315,o),
(382,289,o),
(296,289,cs)
);
},
{
closed = 1;
nodes = (
(337,485,l),
(357,650,l),
(237,650,l),
(257,485,l)
);
}
);
width = 571;
},
{
anchors = (
{
name = bottom;
pos = (317,-200);
},
{
name = top;
pos = (316,606);
}
);
background = {
shapes = (
{
closed = 1;
nodes = (
(492,-220,o),
(579,-168,o),
(579,-50,cs),
(579,64,o),
(493,120,o),
(320,120,cs),
(226,120,o),
(212,133,o),
(212,146,cs),
(212,158,o),
(226,171,o),
(309,171,c),
(279,221,l),
(159,221,o),
(102,186,o),
(102,143,cs),
(102,120,o),
(117,95,o),
(174,72,c),
(164,106,l),
(85,83,o),
(42,34,o),
(42,-50,cs),
(42,-168,o),
(129,-220,o),
(309,-220,cs)
);
},
{
closed = 1;
nodes = (
(189,-134,o),
(152,-107,o),
(152,-50,cs),
(152,4,o),
(189,34,o),
(317,34,cs),
(432,34,o),
(469,4,o),
(469,-50,cs),
(469,-107,o),
(432,-134,o),
(309,-134,cs)
);
},
{
closed = 1;
nodes = (
(462,171,o),
(549,233,o),
(549,343,cs),
(549,455,o),
(462,520,o),
(316,520,cs),
(169,520,o),
(82,455,o),
(82,343,cs),
(82,233,o),
(169,171,o),
(309,171,cs)
);
},
{
closed = 1;
nodes = (
(229,258,o),
(192,294,o),
(192,343,cs),
(192,393,o),
(229,433,o),
(316,433,cs),
(402,433,o),
(439,393,o),
(439,343,cs),
(439,294,o),
(402,258,o),
(316,258,cs)
);
},
{
closed = 1;
nodes = (
(357,485,l),
(377,650,l),
(257,650,l),
(277,485,l)
);
}
);
};
guides = (
{
pos = (245,202);
},
{
pos = (245,91);
}
);
layerId = m002;
name = Condensed;
shapes = (
{
closed = 1;
nodes = (
(492,-220,o),
(579,-168,o),
(579,-54,cs),
(579,56,o),
(493,112,o),
(320,112,cs),
(239,112,o),
(212,122,o),
(212,152,cs),
(212,178,o),
(239,183,o),
(309,183,c),
(279,233,l),
(159,233,o),
(102,198,o),
(102,149,cs),
(102,112,o),
(117,87,o),
(174,64,c),
(164,98,l),
(85,75,o),
(42,26,o),
(42,-54,cs),
(42,-168,o),
(129,-220,o),
(309,-220,cs)
);
},
{
closed = 1;
nodes = (
(189,-134,o),
(152,-107,o),
(152,-54,cs),
(152,-4,o),
(189,26,o),
(317,26,cs),
(432,26,o),
(469,-4,o),
(469,-54,cs),
(469,-107,o),
(432,-134,o),
(309,-134,cs)
);
},
{
closed = 1;
nodes = (
(462,183,o),
(549,245,o),
(549,351,cs),
(549,461,o),
(462,526,o),
(316,526,cs),
(169,526,o),
(82,461,o),
(82,351,cs),
(82,245,o),
(169,183,o),
(309,183,cs)
);
},
{
closed = 1;
nodes = (
(223,270,o),
(192,306,o),
(192,351,cs),
(192,399,o),
(223,439,o),
(316,439,cs),
(408,439,o),
(439,399,o),
(439,351,cs),
(439,306,o),
(408,270,o),
(316,270,cs)
);
},
{
closed = 1;
nodes = (
(357,485,l),
(377,650,l),
(257,650,l),
(277,485,l)
);
}
);
width = 591;
}
);
metricLeft = o;
unicode = 103;
},
{
glyphname = h;
lastChange = "2024-07-10 22:13:36 +0000";
layers = (
{
anchors = (
{
name = bottom;
pos = (445,0);
},
{
name = center;
pos = (445,350);
},
{
name = top;
pos = (445,700);
}
);
background = {
shapes = (
{
closed = 1;
nodes = (
(210,0,l),
(210,352,l),
(200,352,l),
(200,750,l),
(100,750,l),
(100,0,l)
);
},
{
closed = 1;
nodes = (
(210,276,ls),
(210,368,o),
(351,430,o),
(490,430,cs),
(626,430,o),
(760,370,o),
(760,227,cs),
(760,0,l),
(870,0,l),
(870,246,ls),
(870,431,o),
(697,520,o),
(523,520,cs),
(326,520,o),
(147,428,o),
(148,266,c),
(210,266,l)
);
}
);
};
layerId = "9AADC1C9-C373-4903-A2C4-BDDDC6C38F92";
shapes = (
{
closed = 1;
nodes = (
(821,0,l),
(821,246,ls),
(821,431,o),
(648,520,o),
(477,520,cs),
(288,520,o),
(109,428,o),
(110,266,c),
(172,266,l),
(172,276,ls),
(172,368,o),
(313,431,o),
(444,431,cs),
(577,431,o),
(711,371,o),
(711,227,cs),
(711,0,l)
);
},
{
closed = 1;
nodes = (
(172,0,l),
(172,352,l),
(162,352,l),
(162,700,l),
(62,700,l),
(62,0,l)
);
}
);
width = 881;
},
{
associatedMasterId = "9AADC1C9-C373-4903-A2C4-BDDDC6C38F92";
layerId = "6CFCAE57-EBC9-4E66-BCC5-C2345B2B9145";
name = ALE;
shapes = (
{
closed = 1;
nodes = (
(373,520,o),
(253,466,o),
(200,370,c),
(200,190,l),
(210,190,l),
(210,353,o),
(362,419,o),
(506,419,cs),
(636,419,o),
(760,368,o),
(760,220,cs),
(760,0,l),
(870,0,l),
(870,250,ls),
(870,420,o),
(720,520,o),
(520,520,cs)
);
},
{
closed = 1;
nodes = (
(210,0,l),
(210,370,l),
(200,370,l),
(200,750,l),
(100,750,l),
(100,0,l)
);
}
);
width = 970;
},
{
anchors = (
{
name = bottom;
pos = (282,0);
},
{
name = center;
pos = (282,350);
},
{
name = top;
pos = (282,700);
}
);
background = {
shapes = (
{
closed = 1;
nodes = (
(62,0,l),
(62,701,l),
(168,701,l),
(168,428,l),
(170,428,l),
(184,457,o),
(204,481,o),
(231,497,c),
(258,513,o),
(290,521,o),
(329,521,c),
(364,521,o),
(396,513,o),
(424,495,c),
(451,479,o),
(472,455,o),
(487,425,c),
(503,392,o),
(509,357,o),
(509,317,c),
(509,0,l),
(405,0,l),
(405,296,l),
(405,339,o),
(393,371,o),
(374,396,c),
(353,418,o),
(324,431,o),
(287,431,c),
(263,431,o),
(242,425,o),
(224,413,c),
(207,402,o),
(192,386,o),
(183,367,c),
(173,347,o),
(168,323,o),
(168,296,c),
(168,0,l)
);
}
);
};
layerId = m002;
shapes = (
{
closed = 1;
nodes = (
(508,0,l),
(508,332,ls),
(508,466,o),
(416,513,o),
(328,513,cs),
(229,513,o),
(136,464,o),
(137,344,c),
(172,329,l),
(172,333,ls),
(172,391,o),
(231,418,o),
(286,418,cs),
(342,418,o),
(398,393,o),
(398,312,cs),
(398,0,l)
);
},
{
closed = 1;
nodes = (
(172,0,l),
(172,352,l),
(168,352,l),
(168,700,l),
(62,700,l),
(62,0,l)
);
}
);
width = 568;
},
{
associatedMasterId = m002;
layerId = "DD52E052-AE8D-4263-833C-39B22B2183CC";
name = ALE;
shapes = (
{
closed = 1;
nodes = (
(373,520,o),
(253,466,o),
(200,370,c),
(200,190,l),
(210,190,l),
(210,353,o),
(362,419,o),
(506,419,cs),
(636,419,o),
(760,368,o),
(760,220,cs),
(760,0,l),
(870,0,l),
(870,250,ls),
(870,420,o),
(720,520,o),
(520,520,cs)
);
},
{
closed = 1;
nodes = (
(210,0,l),
(210,370,l),
(200,370,l),
(200,750,l),
(100,750,l),
(100,0,l)
);
}
);
width = 970;
}
);
metricLeft = n;
metricRight = n;
unicode = 104;
},
{
glyphname = i;
lastChange = "2024-09-25 02:38:40 +0000";
layers = (
{
background = {
shapes = (
{
closed = 1;
nodes = (
(38,605,o),
(88,580,o),
(138,580,cs),
(188,580,o),
(238,605,o),
(238,650,cs),
(238,695,o),
(188,720,o),
(138,720,cs),
(88,720,o),
(38,695,o),
(38,650,cs)
);
},
{
closed = 1;
nodes = (
(-62,415,l),
(103,415,l),
(103,500,l),
(-62,500,l)
);
},
{
closed = 1;
nodes = (
(103,0,l),
(213,0,l),
(213,500,l),
(103,500,l)
);
}
);
};
layerId = "9AADC1C9-C373-4903-A2C4-BDDDC6C38F92";
shapes = (
{
ref = idotless;
},
{
pos = (18,0);
ref = dotaccentcomb;
}
);
width = 232;
},
{
anchors = (
{
name = bottom;
pos = (223,0);
}
);
associatedMasterId = "9AADC1C9-C373-4903-A2C4-BDDDC6C38F92";
layerId = "809179F3-614F-4863-8915-BC6B6C60F329";
name = "18 Apr 22, 23:18";
shapes = (
{
closed = 1;
nodes = (
(145,605,o),
(195,580,o),
(245,580,cs),
(295,580,o),
(345,605,o),
(345,650,cs),
(345,695,o),
(295,720,o),
(245,720,cs),
(195,720,o),
(145,695,o),
(145,650,cs)
);
},
{
closed = 1;
nodes = (
(45,415,l),
(210,415,l),
(210,500,l),
(45,500,l)
);
},
{
closed = 1;
nodes = (
(210,0,l),
(320,0,l),
(320,500,l),
(210,500,l)
);
}
);
width = 445;
},
{
background = {
shapes = (
{
closed = 1;
nodes = (
(65,0,l),
(169,0,l),
(169,500,l),
(65,500,l)
);
},
{
closed = 1;
nodes = (
);
},
{
closed = 1;
nodes = (
(101,577,o),
(87,583,o),
(74,594,c),
(63,605,o),
(57,620,o),
(57,635,c),
(57,653,o),
(63,667,o),
(74,678,c),
(87,689,o),
(101,695,o),
(117,695,c),
(134,695,o),
(148,689,o),
(159,678,c),
(172,667,o),
(177,653,o),
(177,635,c),
(177,620,o),
(172,605,o),
(159,594,c),
(148,583,o),
(134,577,o),
(117,577,c)
);
}
);
};
layerId = m002;
shapes = (
{
ref = idotless;
},
{
pos = (41,0);
ref = dotaccentcomb;
}
);
width = 232;
},
{
anchors = (
{
name = bottom;
pos = (223,0);
}
);
associatedMasterId = m002;
layerId = "5D12DFFB-2C32-4375-8F77-5AC9EE10FDA0";
name = "18 Apr 22, 23:18";
shapes = (
{
closed = 1;
nodes = (
(145,605,o),
(195,580,o),
(245,580,cs),
(295,580,o),
(345,605,o),
(345,650,cs),
(345,695,o),
(295,720,o),
(245,720,cs),
(195,720,o),
(145,695,o),
(145,650,cs)
);
},
{
closed = 1;
nodes = (
(45,415,l),
(210,415,l),
(210,500,l),
(45,500,l)
);
},
{
closed = 1;
nodes = (
(210,0,l),
(320,0,l),
(320,500,l),
(210,500,l)
);
}
);
width = 445;
}
);
unicode = 105;
},
{
glyphname = idotless;
lastChange = "2024-09-25 02:38:40 +0000";
layers = (
{
anchors = (
{
name = bottom;
pos = (117,0);
},
{
name = ogonek;
pos = (171,1);
},
{
name = top;
pos = (117,500);
}
);
layerId = "9AADC1C9-C373-4903-A2C4-BDDDC6C38F92";
shapes = (
{
closed = 1;
nodes = (
(172,0,l),
(172,500,l),
(62,500,l),
(62,0,l)
);
}
);
width = 232;
},
{
anchors = (
{
name = bottom;
pos = (117,0);
},
{
name = ogonek;
pos = (153,0);
},
{
name = top;
pos = (117,500);
}
);
layerId = m002;
shapes = (
{
closed = 1;
nodes = (
(172,0,l),
(172,500,l),
(62,500,l),
(62,0,l)
);
}
);
width = 232;
}
);
metricLeft = n;
metricRight = n;
unicode = 305;
},
{
glyphname = j;
lastChange = "2024-09-19 05:29:42 +0000";
layers = (
{
associatedMasterId = "9AADC1C9-C373-4903-A2C4-BDDDC6C38F92";
layerId = "7B175238-3B4E-4DD4-BC22-E9A9A3A91DE9";
name = "Mar 23 21, 13:57";
shapes = (
{
closed = 1;
nodes = (
(294,415,l),
(464,415,l),
(464,500,l),
(294,500,l)
);
},
{
closed = 1;
nodes = (
(409,-107,o),
(354,-135,o),
(299,-135,cs),
(252,-135,o),
(214,-106,o),
(205,-50,c),
(100,-50,l),
(117,-164,o),
(196,-220,o),
(301,-220,cs),
(421,-220,o),
(519,-151,o),
(519,-10,cs),
(519,500,l),
(409,500,l),
(409,0,ls)
);
},
{
closed = 1;
nodes = (
(414,720,o),
(364,695,o),
(364,650,cs),
(364,605,o),
(414,580,o),
(464,580,cs),
(514,580,o),
(564,605,o),
(564,650,cs),
(564,695,o),
(514,720,o),
(464,720,cs)
);
}
);
width = 664;
},
{
background = {
shapes = (
{
closed = 1;
nodes = (
(239,-89,o),
(147,-134,o),
(64,-134,cs),
(-10,-134,o),
(-87,-103,o),
(-93,-42,c),
(-203,-42,l),
(-189,-162,o),
(-67,-219,o),
(55,-219,cs),
(196,-219,o),
(349,-137,o),
(349,28,cs),
(349,500,l),
(239,500,l),
(239,34,ls)
);
},
{
closed = 1;
nodes = (
(75,415,l),
(294,415,l),
(294,500,l),
(75,500,l)
);
},
{
closed = 1;
nodes = (
(175,605,o),
(225,580,o),
(275,580,cs),
(325,580,o),
(375,605,o),
(375,650,cs),
(375,695,o),
(325,720,o),
(275,720,cs),
(225,720,o),
(175,695,o),
(175,650,cs)
);
}
);
};
layerId = "9AADC1C9-C373-4903-A2C4-BDDDC6C38F92";
shapes = (
{
ref = jdotless;
},
{
pos = (226,0);
ref = dotaccentcomb;
}
);
width = 415;
},
{
associatedMasterId = m002;
layerId = "D2C376D9-8133-4429-9773-D02555ACF10C";
name = "Mar 23 21, 13:57";
shapes = (
{
closed = 1;
nodes = (
(294,415,l),
(464,415,l),
(464,500,l),
(294,500,l)
);
},
{
closed = 1;
nodes = (
(409,-107,o),
(354,-135,o),
(299,-135,cs),
(252,-135,o),
(214,-106,o),
(205,-50,c),
(100,-50,l),
(117,-164,o),
(196,-220,o),
(301,-220,cs),
(421,-220,o),
(519,-151,o),
(519,-10,cs),
(519,500,l),
(409,500,l),
(409,0,ls)
);
},
{
closed = 1;
nodes = (
(414,720,o),
(364,695,o),
(364,650,cs),
(364,605,o),
(414,580,o),
(464,580,cs),
(514,580,o),
(564,605,o),
(564,650,cs),
(564,695,o),
(514,720,o),
(464,720,cs)
);
}
);
width = 664;
},
{
layerId = m002;
shapes = (
{
ref = jdotless;
},
{
pos = (38,0);
ref = dotaccentcomb;
}
);
width = 221;
}
);
metricRight = i;
unicode = 106;
},
{
glyphname = jdotless;
lastChange = "2024-09-19 05:29:42 +0000";
layers = (
{
anchors = (
{
name = bottom;
pos = (323,0);
},
{
name = top;
pos = (325,500);
}
);
layerId = "9AADC1C9-C373-4903-A2C4-BDDDC6C38F92";
shapes = (
{
closed = 1;
nodes = (
(227,-219,o),
(380,-137,o),
(380,28,cs),
(380,500,l),
(270,500,l),
(270,34,ls),
(270,-89,o),
(178,-134,o),
(95,-134,cs),
(21,-134,o),
(-56,-103,o),
(-62,-42,c),
(-172,-42,l),
(-158,-162,o),
(-36,-219,o),
(86,-219,cs)
);
},
{
closed = 1;
nodes = (
(325,415,l),
(325,500,l),
(106,500,l),
(106,415,l)
);
}
);
width = 415;
},
{
anchors = (
{
name = bottom;
pos = (112,0);
},
{
name = top;
pos = (114,500);
}
);
guides = (
{
pos = (-205,-42);
}
);
layerId = m002;
shapes = (
{
closed = 1;
nodes = (
(82,-213,o),
(170,-155,o),
(170,-42,cs),
(170,500,l),
(60,500,l),
(60,-42,ls),
(60,-90,o),
(29,-115,o),
(-2,-115,cs),
(-32,-115,o),
(-61,-91,o),
(-61,-42,c),
(-168,-42,l),
(-172,-157,o),
(-89,-213,o),
(-4,-213,cs)
);
},
{
closed = 1;
nodes = (
(161,415,l),
(161,500,l),
(66,500,l),
(66,415,l)
);
}
);
width = 221;
}
);
unicode = 567;
},
{
glyphname = k;
kernRight = k;
lastChange = "2024-09-25 03:44:11 +0000";
layers = (
{
anchors = (
{
name = bottom;
pos = (397,0);
},
{
name = top;
pos = (397,700);
}
);
background = {
shapes = (
{
closed = 1;
nodes = (
(762,0,l),
(380,291,l),
(215,291,l),
(597,0,l)
);
},
{
pos = (-61,0);
ref = o;
}
);
};
layerId = "9AADC1C9-C373-4903-A2C4-BDDDC6C38F92";
shapes = (
{
closed = 1;
nodes = (
(170,138,l),
(772,500,l),
(592,500,l),
(94,198,l),
(94,138,l)
);
},
{
closed = 1;
nodes = (
(172,0,l),
(172,700,l),
(62,700,l),
(62,0,l)
);
},
{
closed = 1;
nodes = (
(792,0,l),
(390,271,l),
(222,271,l),
(620,0,l)
);
}
);
width = 832;
},
{
associatedMasterId = "9AADC1C9-C373-4903-A2C4-BDDDC6C38F92";
background = {
shapes = (
{
closed = 1;
nodes = (
(735,500,l),
(549,500,l),
(223,279,l),
(223,138,l)
);
},
{
closed = 1;
nodes = (
(265,0,l),
(265,750,l),
(155,750,l),
(155,0,l)
);
},
{
closed = 1;
nodes = (
(720,0,l),
(503,381,l),
(373,381,l),
(580,0,l)
);
}
);
};
layerId = "7135736A-ADA7-4C0E-807F-54126446C61A";
name = "Jun 3 18, 14:23";
shapes = (
{
closed = 1;
nodes = (
(735,500,l),
(559,500,l),
(223,269,l),
(223,138,l)
);
},
{
closed = 1;
nodes = (
(265,0,l),
(265,750,l),
(155,750,l),
(155,0,l)
);
},
{
closed = 1;
nodes = (
(735,0,l),
(523,351,l),
(398,351,l),
(610,0,l)
);
}
);
width = 815;
},
{
anchors = (
{
name = bottom;
pos = (273,0);
},
{
name = top;
pos = (273,700);
}
);
background = {
shapes = (
{
closed = 1;
nodes = (
(163,138,l),
(502,500,l),
(373,500,l),
(96,204,l),
(96,138,l)
);
},
{
closed = 1;
nodes = (
(172,0,l),
(172,700,l),
(62,700,l),
(62,0,l)
);
},
{
closed = 1;
nodes = (
(524,0,l),
(271,309,l),
(171,271,l),
(391,0,l)
);
}
);
};
layerId = m002;
shapes = (
{
closed = 1;
nodes = (
(163,138,l),
(502,500,l),
(373,500,l),
(100,204,l),
(100,138,l)
);
},
{
closed = 1;
nodes = (
(172,0,l),
(172,700,l),
(62,700,l),
(62,0,l)
);
},
{
closed = 1;
nodes = (
(524,0,l),
(271,309,l),
(171,271,l),
(391,0,l)
);
}
);
width = 564;
},
{
associatedMasterId = m002;
background = {
shapes = (
{
closed = 1;
nodes = (
(735,500,l),
(549,500,l),
(223,279,l),
(223,138,l)
);
},
{
closed = 1;
nodes = (
(265,0,l),
(265,750,l),
(155,750,l),
(155,0,l)
);
},
{
closed = 1;
nodes = (
(720,0,l),
(503,381,l),
(373,381,l),
(580,0,l)
);
}
);
};
layerId = "C50143F3-2DAE-441E-9476-35B9E8FF0914";
name = "Jun 3 18, 14:23";
shapes = (
{
closed = 1;
nodes = (
(735,500,l),
(559,500,l),
(223,269,l),
(223,138,l)
);
},
{
closed = 1;
nodes = (
(265,0,l),
(265,750,l),
(155,750,l),
(155,0,l)
);
},
{
closed = 1;
nodes = (
(735,0,l),
(523,351,l),
(398,351,l),
(610,0,l)
);
}
);
width = 815;
}
);
metricLeft = h;
unicode = 107;
},
{
glyphname = l;
lastChange = "2024-09-25 03:46:17 +0000";
layers = (
{
anchors = (
{
name = bottom;
pos = (117,0);
},
{
name = center;
pos = (117,350);
},
{
name = top;
pos = (117,700);
},
{
name = topright;
pos = (252,700);
}
);
background = {
shapes = (
{
closed = 1;
nodes = (
(172,0,l),
(172,700,l),
(62,700,l),
(62,0,l)
);
}
);
};
layerId = "9AADC1C9-C373-4903-A2C4-BDDDC6C38F92";
shapes = (
{
closed = 1;
nodes = (
(172,0,l),
(172,700,l),
(62,700,l),
(62,0,l)
);
}
);
width = 234;
},
{
associatedMasterId = "9AADC1C9-C373-4903-A2C4-BDDDC6C38F92";
layerId = "6F90CCB6-E75F-4B7D-88DD-DE3BC2C58B6A";
name = "Mar 23 21, 13:56";
shapes = (
{
closed = 1;
nodes = (
(210,0,l),
(210,700,l),
(100,700,l),
(100,0,l)
);
}
);
width = 310;
},
{
anchors = (
{
name = bottom;
pos = (117,0);
},
{
name = center;
pos = (117,350);
},
{
name = top;
pos = (117,700);
},
{
name = topright;
pos = (182,700);
}
);
background = {
shapes = (
{
closed = 1;
nodes = (
(172,0,l),
(172,700,l),
(62,700,l),
(62,0,l)
);
}
);
};
layerId = m002;
shapes = (
{
closed = 1;
nodes = (
(172,0,l),
(172,700,l),
(62,700,l),
(62,0,l)
);
}
);
width = 234;
},
{
associatedMasterId = m002;
layerId = "64D10A05-85C1-4A6B-96E5-88AE9C7A8B64";
name = "Mar 23 21, 13:56";
shapes = (
{
closed = 1;
nodes = (
(210,0,l),
(210,700,l),
(100,700,l),
(100,0,l)
);
}
);
width = 310;
}
);
metricRight = "=|";
unicode = 108;
},
{
glyphname = lslash;
lastChange = "2024-09-19 05:31:33 +0000";
layers = (
{
layerId = "9AADC1C9-C373-4903-A2C4-BDDDC6C38F92";
shapes = (
{
closed = 1;
nodes = (
(316,349,l),
(316,438,l),
(2,382,l),
(2,293,l)
);
},
{
ref = l;
}
);
width = 310;
},
{
layerId = m002;
shapes = (
{
closed = 1;
nodes = (
(284,349,l),
(284,438,l),
(-30,382,l),
(-30,293,l)
);
},
{
pos = (10,0);
ref = l;
}
);
width = 254;
}
);
unicode = 322;
},
{
glyphname = m;
lastChange = "2024-07-29 03:31:35 +0000";
layers = (
{
anchors = (
{
name = bottom;
pos = (739,0);
},
{
name = top;
pos = (739,500);
}
);
background = {
shapes = (
{
closed = 1;
nodes = (
(172,0,l),
(172,352,l),
(162,352,l),
(162,500,l),
(62,500,l),
(62,0,l)
);
},
{
closed = 1;
nodes = (
(172,276,ls),
(172,368,o),
(313,431,o),
(424,431,cs),
(547,431,o),
(681,371,o),
(681,227,cs),
(681,0,l),
(791,0,l),
(791,246,ls),
(791,431,o),
(618,520,o),
(457,520,cs),
(288,520,o),
(109,428,o),
(110,266,c),
(172,266,l)
);
},
{
closed = 1;
nodes = (
(791,276,ls),
(791,368,o),
(932,431,o),
(1043,431,cs),
(1166,431,o),
(1300,371,o),
(1300,227,cs),
(1300,0,l),
(1410,0,l),
(1410,246,ls),
(1410,431,o),
(1237,520,o),
(1076,520,cs),
(907,520,o),
(728,428,o),
(729,266,c),
(791,266,l)
);
}
);
};
layerId = "9AADC1C9-C373-4903-A2C4-BDDDC6C38F92";
shapes = (
{
closed = 1;
nodes = (
(172,0,l),
(172,276,ls),
(172,368,o),
(313,431,o),
(424,431,cs),
(547,431,o),
(681,371,o),
(681,227,cs),
(681,0,l),
(791,0,l),
(791,276,ls),
(791,368,o),
(932,431,o),
(1043,431,cs),
(1166,431,o),
(1300,371,o),
(1300,227,cs),
(1300,0,l),
(1410,0,l),
(1410,246,ls),
(1410,431,o),
(1237,520,o),
(1076,520,cs),
(949,520,o),
(816,468,o),
(758,373,c),
(700,472,o),
(575,520,o),
(457,520,cs),
(344,520,o),
(227,479,o),
(162,404,c),
(162,500,l),
(62,500,l),
(62,0,l)
);
}
);
width = 1470;
},
{
associatedMasterId = "9AADC1C9-C373-4903-A2C4-BDDDC6C38F92";
background = {
shapes = (
{
closed = 1;
nodes = (
(373,520,o),
(253,466,o),
(200,370,c),
(200,190,l),
(210,190,l),
(210,353,o),
(362,419,o),
(506,419,cs),
(636,419,o),
(760,368,o),
(760,220,cs),
(760,0,l),
(870,0,l),
(870,250,ls),
(870,420,o),
(720,520,o),
(520,520,cs)
);
},
{
closed = 1;
nodes = (
(210,0,l),
(210,370,l),
(200,370,l),
(200,500,l),
(100,500,l),
(100,0,l)
);
},
{
closed = 1;
nodes = (
(929,520,o),
(801,358,o),
(810,190,c),
(870,190,l),
(870,353,o),
(1022,419,o),
(1166,419,cs),
(1296,419,o),
(1420,368,o),
(1420,220,cs),
(1420,0,l),
(1530,0,l),
(1530,250,ls),
(1530,420,o),
(1380,520,o),
(1180,520,cs)
);
}
);
};
layerId = "BAAD6499-1BBB-43C0-9918-BEC4ABB987F8";
name = ALE;
shapes = (
{
closed = 1;
nodes = (
(210,0,l),
(210,351.993,l),
(200,352,l),
(200,500,l),
(100,500,l),
(100,0,l)
);
},
{
closed = 1;
nodes = (
(210,276,ls),
(210,368,o),
(351,430,o),
(480,430,cs),
(607,430,o),
(741,370,o),
(741,227,cs),
(741,0,l),
(851,0,l),
(851,246,ls),
(851,431,o),
(678,520,o),
(513,520,cs),
(326,520,o),
(147,428,o),
(148,266,c),
(210,266,l)
);
},
{
closed = 1;
nodes = (
(851,276,ls),
(851,368,o),
(992,430,o),
(1121,430,cs),
(1248,430,o),
(1382,370,o),
(1382,227,cs),
(1382,0,l),
(1492,0,l),
(1492,246,ls),
(1492,431,o),
(1319,520,o),
(1154,520,cs),
(967,520,o),
(788,428,o),
(789,266,c),
(851,246,l)
);
}
);
width = 1592;
},
{
anchors = (
{
name = bottom;
pos = (467,0);
},
{
name = top;
pos = (467,500);
}
);
background = {
shapes = (
{
closed = 1;
nodes = (
(844,0,l),
(844,332,ls),
(844,466,o),
(752,513,o),
(664,513,cs),
(565,513,o),
(472,464,o),
(473,344,c),
(508,329,l),
(508,333,ls),
(508,391,o),
(567,418,o),
(622,418,cs),
(678,418,o),
(734,393,o),
(734,312,cs),
(734,0,l)
);
},
{
closed = 1;
nodes = (
(172,0,l),
(172,352,l),
(168,352,l),
(168,500,l),
(62,500,l),
(62,0,l)
);
},
{
closed = 1;
nodes = (
(508,0,l),
(508,332,ls),
(508,466,o),
(416,513,o),
(328,513,cs),
(229,513,o),
(136,464,o),
(137,344,c),
(172,329,l),
(172,333,ls),
(172,391,o),
(231,418,o),
(286,418,cs),
(342,418,o),
(398,393,o),
(398,312,cs),
(398,0,l)
);
}
);
};
layerId = m002;
shapes = (
{
closed = 1;
nodes = (
(172,0,l),
(172,333,ls),
(172,391,o),
(231,418,o),
(286,418,cs),
(342,418,o),
(398,393,o),
(398,312,cs),
(398,0,l),
(508,0,l),
(508,333,ls),
(508,391,o),
(567,418,o),
(622,418,cs),
(678,418,o),
(734,393,o),
(734,312,cs),
(734,0,l),
(844,0,l),
(844,332,ls),
(844,466,o),
(752,513,o),
(664,513,cs),
(591,513,o),
(520,486,o),
(489,423,c),
(458,488,o),
(392,513,o),
(328,513,cs),
(264,513,o),
(203,493,o),
(168,447,c),
(168,500,l),
(62,500,l),
(62,0,l)
);
}
);
width = 904;
},
{
associatedMasterId = m002;
background = {
shapes = (
{
closed = 1;
nodes = (
(373,520,o),
(253,466,o),
(200,370,c),
(200,190,l),
(210,190,l),
(210,353,o),
(362,419,o),
(506,419,cs),
(636,419,o),
(760,368,o),
(760,220,cs),
(760,0,l),
(870,0,l),
(870,250,ls),
(870,420,o),
(720,520,o),
(520,520,cs)
);
},
{
closed = 1;
nodes = (
(210,0,l),
(210,370,l),
(200,370,l),
(200,500,l),
(100,500,l),
(100,0,l)
);
},
{
closed = 1;
nodes = (
(929,520,o),
(801,358,o),
(810,190,c),
(870,190,l),
(870,353,o),
(1022,419,o),
(1166,419,cs),
(1296,419,o),
(1420,368,o),
(1420,220,cs),
(1420,0,l),
(1530,0,l),
(1530,250,ls),
(1530,420,o),
(1380,520,o),
(1180,520,cs)
);
}
);
};
layerId = "1A9AD270-407F-4045-9E68-945810257AB7";
name = ALE;
shapes = (
{
closed = 1;
nodes = (
(210,0,l),
(210,351.993,l),
(200,352,l),
(200,500,l),
(100,500,l),
(100,0,l)
);
},
{
closed = 1;
nodes = (
(210,276,ls),
(210,368,o),
(351,430,o),
(480,430,cs),
(607,430,o),
(741,370,o),
(741,227,cs),
(741,0,l),
(851,0,l),
(851,246,ls),
(851,431,o),
(678,520,o),
(513,520,cs),
(326,520,o),
(147,428,o),
(148,266,c),
(210,266,l)
);
},
{
closed = 1;
nodes = (
(851,276,ls),
(851,368,o),
(992,430,o),
(1121,430,cs),
(1248,430,o),
(1382,370,o),
(1382,227,cs),
(1382,0,l),
(1492,0,l),
(1492,246,ls),
(1492,431,o),
(1319,520,o),
(1154,520,cs),
(967,520,o),
(788,428,o),
(789,266,c),
(851,246,l)
);
}
);
width = 1592;
}
);
metricLeft = n;
metricRight = n;
unicode = 109;
},
{
glyphname = n;
lastChange = "2024-09-25 03:32:23 +0000";
layers = (
{
associatedMasterId = "9AADC1C9-C373-4903-A2C4-BDDDC6C38F92";
background = {
shapes = (
{
closed = 1;
nodes = (
(373,520,o),
(253,466,o),
(200,370,c),
(200,190,l),
(210,190,l),
(210,353,o),
(362,419,o),
(506,419,cs),
(636,419,o),
(760,368,o),
(760,220,cs),
(760,0,l),
(870,0,l),
(870,250,ls),
(870,420,o),
(720,520,o),
(520,520,cs)
);
},
{
closed = 1;
nodes = (
(210,0,l),
(210,370,l),
(200,370,l),
(200,500,l),
(100,500,l),
(100,0,l)
);
}
);
};
guides = (
{
pos = (498,435);
},
{
pos = (498,520);
}
);
layerId = "831E2634-E265-400F-9D85-96B50D8AB06A";
name = ALE;
shapes = (
{
closed = 1;
nodes = (
(373,520,o),
(253,466,o),
(200,370,c),
(200,190,l),
(210,190,l),
(210,353,o),
(362,419,o),
(506,419,cs),
(636,419,o),
(760,368,o),
(760,220,cs),
(760,0,l),
(870,0,l),
(870,250,ls),
(870,420,o),
(720,520,o),
(520,520,cs)
);
},
{
closed = 1;
nodes = (
(210,0,l),
(210,370,l),
(200,370,l),
(200,500,l),
(100,500,l),
(100,0,l)
);
}
);
width = 970;
},
{
anchors = (
{
name = bottom;
pos = (445,0);
},
{
name = top;
pos = (445,500);
}
);
layerId = "9AADC1C9-C373-4903-A2C4-BDDDC6C38F92";
shapes = (
{
closed = 1;
nodes = (
(821,0,l),
(821,246,ls),
(821,431,o),
(648,520,o),
(477,520,cs),
(288,520,o),
(109,428,o),
(110,266,c),
(172,266,l),
(172,276,ls),
(172,368,o),
(313,431,o),
(444,431,cs),
(577,431,o),
(711,371,o),
(711,227,cs),
(711,0,l)
);
},
{
closed = 1;
nodes = (
(172,0,l),
(172,352,l),
(162,352,l),
(162,500,l),
(62,500,l),
(62,0,l)
);
}
);
width = 881;
},
{
associatedMasterId = m002;
background = {
shapes = (
{
closed = 1;
nodes = (
(373,520,o),
(253,466,o),
(200,370,c),
(200,190,l),
(210,190,l),
(210,353,o),
(362,419,o),
(506,419,cs),
(636,419,o),
(760,368,o),
(760,220,cs),
(760,0,l),
(870,0,l),
(870,250,ls),
(870,420,o),
(720,520,o),
(520,520,cs)
);
},
{
closed = 1;
nodes = (
(210,0,l),
(210,370,l),
(200,370,l),
(200,500,l),
(100,500,l),
(100,0,l)
);
}
);
};
guides = (
{
pos = (498,435);
},
{
pos = (498,520);
}
);
layerId = "C862F4E4-7C25-48FD-BD9A-BF602E299371";
name = ALE;
shapes = (
{
closed = 1;
nodes = (
(373,520,o),
(253,466,o),
(200,370,c),
(200,190,l),
(210,190,l),
(210,353,o),
(362,419,o),
(506,419,cs),
(636,419,o),
(760,368,o),
(760,220,cs),
(760,0,l),
(870,0,l),
(870,250,ls),
(870,420,o),
(720,520,o),
(520,520,cs)
);
},
{
closed = 1;
nodes = (
(210,0,l),
(210,370,l),
(200,370,l),
(200,500,l),
(100,500,l),
(100,0,l)
);
}
);
width = 970;
},
{
anchors = (
{
name = bottom;
pos = (285,0);
},
{
name = top;
pos = (303,500);
}
);
layerId = m002;
shapes = (
{
closed = 1;
nodes = (
(508,0,l),
(508,335,ls),
(508,469,o),
(416,520,o),
(328,520,cs),
(229,520,o),
(136,467,o),
(137,347,c),
(172,332,l),
(172,336,ls),
(172,394,o),
(231,425,o),
(286,425,cs),
(342,425,o),
(398,396,o),
(398,315,cs),
(398,0,l)
);
},
{
closed = 1;
nodes = (
(172,0,l),
(172,355,l),
(168,355,l),
(168,500,l),
(62,500,l),
(62,0,l)
);
}
);
width = 568;
}
);
unicode = 110;
},
{
glyphname = o;
kernLeft = o;
kernRight = o;
lastChange = "2024-09-25 03:30:15 +0000";
layers = (
{
anchors = (
{
name = bottom;
pos = (440,0);
},
{
name = center;
pos = (440,250);
},
{
name = ogonek;
pos = (792,10);
},
{
name = top;
pos = (440,500);
},
{
name = topright;
pos = (838,500);
}
);
background = {
shapes = (
{
closed = 1;
nodes = (
(220,520,o),
(42,430,o),
(42,250,cs),
(42,70,o),
(220,-20,o),
(440,-20,cs),
(660,-20,o),
(838,70,o),
(838,250,cs),
(838,430,o),
(660,520,o),
(440,520,cs)
);
},
{
closed = 1;
nodes = (
(280,65,o),
(157,135,o),
(157,250,cs),
(157,365,o),
(280,435,o),
(440,435,cs),
(600,435,o),
(723,365,o),
(723,250,cs),
(723,135,o),
(600,65,o),
(440,65,cs)
);
}
);
};
layerId = "9AADC1C9-C373-4903-A2C4-BDDDC6C38F92";
shapes = (
{
closed = 1;
nodes = (
(660,-20,o),
(838,70,o),
(838,250,cs),
(838,430,o),
(660,520,o),
(440,520,cs),
(220,520,o),
(42,430,o),
(42,250,cs),
(42,70,o),
(220,-20,o),
(440,-20,cs)
);
},
{
closed = 1;
nodes = (
(277,65,o),
(154,135,o),
(154,250,cs),
(154,365,o),
(277,435,o),
(440,435,cs),
(603,435,o),
(726,365,o),
(726,250,cs),
(726,135,o),
(603,65,o),
(440,65,cs)
);
}
);
width = 880;
},
{
associatedMasterId = "9AADC1C9-C373-4903-A2C4-BDDDC6C38F92";
background = {
shapes = (
{
closed = 1;
nodes = (
(210,520,o),
(32,430,o),
(32,250,cs),
(32,70,o),
(210,-20,o),
(430,-20,cs),
(650,-20,o),
(828,70,o),
(828,250,cs),
(828,430,o),
(650,520,o),
(430,520,cs)
);
},
{
closed = 1;
nodes = (
(270,65,o),
(147,135,o),
(147,250,cs),
(147,365,o),
(270,435,o),
(430,435,cs),
(590,435,o),
(713,365,o),
(713,250,cs),
(713,135,o),
(590,65,o),
(430,65,cs)
);
}
);
};
layerId = "0AA8D08A-9688-4C5D-8B63-CF18C27B58FD";
name = ALE;
shapes = (
{
closed = 1;
nodes = (
(629,520,o),
(430,520,cs),
(231,520,o),
(32,435,o),
(32,250,cs),
(32,65,o),
(231,-20,o),
(430,-20,cs),
(629,-20,o),
(828,65,o),
(828,250,cs),
(828,435,o)
);
},
{
closed = 1;
nodes = (
(572,70,o),
(430,70,cs),
(289,70,o),
(147,125,o),
(147,250,cs),
(147,376,o),
(289,430,o),
(430,430,cs),
(572,430,o),
(713,376,o),
(713,250,cs),
(713,125,o)
);
}
);
width = 896;
},
{
anchors = (
{
name = bottom;
pos = (288,0);
},
{
name = center;
pos = (288,250);
},
{
name = ogonek;
pos = (414,10);
},
{
name = top;
pos = (288,500);
},
{
name = topright;
pos = (527,500);
}
);
background = {
shapes = (
{
closed = 1;
nodes = (
(317,70,o),
(341,76,o),
(362,91,cs),
(382,105,o),
(399,126,o),
(410,154,cs),
(421,180,o),
(427,213,o),
(427,249,cs),
(427,251,ls),
(427,289,o),
(421,322,o),
(410,348,cs),
(399,374,o),
(383,396,o),
(361,411,cs),
(342,424,o),
(317,430,o),
(289,430,cs),
(261,430,o),
(238,423,o),
(217,409,cs),
(196,395,o),
(181,374,o),
(170,348,cs),
(158,322,o),
(151,289,o),
(151,251,cs),
(151,249,ls),
(151,213,o),
(157,180,o),
(168,154,cs),
(179,126,o),
(196,106,o),
(217,91,cs),
(238,77,o),
(261,70,o),
(291,70,cs)
);
},
{
closed = 1;
nodes = (
(240,-20,o),
(196,-9,o),
(159,13,cs),
(123,34,o),
(93,67,o),
(73,106,cs),
(52,146,o),
(42,194,o),
(42,249,cs),
(42,251,ls),
(42,308,o),
(53,355,o),
(73,394,cs),
(94,435,o),
(123,466,o),
(159,487,cs),
(197,509,o),
(240,520,o),
(289,520,cs),
(338,520,o),
(382,509,o),
(419,487,cs),
(455,466,o),
(484,435,o),
(505,395,cs),
(526,355,o),
(536,308,o),
(536,251,cs),
(536,249,ls),
(536,194,o),
(526,146,o),
(505,106,cs),
(484,65,o),
(455,34,o),
(419,13,cs),
(382,-9,o),
(338,-20,o),
(289,-20,cs)
);
}
);
};
layerId = m002;
shapes = (
{
closed = 1;
nodes = (
(427,-20,o),
(535,70,o),
(535,250,cs),
(535,430,o),
(427,520,o),
(289,520,cs),
(150,520,o),
(42,430,o),
(42,250,cs),
(42,70,o),
(150,-20,o),
(289,-20,cs)
);
},
{
closed = 1;
nodes = (
(208,70,o),
(154,135,o),
(154,250,cs),
(154,365,o),
(208,430,o),
(289,430,cs),
(369,430,o),
(423,365,o),
(423,250,cs),
(423,135,o),
(369,70,o),
(289,70,cs)
);
}
);
width = 577;
},
{
associatedMasterId = m002;
background = {
shapes = (
{
closed = 1;
nodes = (
(210,520,o),
(32,430,o),
(32,250,cs),
(32,70,o),
(210,-20,o),
(430,-20,cs),
(650,-20,o),
(828,70,o),
(828,250,cs),
(828,430,o),
(650,520,o),
(430,520,cs)
);
},
{
closed = 1;
nodes = (
(270,65,o),
(147,135,o),
(147,250,cs),
(147,365,o),
(270,435,o),
(430,435,cs),
(590,435,o),
(713,365,o),
(713,250,cs),
(713,135,o),
(590,65,o),
(430,65,cs)
);
}
);
};
layerId = "9E6213BC-3C70-465B-B542-FFD56C8EF094";
name = ALE;
shapes = (
{
closed = 1;
nodes = (
(629,520,o),
(430,520,cs),
(231,520,o),
(32,435,o),
(32,250,cs),
(32,65,o),
(231,-20,o),
(430,-20,cs),
(629,-20,o),
(828,65,o),
(828,250,cs),
(828,435,o)
);
},
{
closed = 1;
nodes = (
(572,70,o),
(430,70,cs),
(289,70,o),
(147,125,o),
(147,250,cs),
(147,376,o),
(289,430,o),
(430,430,cs),
(572,430,o),
(713,376,o),
(713,250,cs),
(713,125,o)
);
}
);
width = 896;
}
);
metricRight = "=|";
unicode = 111;
},
{
glyphname = oslash;
kernLeft = o;
kernRight = o;
lastChange = "2024-09-19 05:33:02 +0000";
layers = (
{
layerId = "9AADC1C9-C373-4903-A2C4-BDDDC6C38F92";
shapes = (
{
closed = 1;
nodes = (
(194,-56,l),
(816,573,l),
(692,573,l),
(70,-56,l)
);
},
{
ref = o;
}
);
width = 880;
},
{
layerId = m002;
shapes = (
{
closed = 1;
nodes = (
(174,-107,l),
(496,622,l),
(408,622,l),
(86,-107,l)
);
},
{
ref = o;
}
);
width = 577;
}
);
metricLeft = o;
metricRight = o;
unicode = 248;
},
{
glyphname = p;
kernRight = o;
lastChange = "2024-09-25 03:49:01 +0000";
layers = (
{
anchors = (
{
name = bottom;
pos = (439,0);
},
{
name = top;
pos = (439,500);
}
);
background = {
shapes = (
{
closed = 1;
nodes = (
(210,-200,l),
(210,352,l),
(200,352,l),
(200,500,l),
(100,500,l),
(100,-200,l)
);
},
{
closed = 1;
nodes = (
(700,-20,o),
(868,70,o),
(868,250,cs),
(868,430,o),
(700,520,o),
(502,520,cs),
(307,520,o),
(139,430,o),
(139,250,cs),
(139,70,o),
(307,-20,o),
(502,-20,cs)
);
},
{
closed = 1;
nodes = (
(630,435,o),
(753,365,o),
(753,250,cs),
(753,135,o),
(630,65,o),
(480,65,cs),
(333,65,o),
(210,135,o),
(210,250,cs),
(210,365,o),
(333,435,o),
(480,435,cs)
);
}
);
};
layerId = "9AADC1C9-C373-4903-A2C4-BDDDC6C38F92";
shapes = (
{
angle = 180;
pos = (868,500);
ref = d;
}
);
width = 868;
},
{
associatedMasterId = "9AADC1C9-C373-4903-A2C4-BDDDC6C38F92";
background = {
shapes = (
{
closed = 1;
nodes = (
(100,500,l),
(100,-200,l),
(210,-200,l),
(210,500,l)
);
},
{
closed = 1;
nodes = (
(170,80,o),
(320,-20,o),
(520,-20,cs),
(720,-20,o),
(870,80,o),
(870,250,cs),
(870,420,o),
(720,520,o),
(520,520,cs),
(320,520,o),
(170,420,o),
(170,250,cs)
);
},
{
closed = 1;
nodes = (
(210,360,o),
(320,435,o),
(485,435,cs),
(650,435,o),
(760,360,o),
(760,250,cs),
(760,140,o),
(650,65,o),
(485,65,cs),
(320,65,o),
(210,140,o),
(210,250,cs)
);
}
);
};
layerId = "7C9F7B71-1E23-46B9-97E4-95AE6F4B0A6D";
name = ALE;
shapes = (
{
closed = 1;
nodes = (
(100,500,l),
(100,-200,l),
(210,-200,l),
(210,500,l)
);
},
{
closed = 1;
nodes = (
(170,80,o),
(320,-20,o),
(520,-20,cs),
(720,-20,o),
(870,80,o),
(870,250,cs),
(870,420,o),
(720,520,o),
(520,520,cs),
(320,520,o),
(170,420,o),
(170,250,cs)
);
},
{
closed = 1;
nodes = (
(210,360,o),
(320,435,o),
(485,435,cs),
(650,435,o),
(760,360,o),
(760,250,cs),
(760,140,o),
(650,65,o),
(485,65,cs),
(320,65,o),
(210,140,o),
(210,250,cs)
);
}
);
width = 970;
},
{
anchors = (
{
name = bottom;
pos = (314,0);
},
{
name = top;
pos = (314,500);
}
);
layerId = m002;
shapes = (
{
angle = 180;
pos = (587,500);
ref = d;
}
);
width = 587;
},
{
associatedMasterId = m002;
background = {
shapes = (
{
closed = 1;
nodes = (
(100,500,l),
(100,-200,l),
(210,-200,l),
(210,500,l)
);
},
{
closed = 1;
nodes = (
(170,80,o),
(320,-20,o),
(520,-20,cs),
(720,-20,o),
(870,80,o),
(870,250,cs),
(870,420,o),
(720,520,o),
(520,520,cs),
(320,520,o),
(170,420,o),
(170,250,cs)
);
},
{
closed = 1;
nodes = (
(210,360,o),
(320,435,o),
(485,435,cs),
(650,435,o),
(760,360,o),
(760,250,cs),
(760,140,o),
(650,65,o),
(485,65,cs),
(320,65,o),
(210,140,o),
(210,250,cs)
);
}
);
};
layerId = "F2EB0305-6DB5-4E9B-ABAD-A25949868865";
name = ALE;
shapes = (
{
closed = 1;
nodes = (
(100,500,l),
(100,-200,l),
(210,-200,l),
(210,500,l)
);
},
{
closed = 1;
nodes = (
(170,80,o),
(320,-20,o),
(520,-20,cs),
(720,-20,o),
(870,80,o),
(870,250,cs),
(870,420,o),
(720,520,o),
(520,520,cs),
(320,520,o),
(170,420,o),
(170,250,cs)
);
},
{
closed = 1;
nodes = (
(210,360,o),
(320,435,o),
(485,435,cs),
(650,435,o),
(760,360,o),
(760,250,cs),
(760,140,o),
(650,65,o),
(485,65,cs),
(320,65,o),
(210,140,o),
(210,250,cs)
);
}
);
width = 970;
}
);
unicode = 112;
},
{
glyphname = thorn;
kernRight = o;
lastChange = "2024-09-25 01:46:59 +0000";
layers = (
{
layerId = "9AADC1C9-C373-4903-A2C4-BDDDC6C38F92";
shapes = (
{
closed = 1;
nodes = (
(662,-20,o),
(830,70,o),
(830,250,cs),
(830,430,o),
(662,520,o),
(464,520,cs),
(269,520,o),
(101,430,o),
(101,250,cs),
(101,70,o),
(269,-20,o),
(464,-20,cs)
);
},
{
closed = 1;
nodes = (
(172,-200,l),
(172,700,l),
(62,700,l),
(62,-200,l)
);
},
{
closed = 1;
nodes = (
(295,65,o),
(172,135,o),
(172,250,cs),
(172,365,o),
(295,435,o),
(442,435,cs),
(595,435,o),
(718,365,o),
(718,250,cs),
(718,135,o),
(595,65,o),
(442,65,cs)
);
}
);
width = 872;
},
{
background = {
shapes = (
{
closed = 1;
nodes = (
(447,-20,o),
(549,60,o),
(549,250,cs),
(549,430,o),
(447,520,o),
(322,520,cs),
(203,520,o),
(101,430,o),
(101,250,cs),
(101,60,o),
(203,-20,o),
(322,-20,cs)
);
},
{
closed = 1;
nodes = (
(172,-200,l),
(172,700,l),
(62,700,l),
(62,-200,l)
);
},
{
closed = 1;
nodes = (
(232,70,o),
(172,125,o),
(172,250,cs),
(172,375,o),
(232,429,o),
(303,429,cs),
(377,429,o),
(437,375,o),
(437,250,cs),
(437,125,o),
(377,70,o),
(303,70,cs)
);
}
);
};
layerId = m002;
shapes = (
{
closed = 1;
nodes = (
(447,-20,o),
(549,60,o),
(549,250,cs),
(549,430,o),
(447,520,o),
(322,520,cs),
(203,520,o),
(101,430,o),
(101,250,cs),
(101,60,o),
(203,-20,o),
(322,-20,cs)
);
},
{
closed = 1;
nodes = (
(172,-200,l),
(172,700,l),
(62,700,l),
(62,-200,l)
);
},
{
closed = 1;
nodes = (
(232,70,o),
(172,125,o),
(172,250,cs),
(172,375,o),
(232,429,o),
(303,429,cs),
(377,429,o),
(437,375,o),
(437,250,cs),
(437,125,o),
(377,70,o),
(303,70,cs)
);
}
);
width = 591;
}
);
metricLeft = h;
metricRight = p;
unicode = 254;
},
{
glyphname = q;
kernLeft = o;
lastChange = "2024-09-17 04:40:57 +0000";
layers = (
{
anchors = (
{
name = bottom;
pos = (439,0);
},
{
name = top;
pos = (439,500);
}
);
background = {
shapes = (
{
closed = 1;
nodes = (
(806,500,l),
(706,500,l),
(706,352,l),
(696,352,l),
(696,-200,l),
(806,-200,l)
);
},
{
closed = 1;
nodes = (
(599,-20,o),
(767,70,o),
(767,250,cs),
(767,430,o),
(599,520,o),
(404,520,cs),
(206,520,o),
(38,430,o),
(38,250,cs),
(38,70,o),
(206,-20,o),
(404,-20,cs)
);
},
{
closed = 1;
nodes = (
(573,435,o),
(696,365,o),
(696,250,cs),
(696,135,o),
(573,65,o),
(426,65,cs),
(276,65,o),
(153,135,o),
(153,250,cs),
(153,365,o),
(276,435,o),
(426,435,cs)
);
}
);
};
layerId = "9AADC1C9-C373-4903-A2C4-BDDDC6C38F92";
shapes = (
{
pos = (0,500);
ref = d;
scale = (1,-1);
}
);
width = 868;
},
{
associatedMasterId = "9AADC1C9-C373-4903-A2C4-BDDDC6C38F92";
layerId = "396AA05F-3FC0-4AC0-94BD-1A314587AC09";
name = ALE;
shapes = (
{
closed = 1;
nodes = (
(760,-200,l),
(870,-200,l),
(870,500,l),
(760,500,l)
);
},
{
closed = 1;
nodes = (
(800,420,o),
(650,520,o),
(450,520,cs),
(250,520,o),
(100,420,o),
(100,250,cs),
(100,80,o),
(250,-20,o),
(450,-20,cs),
(650,-20,o),
(800,80,o),
(800,250,cs)
);
},
{
closed = 1;
nodes = (
(760,140,o),
(650,65,o),
(485,65,cs),
(320,65,o),
(210,140,o),
(210,250,cs),
(210,360,o),
(320,435,o),
(485,435,cs),
(650,435,o),
(760,360,o),
(760,250,cs)
);
}
);
width = 970;
},
{
anchors = (
{
name = bottom;
pos = (298,0);
},
{
name = top;
pos = (298,500);
}
);
background = {
shapes = (
{
closed = 1;
nodes = (
(806,500,l),
(706,500,l),
(706,352,l),
(696,352,l),
(696,-200,l),
(806,-200,l)
);
},
{
closed = 1;
nodes = (
(599,-20,o),
(767,70,o),
(767,250,cs),
(767,430,o),
(599,520,o),
(404,520,cs),
(206,520,o),
(38,430,o),
(38,250,cs),
(38,70,o),
(206,-20,o),
(404,-20,cs)
);
},
{
closed = 1;
nodes = (
(573,435,o),
(696,365,o),
(696,250,cs),
(696,135,o),
(573,65,o),
(426,65,cs),
(276,65,o),
(153,135,o),
(153,250,cs),
(153,365,o),
(276,435,o),
(426,435,cs)
);
}
);
};
layerId = m002;
shapes = (
{
pos = (0,500);
ref = d;
scale = (1,-1);
}
);
width = 587;
},
{
associatedMasterId = m002;
layerId = "14D84C17-19C8-48E4-AF53-EBC7142CDE79";
name = ALE;
shapes = (
{
closed = 1;
nodes = (
(760,-200,l),
(870,-200,l),
(870,500,l),
(760,500,l)
);
},
{
closed = 1;
nodes = (
(800,420,o),
(650,520,o),
(450,520,cs),
(250,520,o),
(100,420,o),
(100,250,cs),
(100,80,o),
(250,-20,o),
(450,-20,cs),
(650,-20,o),
(800,80,o),
(800,250,cs)
);
},
{
closed = 1;
nodes = (
(760,140,o),
(650,65,o),
(485,65,cs),
(320,65,o),
(210,140,o),
(210,250,cs),
(210,360,o),
(320,435,o),
(485,435,cs),
(650,435,o),
(760,360,o),
(760,250,cs)
);
}
);
width = 970;
}
);
unicode = 113;
},
{
color = 0;
glyphname = r;
kernRight = r;
lastChange = "2024-11-07 23:50:43 +0000";
layers = (
{
associatedMasterId = "9AADC1C9-C373-4903-A2C4-BDDDC6C38F92";
background = {
shapes = (
{
pos = (20,0);
ref = n;
}
);
};
layerId = "60E1A9CE-0327-4891-B72B-BA4F257215C2";
name = "Jun 18 18, 17:07";
shapes = (
{
closed = 1;
nodes = (
(125,0,l),
(235,0,l),
(235,500,l),
(125,500,l)
);
},
{
closed = 1;
nodes = (
(582,517,l),
(329,517,o),
(173,383,o),
(173,195,c),
(235,195,l),
(235,305,o),
(347,418,o),
(582,418,c)
);
}
);
width = 632;
},
{
associatedMasterId = "9AADC1C9-C373-4903-A2C4-BDDDC6C38F92";
background = {
shapes = (
{
closed = 1;
nodes = (
(100,0,l),
(210,0,l),
(210,500,l),
(100,500,l)
);
},
{
closed = 1;
nodes = (
(608,516,l),
(586,519,o),
(563,520,o),
(540,520,cs),
(347,520,o),
(165,421,o),
(165,197,c),
(210,197,l),
(210,336,o),
(373,420,o),
(520,420,cs),
(551,420,o),
(581,416,o),
(608,408,c)
);
}
);
};
layerId = "6C962A60-271F-41E9-A0EE-AFAE2DA19907";
name = "Jan 27 21, 18:20";
shapes = (
{
closed = 1;
nodes = (
(100,0,l),
(210,0,l),
(210,500,l),
(100,500,l)
);
},
{
closed = 1;
nodes = (
(607,512,l),
(371,552,o),
(165,436,o),
(165,191,c),
(210,191,l),
(210,367,o),
(441,461,o),
(607,404,c)
);
}
);
width = 607;
},
{
associatedMasterId = "9AADC1C9-C373-4903-A2C4-BDDDC6C38F92";
background = {
shapes = (
{
closed = 1;
nodes = (
(100,0,l),
(210,0,l),
(210,500,l),
(100,500,l)
);
},
{
closed = 1;
nodes = (
(607,512,l),
(371,552,o),
(165,436,o),
(165,191,c),
(210,191,l),
(210,367,o),
(441,461,o),
(607,404,c)
);
}
);
};
guides = (
{
angle = 90;
pos = (665,475);
}
);
layerId = "195F346B-1851-4B34-AEEF-3429592D2CDE";
name = "14 Jun 21, 0:11";
shapes = (
{
closed = 1;
nodes = (
(100,500,l),
(100,0,l),
(210,0,l),
(210,500,l)
);
},
{
closed = 1;
nodes = (
(665,500,l),
(621,513,o),
(572,520,o),
(520,520,cs),
(320,520,o),
(170,420,o),
(170,250,c),
(210,250,l),
(210,360,o),
(320,435,o),
(485,435,cs),
(557,435,o),
(618,421,o),
(665,395,c)
);
}
);
width = 625;
},
{
associatedMasterId = "9AADC1C9-C373-4903-A2C4-BDDDC6C38F92";
background = {
shapes = (
{
closed = 1;
nodes = (
(100,0,l),
(210,0,l),
(210,500,l),
(100,500,l)
);
},
{
closed = 1;
nodes = (
(607,512,l),
(371,552,o),
(165,436,o),
(165,191,c),
(210,191,l),
(210,367,o),
(441,461,o),
(607,404,c)
);
}
);
};
guides = (
{
angle = 90;
pos = (665,475);
}
);
layerId = "82A69009-D17F-4071-B128-BFE7F81F27FB";
name = "14 Jun 21, 0:11";
shapes = (
{
closed = 1;
nodes = (
(100,500,l),
(100,0,l),
(210,0,l),
(210,500,l)
);
},
{
closed = 1;
nodes = (
(665,500,l),
(621,513,o),
(572,520,o),
(520,520,cs),
(320,520,o),
(170,420,o),
(170,250,c),
(210,250,l),
(210,360,o),
(320,435,o),
(485,435,cs),
(557,435,o),
(618,421,o),
(665,395,c)
);
}
);
width = 625;
},
{
anchors = (
{
name = bottom;
pos = (340,0);
},
{
name = top;
pos = (340,500);
}
);
background = {
shapes = (
{
ref = n;
}
);
};
guides = (
{
pos = (595,360);
},
{
pos = (595,518);
}
);
layerId = "9AADC1C9-C373-4903-A2C4-BDDDC6C38F92";
name = Extended;
shapes = (
{
closed = 1;
nodes = (
(172,236,l),
(172,368,o),
(306,421,o),
(418,421,cs),
(491,421,o),
(554,398,o),
(562,360,c),
(677,360,l),
(666,458,o),
(551,518,o),
(429,518,cs),
(283,518,o),
(127,432,o),
(127,227,c)
);
},
{
closed = 1;
nodes = (
(172,0,l),
(172,335,l),
(162,335,l),
(162,500,l),
(62,500,l),
(62,0,l)
);
}
);
width = 707;
},
{
associatedMasterId = m002;
background = {
shapes = (
{
pos = (20,0);
ref = n;
}
);
};
layerId = "B4AFA4B8-5BEF-456E-A9C9-CBFBA5CC26A6";
name = "Jun 18 18, 17:07";
shapes = (
{
closed = 1;
nodes = (
(125,0,l),
(235,0,l),
(235,500,l),
(125,500,l)
);
},
{
closed = 1;
nodes = (
(582,517,l),
(329,517,o),
(173,383,o),
(173,195,c),
(235,195,l),
(235,305,o),
(347,418,o),
(582,418,c)
);
}
);
width = 632;
},
{
associatedMasterId = m002;
background = {
shapes = (
{
closed = 1;
nodes = (
(100,0,l),
(210,0,l),
(210,500,l),
(100,500,l)
);
},
{
closed = 1;
nodes = (
(608,516,l),
(586,519,o),
(563,520,o),
(540,520,cs),
(347,520,o),
(165,421,o),
(165,197,c),
(210,197,l),
(210,336,o),
(373,420,o),
(520,420,cs),
(551,420,o),
(581,416,o),
(608,408,c)
);
}
);
};
layerId = "65E19879-1D76-4D96-B127-9457A782B03A";
name = "Jan 27 21, 18:20";
shapes = (
{
closed = 1;
nodes = (
(100,0,l),
(210,0,l),
(210,500,l),
(100,500,l)
);
},
{
closed = 1;
nodes = (
(607,512,l),
(371,552,o),
(165,436,o),
(165,191,c),
(210,191,l),
(210,367,o),
(441,461,o),
(607,404,c)
);
}
);
width = 607;
},
{
associatedMasterId = m002;
background = {
shapes = (
{
closed = 1;
nodes = (
(100,0,l),
(210,0,l),
(210,500,l),
(100,500,l)
);
},
{
closed = 1;
nodes = (
(607,512,l),
(371,552,o),
(165,436,o),
(165,191,c),
(210,191,l),
(210,367,o),
(441,461,o),
(607,404,c)
);
}
);
};
guides = (
{
angle = 90;
pos = (665,475);
}
);
layerId = "80C93D07-13EF-4751-BB50-FBEEF083749E";
name = "14 Jun 21, 0:11";
shapes = (
{
closed = 1;
nodes = (
(100,500,l),
(100,0,l),
(210,0,l),
(210,500,l)
);
},
{
closed = 1;
nodes = (
(665,500,l),
(621,513,o),
(572,520,o),
(520,520,cs),
(320,520,o),
(170,420,o),
(170,250,c),
(210,250,l),
(210,360,o),
(320,435,o),
(485,435,cs),
(557,435,o),
(618,421,o),
(665,395,c)
);
}
);
width = 625;
},
{
associatedMasterId = m002;
background = {
shapes = (
{
closed = 1;
nodes = (
(100,0,l),
(210,0,l),
(210,500,l),
(100,500,l)
);
},
{
closed = 1;
nodes = (
(607,512,l),
(371,552,o),
(165,436,o),
(165,191,c),
(210,191,l),
(210,367,o),
(441,461,o),
(607,404,c)
);
}
);
};
guides = (
{
angle = 90;
pos = (665,475);
}
);
layerId = "FD9AD74E-8ED8-4E0D-81DA-6B0A6FB10CAE";
name = "14 Jun 21, 0:11";
shapes = (
{
closed = 1;
nodes = (
(100,500,l),
(100,0,l),
(210,0,l),
(210,500,l)
);
},
{
closed = 1;
nodes = (
(665,500,l),
(621,513,o),
(572,520,o),
(520,520,cs),
(320,520,o),
(170,420,o),
(170,250,c),
(210,250,l),
(210,360,o),
(320,435,o),
(485,435,cs),
(557,435,o),
(618,421,o),
(665,395,c)
);
}
);
width = 625;
},
{
anchors = (
{
name = bottom;
pos = (250,0);
},
{
name = top;
pos = (250,500);
}
);
background = {
anchors = (
{
name = bottom;
pos = (263,0);
},
{
name = top;
pos = (263,500);
}
);
shapes = (
{
closed = 1;
nodes = (
(172,0,l),
(172,352,l),
(168,352,l),
(168,500,l),
(62,500,l),
(62,0,l)
);
},
{
closed = 1;
nodes = (
(489,330,l),
(426,287,l),
(478,468,o),
(391,519,o),
(312,519,cs),
(229,519,o),
(146,470,o),
(147,350,c),
(172,339,l),
(172,397,o),
(221,429,o),
(270,429,cs),
(341,429,o),
(362,399,o),
(319,281,c),
(286,330,l)
);
}
);
};
guides = (
{
pos = (585,330);
},
{
pos = (595,519);
}
);
layerId = m002;
name = Extended;
shapes = (
{
closed = 1;
nodes = (
(172,339,l),
(172,397,o),
(221,429,o),
(260,429,cs),
(318,429,o),
(342,408,o),
(341,330,c),
(447,330,l),
(451,476,o),
(373,519,o),
(302,519,cs),
(229,519,o),
(146,470,o),
(147,350,c)
);
},
{
closed = 1;
nodes = (
(172,0,l),
(172,352,l),
(168,352,l),
(168,500,l),
(62,500,l),
(62,0,l)
);
}
);
width = 454;
},
{
anchors = (
{
name = bottom;
pos = (263,0);
},
{
name = top;
pos = (263,500);
}
);
associatedMasterId = m002;
background = {
shapes = (
{
closed = 1;
nodes = (
(172,236,l),
(172,368,o),
(306,421,o),
(418,421,cs),
(491,421,o),
(554,398,o),
(562,360,c),
(677,360,l),
(666,458,o),
(551,518,o),
(429,518,cs),
(283,518,o),
(127,432,o),
(127,227,c)
);
},
{
closed = 1;
nodes = (
(172,0,l),
(172,375,l),
(162,375,l),
(162,500,l),
(62,500,l),
(62,0,l)
);
}
);
};
guides = (
{
pos = (638,360);
}
);
layerId = "7CFD9C75-AD29-429B-8386-DA718786C2AA";
name = "23 Oct 24 at 19:50";
shapes = (
{
closed = 1;
nodes = (
(172,333,ls),
(172,391,o),
(221,418,o),
(270,418,cs),
(340,418,o),
(385,382,o),
(360,254,c),
(316,360,l),
(475,360,l),
(464,473,o),
(388,513,o),
(312,513,cs),
(229,513,o),
(146,464,o),
(147,344,c)
);
},
{
closed = 1;
nodes = (
(172,0,l),
(172,352,l),
(168,352,l),
(168,500,l),
(62,500,l),
(62,0,l)
);
}
);
width = 487;
},
{
anchors = (
{
name = bottom;
pos = (340,0);
},
{
name = top;
pos = (340,500);
}
);
associatedMasterId = "9AADC1C9-C373-4903-A2C4-BDDDC6C38F92";
background = {
shapes = (
{
closed = 1;
nodes = (
(172,0,l),
(172,335,l),
(162,335,l),
(162,500,l),
(62,500,l),
(62,0,l)
);
},
{
closed = 1;
nodes = (
(677,360,l),
(666,458,o),
(551,518,o),
(429,518,cs),
(283,518,o),
(127,432,o),
(127,227,c),
(172,236,l),
(172,368,o),
(306,421,o),
(418,421,cs),
(491,421,o),
(554,398,o),
(562,360,c)
);
}
);
};
guides = (
{
pos = (585,330);
},
{
pos = (595,519);
}
);
layerId = "01A09618-CEA9-4D9B-ABC5-44F9211156A8";
name = "23 Oct 24 at 19:52";
shapes = (
{
closed = 1;
nodes = (
(172,0,l),
(172,335,l),
(162,335,l),
(162,500,l),
(62,500,l),
(62,0,l)
);
},
{
closed = 1;
nodes = (
(605,330,l),
(626,458,o),
(503,519,o),
(399,519,cs),
(273,519,o),
(127,432,o),
(127,227,c),
(172,236,l),
(172,368,o),
(286,421,o),
(378,421,cs),
(431,421,o),
(504,398,o),
(490,330,c)
);
}
);
width = 641;
}
);
metricLeft = n;
unicode = 114;
},
{
glyphname = s;
kernLeft = s;
kernRight = s;
lastChange = "2024-09-17 03:16:57 +0000";
layers = (
{
associatedMasterId = "9AADC1C9-C373-4903-A2C4-BDDDC6C38F92";
background = {
shapes = (
{
closed = 1;
nodes = (
(693,169,o),
(616,176,o),
(445,201,cs),
(299,222,o),
(148,239,o),
(148,354,cs),
(148,577,o),
(773,583,o),
(798,331,c),
(686,331,l),
(661,461,o),
(263,434,o),
(263,365,cs),
(263,329,o),
(340,322,o),
(487,300,cs),
(670,273,o),
(808,257,o),
(808,144,cs),
(808,-78,o),
(153,-84,o),
(130,175,c),
(242,175,l),
(268,37,o),
(693,67,o),
(693,134,cs)
);
}
);
};
layerId = "1FE9BE87-0807-451A-BB2A-6D7C590B672D";
name = OTRO;
shapes = (
{
closed = 1;
nodes = (
(218,333,o),
(317,324,o),
(479,301,cs),
(680,272,o),
(848,261,o),
(848,144,cs),
(848,36,o),
(689,-20,o),
(485,-20,cs),
(276,-20,o),
(102,45,o),
(90,175,c),
(205,175,l),
(218,107,o),
(328,79,o),
(477,78,cs),
(632,77,o),
(738,101,o),
(738,134,cs),
(738,173,o),
(639,178,o),
(449,205,cs),
(291,227,o),
(108,243,o),
(108,354,cs),
(108,464,o),
(259,521,o),
(455,521,cs),
(657,521,o),
(825,459,o),
(838,331,c),
(723,331,l),
(710,396,o),
(607,422,o),
(464,423,cs),
(317,424,o),
(218,399,o),
(218,365,cs)
);
}
);
width = 938;
},
{
anchors = (
{
name = bottom;
pos = (412,0);
},
{
name = top;
pos = (412,500);
}
);
background = {
shapes = (
{
closed = 1;
nodes = (
(620,-20,o),
(782,36,o),
(782,143,cs),
(782,255,o),
(599,267,o),
(435,292,cs),
(301,313,o),
(180,328,o),
(180,370,cs),
(180,412,o),
(280,437,o),
(416,436,cs),
(552,435,o),
(654,409,o),
(666,331,c),
(775,331,l),
(764,459,o),
(597,521,o),
(404,521,cs),
(221,521,o),
(68,464,o),
(68,362,cs),
(68,247,o),
(265,234,o),
(434,208,cs),
(560,189,o),
(670,178,o),
(670,134,cs),
(670,88,o),
(562,64,o),
(418,65,cs),
(272,66,o),
(162,94,o),
(150,175,c),
(42,175,l),
(52,45,o),
(225,-20,o),
(426,-20,cs)
);
}
);
};
layerId = "9AADC1C9-C373-4903-A2C4-BDDDC6C38F92";
shapes = (
{
closed = 1;
nodes = (
(615,-20,o),
(782,32,o),
(782,136,cs),
(782,247,o),
(599,268,o),
(435,292,cs),
(301,312,o),
(180,328,o),
(180,372,cs),
(180,412,o),
(280,437,o),
(416,436,cs),
(552,435,o),
(654,409,o),
(666,331,c),
(775,331,l),
(764,459,o),
(597,521,o),
(404,521,cs),
(221,521,o),
(68,468,o),
(68,366,cs),
(68,251,o),
(265,234,o),
(434,208,cs),
(560,189,o),
(670,176,o),
(670,131,cs),
(670,86,o),
(562,64,o),
(420,65,cs),
(272,66,o),
(162,94,o),
(150,175,c),
(42,175,l),
(52,45,o),
(220,-20,o),
(421,-20,cs)
);
}
);
width = 824;
},
{
associatedMasterId = "9AADC1C9-C373-4903-A2C4-BDDDC6C38F92";
background = {
shapes = (
{
closed = 1;
nodes = (
(685,-20,o),
(844,36,o),
(844,144,cs),
(844,255,o),
(676,263,o),
(475,294,cs),
(283,324,o),
(217,334,o),
(217,368,cs),
(217,410,o),
(353,430,o),
(455,430,cs),
(597,430,o),
(699,395,o),
(713,331,c),
(828,331,l),
(814,458,o),
(647,520,o),
(446,520,cs),
(255,520,o),
(104,463,o),
(104,360,cs),
(104,246,o),
(287,234,o),
(445,212,cs),
(635,185,o),
(731,178,o),
(731,134,cs),
(731,96,o),
(628,60,o),
(473,60,cs),
(324,60,o),
(211,106,o),
(201,175,c),
(86,175,l),
(95,45,o),
(272,-20,o),
(481,-20,cs)
);
}
);
};
layerId = "13DD4CB7-CA9E-4368-A376-2EE795D3F0EF";
name = ALE;
shapes = (
{
closed = 1;
nodes = (
(282,312,o),
(230,331,o),
(230,371,cs),
(230,411,o),
(327,435,o),
(431,435,cs),
(548,435,o),
(630,409,o),
(670,359,c),
(770,359,l),
(744,467,o),
(589,520,o),
(426,520,cs),
(270,520,o),
(120,471,o),
(120,368,cs),
(120,274,o),
(207,228,o),
(419,212,cs),
(487,207,ls),
(626,197,o),
(688,177,o),
(688,135,cs),
(688,88,o),
(592,65,o),
(473,65,cs),
(339,65,o),
(229,100,o),
(200,158,c),
(100,158,l),
(121,43,o),
(268,-20,o),
(468,-20,cs),
(643,-20,o),
(798,30,o),
(798,140,cs),
(798,226,o),
(724,280,o),
(501,296,cs),
(432,301,ls)
);
}
);
width = 898;
},
{
associatedMasterId = m002;
background = {
shapes = (
{
closed = 1;
nodes = (
(693,169,o),
(616,176,o),
(445,201,cs),
(299,222,o),
(148,239,o),
(148,354,cs),
(148,577,o),
(773,583,o),
(798,331,c),
(686,331,l),
(661,461,o),
(263,434,o),
(263,365,cs),
(263,329,o),
(340,322,o),
(487,300,cs),
(670,273,o),
(808,257,o),
(808,144,cs),
(808,-78,o),
(153,-84,o),
(130,175,c),
(242,175,l),
(268,37,o),
(693,67,o),
(693,134,cs)
);
}
);
};
layerId = "7496B556-3788-44DA-8D84-5A3386EFCA04";
name = OTRO;
shapes = (
{
closed = 1;
nodes = (
(218,333,o),
(317,324,o),
(479,301,cs),
(680,272,o),
(848,261,o),
(848,144,cs),
(848,36,o),
(689,-20,o),
(485,-20,cs),
(276,-20,o),
(102,45,o),
(90,175,c),
(205,175,l),
(218,107,o),
(328,79,o),
(477,78,cs),
(632,77,o),
(738,101,o),
(738,134,cs),
(738,173,o),
(639,178,o),
(449,205,cs),
(291,227,o),
(108,243,o),
(108,354,cs),
(108,464,o),
(259,521,o),
(455,521,cs),
(657,521,o),
(825,459,o),
(838,331,c),
(723,331,l),
(710,396,o),
(607,422,o),
(464,423,cs),
(317,424,o),
(218,399,o),
(218,365,cs)
);
}
);
width = 938;
},
{
anchors = (
{
name = bottom;
pos = (248,0);
},
{
name = top;
pos = (248,500);
}
);
background = {
shapes = (
{
closed = 1;
nodes = (
(216,-20,o),
(180,-11,o),
(147,3,c),
(115,12,o),
(92,31,o),
(74,58,c),
(55,81,o),
(46,109,o),
(42,141,c),
(42,146,l),
(147,146,l),
(147,141,l),
(157,113,o),
(166,95,o),
(184,86,c),
(203,72,o),
(226,63,o),
(262,63,c),
(281,63,o),
(299,67,o),
(318,72,c),
(331,77,o),
(341,86,o),
(350,95,c),
(359,104,o),
(364,118,o),
(364,132,c),
(364,132,l),
(364,150,o),
(359,164,o),
(345,173,c),
(336,182,o),
(318,192,o),
(290,196,c),
(203,219,l),
(170,224,o),
(143,238,o),
(120,247,c),
(101,261,o),
(83,279,o),
(74,297,c),
(60,316,o),
(55,339,o),
(55,362,c),
(55,362,l),
(55,394,o),
(65,422,o),
(83,445,c),
(97,468,o),
(120,486,o),
(152,500,c),
(180,514,o),
(216,518,o),
(258,518,c),
(299,518,o),
(331,514,o),
(364,500,c),
(391,486,o),
(414,468,o),
(433,445,c),
(446,417,o),
(456,394,o),
(460,362,c),
(460,357,l),
(359,357,l),
(359,362,l),
(354,385,o),
(345,403,o),
(327,417,c),
(308,431,o),
(285,435,o),
(258,435,c),
(239,435,o),
(221,435,o),
(207,431,c),
(193,422,o),
(180,417,o),
(175,403,c),
(166,394,o),
(161,385,o),
(161,371,c),
(161,366,l),
(161,357,o),
(166,348,o),
(170,339,c),
(175,330,o),
(184,325,o),
(193,316,c),
(207,311,o),
(221,307,o),
(239,302,c),
(327,284,l),
(377,270,o),
(414,251,o),
(437,228,c),
(460,210,o),
(469,178,o),
(469,141,c),
(469,141,l),
(469,109,o),
(460,81,o),
(442,58,c),
(423,35,o),
(400,12,o),
(368,3,c),
(336,-11,o),
(299,-20,o),
(262,-20,c)
);
}
);
};
layerId = m002;
shapes = (
{
closed = 1;
nodes = (
(369,-20,o),
(469,33,o),
(469,133,cs),
(469,226,o),
(389,262,o),
(311,287,cs),
(238,312,o),
(167,327,o),
(167,374,cs),
(167,413,o),
(205,430,o),
(252,430,cs),
(296,430,o),
(348,413,o),
(349,352,c),
(458,352,l),
(458,468,o),
(357,520,o),
(253,520,cs),
(150,520,o),
(55,476,o),
(55,372,cs),
(55,270,o),
(147,238,o),
(230,212,cs),
(297,192,o),
(357,175,o),
(357,128,cs),
(357,92,o),
(314,70,o),
(264,70,cs),
(209,70,o),
(156,90,o),
(150,150,c),
(42,150,l),
(47,30,o),
(153,-20,o),
(263,-20,cs)
);
}
);
width = 511;
},
{
associatedMasterId = m002;
background = {
shapes = (
{
closed = 1;
nodes = (
(685,-20,o),
(844,36,o),
(844,144,cs),
(844,255,o),
(676,263,o),
(475,294,cs),
(283,324,o),
(217,334,o),
(217,368,cs),
(217,410,o),
(353,430,o),
(455,430,cs),
(597,430,o),
(699,395,o),
(713,331,c),
(828,331,l),
(814,458,o),
(647,520,o),
(446,520,cs),
(255,520,o),
(104,463,o),
(104,360,cs),
(104,246,o),
(287,234,o),
(445,212,cs),
(635,185,o),
(731,178,o),
(731,134,cs),
(731,96,o),
(628,60,o),
(473,60,cs),
(324,60,o),
(211,106,o),
(201,175,c),
(86,175,l),
(95,45,o),
(272,-20,o),
(481,-20,cs)
);
}
);
};
layerId = "7D747EAD-58D0-41AE-B3FA-F061E811B470";
name = ALE;
shapes = (
{
closed = 1;
nodes = (
(282,312,o),
(230,331,o),
(230,371,cs),
(230,411,o),
(327,435,o),
(431,435,cs),
(548,435,o),
(630,409,o),
(670,359,c),
(770,359,l),
(744,467,o),
(589,520,o),
(426,520,cs),
(270,520,o),
(120,471,o),
(120,368,cs),
(120,274,o),
(207,228,o),
(419,212,cs),
(487,207,ls),
(626,197,o),
(688,177,o),
(688,135,cs),
(688,88,o),
(592,65,o),
(473,65,cs),
(339,65,o),
(229,100,o),
(200,158,c),
(100,158,l),
(121,43,o),
(268,-20,o),
(468,-20,cs),
(643,-20,o),
(798,30,o),
(798,140,cs),
(798,226,o),
(724,280,o),
(501,296,cs),
(432,301,ls)
);
}
);
width = 898;
},
{
anchors = (
{
name = bottom;
pos = (412,0);
},
{
name = top;
pos = (412,500);
}
);
associatedMasterId = m002;
background = {
shapes = (
{
closed = 1;
nodes = (
(356,0,o),
(320,6,o),
(291,18,c),
(261,30,o),
(237,47,o),
(220,71,c),
(202,95,o),
(190,124,o),
(190,154,c),
(190,160,l),
(291,160,l),
(291,154,l),
(297,130,o),
(309,113,o),
(326,101,c),
(344,89,o),
(368,77,o),
(397,77,c),
(421,77,o),
(439,83,o),
(457,89,c),
(469,95,o),
(480,101,o),
(486,113,c),
(498,119,o),
(498,130,o),
(498,148,c),
(498,148,l),
(498,160,o),
(492,178,o),
(486,184,c),
(475,196,o),
(457,202,o),
(427,213,c),
(344,231,l),
(314,237,o),
(285,249,o),
(267,261,c),
(243,273,o),
(226,290,o),
(220,308,c),
(208,326,o),
(202,350,o),
(202,373,c),
(202,373,l),
(202,403,o),
(208,427,o),
(226,450,c),
(243,474,o),
(267,492,o),
(297,504,c),
(326,516,o),
(356,522,o),
(397,522,c),
(439,522,o),
(469,516,o),
(498,504,c),
(528,492,o),
(552,474,o),
(569,450,c),
(581,427,o),
(593,397,o),
(593,373,c),
(593,367,l),
(498,367,l),
(498,367,l),
(492,391,o),
(480,409,o),
(469,421,c),
(451,439,o),
(427,445,o),
(397,445,c),
(380,445,o),
(362,439,o),
(350,439,c),
(332,433,o),
(326,421,o),
(314,415,c),
(309,403,o),
(309,391,o),
(309,379,c),
(309,379,l),
(309,367,o),
(309,356,o),
(314,350,c),
(320,338,o),
(326,332,o),
(338,326,c),
(350,320,o),
(362,314,o),
(380,314,c),
(463,290,l),
(516,279,o),
(552,267,o),
(575,243,c),
(593,219,o),
(605,190,o),
(605,154,c),
(605,154,l),
(605,124,o),
(599,95,o),
(581,71,c),
(563,47,o),
(540,30,o),
(504,18,c),
(475,6,o),
(439,0,o),
(397,0,c)
);
}
);
};
layerId = "8FDFCF47-56B0-4EC5-BF2B-072FCAEBD052";
name = "16 Sep 24 at 11:12";
shapes = (
{
closed = 1;
nodes = (
(615,-20,o),
(782,32,o),
(782,136,cs),
(782,247,o),
(599,268,o),
(435,292,cs),
(301,312,o),
(180,328,o),
(180,372,cs),
(180,412,o),
(280,437,o),
(416,436,cs),
(552,435,o),
(654,409,o),
(666,331,c),
(775,331,l),
(764,459,o),
(597,521,o),
(404,521,cs),
(221,521,o),
(68,468,o),
(68,366,cs),
(68,251,o),
(265,234,o),
(434,208,cs),
(560,189,o),
(670,176,o),
(670,131,cs),
(670,86,o),
(562,64,o),
(420,65,cs),
(272,66,o),
(162,94,o),
(150,175,c),
(42,175,l),
(52,45,o),
(220,-20,o),
(421,-20,cs)
);
}
);
width = 824;
}
);
metricLeft = o;
metricRight = o;
unicode = 115;
},
{
glyphname = t;
lastChange = "2024-09-19 05:34:55 +0000";
layers = (
{
anchors = (
{
name = bottom;
pos = (395,0);
},
{
name = center;
pos = (320,250);
},
{
name = top;
pos = (320,500);
},
{
name = topright;
pos = (287,781);
}
);
background = {
anchors = (
{
name = bottom;
pos = (320,0);
},
{
name = center;
pos = (320,250);
},
{
name = top;
pos = (320,500);
},
{
name = topright;
pos = (326,700);
}
);
shapes = (
{
closed = 1;
nodes = (
(513,-20,o),
(616,31,o),
(624,124,c),
(515,124,l),
(510,89,o),
(460,68,o),
(406,68,cs),
(343,68,o),
(276,97,o),
(276,171,cs),
(276,619,l),
(176,619,l),
(176,447,l),
(166,436,l),
(166,182,ls),
(166,42,o),
(291,-20,o),
(407,-20,cs)
);
},
{
closed = 1;
nodes = (
(592,418,l),
(592,500,l),
(-14,500,l),
(-14,418,l)
);
}
);
};
layerId = "9AADC1C9-C373-4903-A2C4-BDDDC6C38F92";
shapes = (
{
closed = 1;
nodes = (
(513,-20,o),
(616,31,o),
(624,124,c),
(515,124,l),
(510,89,o),
(460,68,o),
(406,68,cs),
(343,68,o),
(276,97,o),
(276,171,cs),
(276,619,l),
(176,619,l),
(176,447,l),
(166,436,l),
(166,182,ls),
(166,42,o),
(291,-20,o),
(407,-20,cs)
);
},
{
closed = 1;
nodes = (
(592,418,l),
(592,500,l),
(-14,500,l),
(-14,418,l)
);
}
);
width = 660;
},
{
associatedMasterId = "9AADC1C9-C373-4903-A2C4-BDDDC6C38F92";
layerId = "6CC6E6F2-5BF8-4A73-BC94-A69EF8EC5BE0";
name = "Apr 1 18, 17:22";
shapes = (
{
closed = 1;
nodes = (
(247,-31,o),
(456,-69,o),
(609,36,c),
(573,113,l),
(440,43,o),
(357,61,o),
(357,215,cs),
(357,609,l),
(247,609,l),
(247,191,ls)
);
},
{
closed = 1;
nodes = (
(70,405,l),
(515,405,l),
(515,500,l),
(70,500,l)
);
}
);
width = 619;
},
{
associatedMasterId = "9AADC1C9-C373-4903-A2C4-BDDDC6C38F92";
layerId = "FE3B66E3-1497-49A5-9C27-15AF438276B2";
name = "Jun 18 18, 17:19";
shapes = (
{
closed = 1;
nodes = (
(337,609,l),
(227,609,l),
(227,142,ls),
(227,26,o),
(324,-20,o),
(412,-20,cs),
(504,-20,o),
(589,25,o),
(589,124,c),
(479,124,l),
(477,89,o),
(449,78,o),
(413,78,cs),
(380,78,o),
(337,90,o),
(337,143,cs)
);
},
{
closed = 1;
nodes = (
(40,405,l),
(525,405,l),
(525,500,l),
(40,500,l)
);
}
);
width = 669;
},
{
associatedMasterId = "9AADC1C9-C373-4903-A2C4-BDDDC6C38F92";
background = {
shapes = (
{
closed = 1;
nodes = (
(354,609,l),
(244,609,l),
(244,142,ls),
(244,26,o),
(341,-20,o),
(459,-20,cs),
(581,-20,o),
(666,25,o),
(666,124,c),
(556,124,l),
(554,89,o),
(526,78,o),
(460,78,cs),
(397,78,o),
(354,90,o),
(354,143,cs)
);
}
);
};
layerId = "6517AB6E-6329-40ED-A0B6-D35AB2789377";
name = "Jul 13 18, 11:52";
shapes = (
{
closed = 1;
nodes = (
(354,609,l),
(244,609,l),
(244,163,ls),
(244,36,o),
(341,-20,o),
(459,-20,cs),
(581,-20,o),
(666,25,o),
(672,124,c),
(558,124,l),
(552,86,o),
(506,78,o),
(457,78,cs),
(405,78,o),
(354,95,o),
(354,165,cs)
);
},
{
closed = 1;
nodes = (
(4,405,l),
(602,405,l),
(602,500,l),
(4,500,l)
);
}
);
width = 742;
},
{
associatedMasterId = "9AADC1C9-C373-4903-A2C4-BDDDC6C38F92";
background = {
shapes = (
{
closed = 1;
nodes = (
(345,609,l),
(235,609,l),
(235,163,ls),
(235,36,o),
(332,-20,o),
(450,-20,cs),
(572,-20,o),
(657,25,o),
(663,124,c),
(547,124,l),
(539,58,o),
(345,48,o),
(345,160,cs)
);
},
{
closed = 1;
nodes = (
(45,405,l),
(563,405,l),
(563,500,l),
(45,500,l)
);
}
);
};
layerId = "FC2B5633-4CD7-406D-AC8B-D2A30FE81FAC";
name = "Feb 2 21, 21:21";
shapes = (
{
closed = 1;
nodes = (
(345,609,l),
(235,609,l),
(235,163,ls),
(235,36,o),
(332,-20,o),
(450,-20,cs),
(572,-20,o),
(657,25,o),
(663,124,c),
(547,124,l),
(539,58,o),
(345,48,o),
(345,160,cs)
);
},
{
closed = 1;
nodes = (
(45,405,l),
(563,405,l),
(563,500,l),
(45,500,l)
);
}
);
width = 733;
},
{
anchors = (
{
name = bottom;
pos = (245,0);
},
{
name = center;
pos = (170,250);
},
{
name = top;
pos = (170,500);
},
{
name = topright;
pos = (220,782);
}
);
background = {
shapes = (
{
closed = 1;
nodes = (
(323,-20,o),
(394,18,o),
(386,124,c),
(290,124,l),
(290,85,o),
(273,78,o),
(256,78,cs),
(237,78,o),
(219,86,o),
(219,121,cs),
(219,619,l),
(113,619,l),
(113,447,l),
(109,436,l),
(109,121,ls),
(109,17,o),
(187,-20,o),
(258,-20,cs)
);
},
{
closed = 1;
nodes = (
(381,418,l),
(381,500,l),
(8,500,l),
(8,418,l)
);
}
);
};
layerId = m002;
shapes = (
{
closed = 1;
nodes = (
(343,-20,o),
(414,18,o),
(406,124,c),
(310,124,l),
(310,90,o),
(293,78,o),
(266,78,cs),
(237,78,o),
(219,91,o),
(219,121,cs),
(219,619,l),
(113,619,l),
(113,447,l),
(109,436,l),
(109,121,ls),
(109,17,o),
(187,-20,o),
(268,-20,cs)
);
},
{
closed = 1;
nodes = (
(381,418,l),
(381,500,l),
(8,500,l),
(8,418,l)
);
}
);
width = 439;
},
{
associatedMasterId = m002;
layerId = "4DF436A7-0294-4E0A-8ECA-48B32110F3A5";
name = "Apr 1 18, 17:22";
shapes = (
{
closed = 1;
nodes = (
(247,-31,o),
(456,-69,o),
(609,36,c),
(573,113,l),
(440,43,o),
(357,61,o),
(357,215,cs),
(357,609,l),
(247,609,l),
(247,191,ls)
);
},
{
closed = 1;
nodes = (
(70,405,l),
(515,405,l),
(515,500,l),
(70,500,l)
);
}
);
width = 619;
},
{
associatedMasterId = m002;
layerId = "E3CC4A9A-1920-4E63-B9B6-00850AA37371";
name = "Jun 18 18, 17:19";
shapes = (
{
closed = 1;
nodes = (
(337,609,l),
(227,609,l),
(227,142,ls),
(227,26,o),
(324,-20,o),
(412,-20,cs),
(504,-20,o),
(589,25,o),
(589,124,c),
(479,124,l),
(477,89,o),
(449,78,o),
(413,78,cs),
(380,78,o),
(337,90,o),
(337,143,cs)
);
},
{
closed = 1;
nodes = (
(40,405,l),
(525,405,l),
(525,500,l),
(40,500,l)
);
}
);
width = 669;
},
{
associatedMasterId = m002;
background = {
shapes = (
{
closed = 1;
nodes = (
(354,609,l),
(244,609,l),
(244,142,ls),
(244,26,o),
(341,-20,o),
(459,-20,cs),
(581,-20,o),
(666,25,o),
(666,124,c),
(556,124,l),
(554,89,o),
(526,78,o),
(460,78,cs),
(397,78,o),
(354,90,o),
(354,143,cs)
);
}
);
};
layerId = "A6C8F5B7-EDCB-4793-9883-341E02CA0379";
name = "Jul 13 18, 11:52";
shapes = (
{
closed = 1;
nodes = (
(354,609,l),
(244,609,l),
(244,163,ls),
(244,36,o),
(341,-20,o),
(459,-20,cs),
(581,-20,o),
(666,25,o),
(672,124,c),
(558,124,l),
(552,86,o),
(506,78,o),
(457,78,cs),
(405,78,o),
(354,95,o),
(354,165,cs)
);
},
{
closed = 1;
nodes = (
(4,405,l),
(602,405,l),
(602,500,l),
(4,500,l)
);
}
);
width = 742;
},
{
associatedMasterId = m002;
background = {
shapes = (
{
closed = 1;
nodes = (
(345,609,l),
(235,609,l),
(235,163,ls),
(235,36,o),
(332,-20,o),
(450,-20,cs),
(572,-20,o),
(657,25,o),
(663,124,c),
(547,124,l),
(539,58,o),
(345,48,o),
(345,160,cs)
);
},
{
closed = 1;
nodes = (
(45,405,l),
(563,405,l),
(563,500,l),
(45,500,l)
);
}
);
};
layerId = "DF4F94C9-3287-4BFC-90FE-98A466C502E0";
name = "Feb 2 21, 21:21";
shapes = (
{
closed = 1;
nodes = (
(345,609,l),
(235,609,l),
(235,163,ls),
(235,36,o),
(332,-20,o),
(450,-20,cs),
(572,-20,o),
(657,25,o),
(663,124,c),
(547,124,l),
(539,58,o),
(345,48,o),
(345,160,cs)
);
},
{
closed = 1;
nodes = (
(45,405,l),
(563,405,l),
(563,500,l),
(45,500,l)
);
}
);
width = 733;
}
);
unicode = 116;
},
{
glyphname = u;
lastChange = "2024-09-17 03:17:24 +0000";
layers = (
{
anchors = (
{
name = bottom;
pos = (445,0);
},
{
name = ogonek;
pos = (800,10);
},
{
name = top;
pos = (445,500);
},
{
name = topright;
pos = (869,500);
}
);
background = {
shapes = (
{
closed = 1;
nodes = (
(597,-20,o),
(717,34,o),
(770,130,c),
(770,310,l),
(760,310,l),
(760,147,o),
(608,81,o),
(464,81,cs),
(334,81,o),
(210,132,o),
(210,280,cs),
(210,500,l),
(100,500,l),
(100,250,ls),
(100,80,o),
(250,-20,o),
(450,-20,cs)
);
},
{
closed = 1;
nodes = (
(760,500,l),
(760,130,l),
(770,130,l),
(770,0,l),
(870,0,l),
(870,500,l)
);
}
);
};
layerId = "9AADC1C9-C373-4903-A2C4-BDDDC6C38F92";
shapes = (
{
angle = 180;
pos = (881,500);
ref = n;
}
);
width = 881;
},
{
associatedMasterId = "9AADC1C9-C373-4903-A2C4-BDDDC6C38F92";
background = {
shapes = (
{
closed = 1;
nodes = (
(839,500,l),
(729,500,l),
(729,0,l),
(839,0,l)
);
},
{
closed = 1;
nodes = (
(100,267,l),
(100,49,o),
(281,-20,o),
(438,-20,cs),
(617,-20,o),
(781,70,o),
(781,247,c),
(729,247,l),
(729,139,o),
(580,80,o),
(442,80,cs),
(312,80,o),
(210,132,o),
(210,269,cs),
(210,500,l),
(100,500,l)
);
}
);
};
layerId = "12A585EF-C096-4116-90EB-7E774553539A";
name = "Mar 23 21, 13:04";
shapes = (
{
closed = 1;
nodes = (
(597,-20,o),
(717,34,o),
(770,130,c),
(770,310,l),
(760,310,l),
(760,147,o),
(608,81,o),
(464,81,cs),
(334,81,o),
(210,132,o),
(210,280,cs),
(210,500,l),
(100,500,l),
(100,250,ls),
(100,80,o),
(250,-20,o),
(450,-20,cs)
);
},
{
closed = 1;
nodes = (
(760,500,l),
(760,130,l),
(770,130,l),
(770,0,l),
(870,0,l),
(870,500,l)
);
}
);
width = 939;
},
{
anchors = (
{
name = bottom;
pos = (286,0);
},
{
name = ogonek;
pos = (506,0);
},
{
name = top;
pos = (286,500);
},
{
name = topright;
pos = (869,500);
}
);
background = {
shapes = (
{
closed = 1;
nodes = (
(597,-20,o),
(717,34,o),
(770,130,c),
(770,310,l),
(760,310,l),
(760,147,o),
(608,81,o),
(464,81,cs),
(334,81,o),
(210,132,o),
(210,280,cs),
(210,500,l),
(100,500,l),
(100,250,ls),
(100,80,o),
(250,-20,o),
(450,-20,cs)
);
},
{
closed = 1;
nodes = (
(760,500,l),
(760,130,l),
(770,130,l),
(770,0,l),
(870,0,l),
(870,500,l)
);
}
);
};
layerId = m002;
shapes = (
{
angle = 180;
pos = (568,500);
ref = n;
}
);
width = 568;
},
{
associatedMasterId = m002;
background = {
shapes = (
{
closed = 1;
nodes = (
(839,500,l),
(729,500,l),
(729,0,l),
(839,0,l)
);
},
{
closed = 1;
nodes = (
(100,267,l),
(100,49,o),
(281,-20,o),
(438,-20,cs),
(617,-20,o),
(781,70,o),
(781,247,c),
(729,247,l),
(729,139,o),
(580,80,o),
(442,80,cs),
(312,80,o),
(210,132,o),
(210,269,cs),
(210,500,l),
(100,500,l)
);
}
);
};
layerId = "F419BC16-CB3C-41A9-AB35-0A7C5D6E6C57";
name = "Mar 23 21, 13:04";
shapes = (
{
closed = 1;
nodes = (
(597,-20,o),
(717,34,o),
(770,130,c),
(770,310,l),
(760,310,l),
(760,147,o),
(608,81,o),
(464,81,cs),
(334,81,o),
(210,132,o),
(210,280,cs),
(210,500,l),
(100,500,l),
(100,250,ls),
(100,80,o),
(250,-20,o),
(450,-20,cs)
);
},
{
closed = 1;
nodes = (
(760,500,l),
(760,130,l),
(770,130,l),
(770,0,l),
(870,0,l),
(870,500,l)
);
}
);
width = 939;
}
);
unicode = 117;
},
{
glyphname = v;
kernLeft = v;
kernRight = v;
lastChange = "2024-10-23 18:05:27 +0000";
layers = (
{
anchors = (
{
name = bottom;
pos = (400,0);
},
{
name = top;
pos = (400,500);
}
);
background = {
guides = (
{
angle = 90;
pos = (-4,224);
},
{
angle = 90;
pos = (718,224);
},
{
angle = 90;
pos = (-4,224);
}
);
shapes = (
{
closed = 1;
nodes = (
(653,500,l),
(333,0,l),
(439,0,l),
(759,500,l)
);
},
{
closed = 1;
nodes = (
(320,0,l),
(439,0,l),
(119,500,l),
(0,500,l)
);
},
{
angle = 180;
pos = (825,500);
ref = n;
}
);
};
guides = (
{
angle = 90;
pos = (-4,224);
},
{
angle = 90;
pos = (719,224);
},
{
angle = 122.6192;
pos = (160,250);
},
{
angle = 122.6192;
pos = (280,250);
},
{
angle = 57.3808;
pos = (639,250);
},
{
angle = 57.3808;
pos = (519,250);
}
);
layerId = "9AADC1C9-C373-4903-A2C4-BDDDC6C38F92";
shapes = (
{
closed = 1;
nodes = (
(433,0,l),
(119,500,l),
(0,500,l),
(320,0,l)
);
},
{
closed = 1;
nodes = (
(479,0,l),
(799,500,l),
(680,500,l),
(367,0,l)
);
}
);
width = 799;
},
{
associatedMasterId = "9AADC1C9-C373-4903-A2C4-BDDDC6C38F92";
background = {
guides = (
{
angle = 90;
pos = (-4,224);
},
{
angle = 90;
pos = (718,224);
},
{
angle = 90;
pos = (-4,224);
}
);
shapes = (
{
pos = (-131,0);
ref = o;
}
);
};
guides = (
{
angle = 90;
pos = (-4,224);
},
{
angle = 90;
pos = (719,224);
}
);
layerId = "844CDFB9-4039-4391-B990-C5CB0BFD0F49";
name = "14 Jun 21, 0:22";
shapes = (
{
closed = 1;
nodes = (
(653,500,l),
(333,0,l),
(439,0,l),
(759,500,l)
);
},
{
closed = 1;
nodes = (
(320,0,l),
(439,0,l),
(119,500,l),
(0,500,l)
);
}
);
width = 759;
},
{
anchors = (
{
name = bottom;
pos = (252,0);
},
{
name = top;
pos = (252,500);
}
);
background = {
guides = (
{
angle = 90;
pos = (-152,224);
},
{
angle = 90;
pos = (570,224);
},
{
angle = 90;
pos = (-152,224);
}
);
shapes = (
{
closed = 1;
nodes = (
(285,0,l),
(-29,500,l),
(-148,500,l),
(172,0,l)
);
},
{
closed = 1;
nodes = (
(331,0,l),
(651,500,l),
(532,500,l),
(219,0,l)
);
}
);
};
guides = (
{
angle = 90;
pos = (-152,224);
},
{
angle = 90;
pos = (571,224);
}
);
layerId = m002;
shapes = (
{
closed = 1;
nodes = (
(270,0,l),
(120,500,l),
(2,500,l),
(172,0,l)
);
},
{
closed = 1;
nodes = (
(331,0,l),
(501,500,l),
(383,500,l),
(233,0,l)
);
}
);
width = 503;
},
{
associatedMasterId = m002;
background = {
guides = (
{
angle = 90;
pos = (-4,224);
},
{
angle = 90;
pos = (718,224);
},
{
angle = 90;
pos = (-4,224);
}
);
shapes = (
{
pos = (-131,0);
ref = o;
}
);
};
guides = (
{
angle = 90;
pos = (-4,224);
},
{
angle = 90;
pos = (719,224);
}
);
layerId = "80D07AB1-8245-4F52-BFC4-4BB614BF073A";
name = "14 Jun 21, 0:22";
shapes = (
{
closed = 1;
nodes = (
(653,500,l),
(333,0,l),
(439,0,l),
(759,500,l)
);
},
{
closed = 1;
nodes = (
(320,0,l),
(439,0,l),
(119,500,l),
(0,500,l)
);
}
);
width = 759;
}
);
unicode = 118;
},
